<svg id="Camada_1" data-name="Camada 1" xmlns="http://www.w3.org/2000/svg" viewBox="0 0 260 239"><defs><style>.cls-1{fill:#faad17;}</style></defs><title>5 STAR</title><path class="cls-1" d="M58.05,230.09c.57-5.32,1.12-10.44,1.67-15.57q1.2-11.15,2.39-22.3c.7-6.46,1.44-12.92,2.13-19.39q1.1-10.18,2.13-20.36a2,2,0,0,0-.52-1.32q-8.79-9.72-17.63-19.39-14.06-15.48-28.11-31c-2.12-2.34-4.26-4.65-6.56-7.17,1.83-.43,3.47-.82,5.11-1.18L55.9,84.13c11-2.44,21.93-4.86,32.88-7.35a2.89,2.89,0,0,0,1.62-1.25q14.89-24.94,29.7-49.93c3.26-5.5,6.52-11,9.89-16.71,1.29,2.23,2.48,4.3,3.66,6.37l25.72,45.15q4.51,7.93,9,15.86A3,3,0,0,0,170.64,78q29.46,6,58.89,12.11c5.54,1.14,11.09,2.26,16.9,3.44-1.17,1.3-2.19,2.46-3.22,3.6Q228,113.88,212.84,130.6q-9.06,10-18.16,19.86a3.57,3.57,0,0,0-1,3.12c.87,7.52,1.65,15.05,2.46,22.58q1.19,10.95,2.4,21.89t2.36,21.89c.36,3.32.72,6.64,1.11,10.17-2.36-1-4.59-2-6.8-3l-35.14-15.5c-9.63-4.25-19.26-8.52-28.92-12.72a3.22,3.22,0,0,0-2.31,0Q107,208.48,85.15,218.16L59.06,229.71C58.81,229.82,58.55,229.91,58.05,230.09Zm47.71-79.28c-.32,4.43.22,6.62,2.47,10.17.5.78,1.06,1.53,1.53,2.33,3.65,6.26,9.35,9.17,16.33,9.55,8.57.46,16.07-1.57,20.44-10,2.11-4.06,3.79-8.18,3.2-12.88a59.05,59.05,0,0,1-.7-6.35,28,28,0,0,0-1.77-9.95c-3-7.69-8.47-12.37-16.71-13.56a11.87,11.87,0,0,0-4.83.11,31.14,31.14,0,0,0-5.22,2.57l1.07-15.54h24.18V94.74H109.91l-4.21,38c3.23.89,6.41,1.71,9.56,2.65,1.44.43,2.7.78,3.34-1.09.06-.17.35-.27.54-.39a10.13,10.13,0,0,1,5.68-1.21,6.36,6.36,0,0,1,5.3,2.22c.65.78,1.44,1.45,2.12,2.22a7.2,7.2,0,0,1,2,5q-.1,5.16,0,10.33a9.81,9.81,0,0,1-1.84,5.29c-1.6,2.66-4.19,2.77-6.89,2.4a3.65,3.65,0,0,1-3.13-2.45c-.82-2.24-1.56-4.51-2.38-6.91Z"/></svg>