<svg id="Camada_1" data-name="Camada 1" xmlns="http://www.w3.org/2000/svg" viewBox="0 0 266 266"><defs><style>.cls-1{fill:#ffcb00;}</style></defs><title>ANDROID</title><path class="cls-1" d="M3,148.56V117.43c1.7-1.47,1.24-3.62,1.55-5.45a130,130,0,0,1,102-106.44c3.92-.81,8.08-.65,11.76-2.55h29.3c.41,1.18,1.46.83,2.3.94C215.58,13,263,67.39,263,133.69,263,195,219.66,248,159.4,260.46c-3.92.81-8.07.65-11.75,2.55H117.43c-1.47-1.7-3.62-1.24-5.45-1.55A130,130,0,0,1,5.54,159.4C4.79,155.78,5.06,151.88,3,148.56Zm130.2-43.49c-14.49,0-29,.13-43.46-.08-4-.06-5.43.76-5.37,5.15.26,20.13.12,40.26.12,60.39,0,12.4,3.39,16,15.89,16.27,2.53.06,3.46.69,3.39,3.33q-.25,9.6,0,19.21c.17,6.66,5.12,11.42,11.36,11.26s10.49-4.8,10.56-11.39c.08-6.4.15-12.81.14-19.21,0-1.93.32-3.56,2.67-3.09,3.91.79,8.36-2.11,11.76,1.64.46.51.09,1.77.1,2.69,0,5.64,0,11.29,0,16.93.07,7.52,4.52,12.46,11.09,12.41,6.38,0,10.72-4.81,10.84-12.15.11-6.1.14-12.2,0-18.3-.07-2.65.86-3.59,3.4-3.28a24,24,0,0,0,3.2,0c8-.13,12.81-4.9,12.82-12.85,0-21.5-.08-43,.1-64.5,0-3.74-1.2-4.55-4.66-4.51C162.47,105.17,147.83,105.07,133.19,105.07Zm-.07-4.27c14.65,0,29.3-.2,43.94.12,4.67.1,5.29-1.53,4.74-5.57-1.94-14.2-9.62-24.45-21.53-31.75-2.37-1.45-2.91-2.54-1.41-4.93,1.94-3.09,3.58-6.38,5.3-9.6.54-1,1.61-2.23,0-3.14s-2.21.35-2.83,1.45c-1.85,3.33-3.77,6.62-5.46,10-1.07,2.15-2.14,2.71-4.62,1.83a52.37,52.37,0,0,0-36.27.15c-2.33.85-3.55.57-4.66-1.72-1.65-3.42-3.62-6.7-5.46-10-.58-1.06-1.14-2.46-2.68-1.77-2.05.91-.69,2.37-.15,3.44a64.34,64.34,0,0,0,4.41,8c2.26,3.26,2,5.07-1.67,7.37-11.14,7-18,17.13-19.9,30.32-.83,5.6-.72,5.8,4.73,5.8ZM58.84,135.74c0,7,0,14,0,21,.05,7.48,4.56,12.67,10.88,12.66,6.53,0,10.89-5,10.91-12.6q.07-21,0-42.07c0-7.39-4.3-12-10.84-12s-10.86,4.64-10.94,12C58.78,121.72,58.84,128.73,58.84,135.74Zm147.86.44H207c0-7.46.18-14.93-.05-22.39-.21-6.71-4.71-11-10.92-11s-10.72,4.4-10.79,11.11q-.2,22.16,0,44.32c.07,6.56,4.84,11.27,10.81,11.26s10.51-4.72,10.61-11.34C206.79,150.8,206.7,143.49,206.7,136.19Z"/><path class="cls-1" d="M159.46,79.46c-.53,2.34-2,4-4.36,3.69a3.75,3.75,0,0,1-3.6-4.37,3.68,3.68,0,0,1,4-3.46C158.1,75.42,159.19,77.08,159.46,79.46Z"/><path class="cls-1" d="M110.76,83.21c-2.32-.38-3.8-1.63-3.75-3.95.05-2.47,1.46-4.06,4.06-3.92a3.6,3.6,0,0,1,3.7,3.84C114.79,81.83,113,82.88,110.76,83.21Z"/></svg>