<svg id="Camada_1" data-name="Camada 1" xmlns="http://www.w3.org/2000/svg" viewBox="0 0 260 239"><defs><style>.cls-1{fill:#faad17;}</style></defs><title>BTC 2</title><path class="cls-1" d="M117.56,233.76h-20V200.93H57.86l4-23.54c4.65,0,9.1,0,13.54,0,5.55,0,8.16-2.65,8.17-8.22s0-11.27,0-16.9q0-34.22,0-68.43c0-5.41-3-9.19-8.38-10a64.41,64.41,0,0,0-8.52-.36c-2.89-.05-5.79,0-8.7,0V52.36H97.52V20h19.62c.06.83.18,1.65.18,2.48q0,13.35,0,26.71v2.3H133V20h19.62c0,.83.14,1.66.14,2.49,0,9.32,0,18.64,0,28,0,1.48.38,2,1.94,2.18,7.89.82,15.72,2,23.17,4.92,6.42,2.51,12.31,5.8,16.58,11.46,4.94,6.54,6.38,14.07,6.34,22,0,10.12-3.61,18.58-11.93,24.71-1.47,1.08-3.06,2-4.66,3,3.15,1.17,6.2,2.12,9.09,3.43,7.82,3.55,13.9,8.92,16.87,17.24,2.46,6.9,2.58,14,1.75,21.22-.92,8-3.32,15.46-8.25,22-5.31,7-12.7,10.83-20.8,13.57-9,3.06-18.42,4.09-27.88,4.58-1.68.09-2.27.58-2.23,2.32.12,4.66.06,9.32,0,14,0,5.56-.09,11.12-.14,16.68H133V201.58H117.35v2q0,14.06,0,28.13C117.36,232.4,117.49,233.08,117.56,233.76Zm.26-55.93c8.78-.34,17.33-.41,25.83-1.08a49.81,49.81,0,0,0,19.21-5.08c10-5.16,13.08-16.6,7-26-2.91-4.46-7.3-6.66-12.09-8.34-8.67-3-17.7-3.37-26.75-3.46-4.35,0-8.7,0-13.16,0Zm0-63.64a12.49,12.49,0,0,0,1.35.13c6.25-.14,12.52,0,18.74-.52a43.47,43.47,0,0,0,16.07-4c12.86-6.39,11.87-20.66,4.81-27.56-3.95-3.85-9.05-5.3-14.25-6.32-8.1-1.59-16.32-1.25-24.52-1.21-1.8,0-2.36.45-2.35,2.32.09,11.67,0,23.35,0,35C117.71,112.77,117.77,113.44,117.81,114.2Z"/></svg>