<svg id="Camada_1" data-name="Camada 1" xmlns="http://www.w3.org/2000/svg" viewBox="0 0 260 239"><defs><style>.cls-1{fill:#faad17;}</style></defs><title>CARTÃO 2</title><path class="cls-1" d="M34.42,182.72c9.83,0,18.46-.25,27.07.08a40,40,0,0,0,21.38-5.51,103.58,103.58,0,0,0,26.61-20.68,67,67,0,0,1,22-15.9c5.12-2.34,10.31-4.58,15.26-7.26,7.62-4.13,10-11.25,9.6-19.34-.34-6.94-4.47-10.06-11.38-9.11a46.3,46.3,0,0,0-13.73,4.28c-18.36,8.83-37.9,15.14-55.3,26-2.3,1.44-4.58,1.62-6.05-.83s-.46-4.77,2-5.79c7.14-2.95,8.1-8.17,7.83-15.38-.6-16.24-.12-32.52.18-48.78.07-4-.8-5.38-5.11-5.46a25.6,25.6,0,0,0-15.35,4.69c-14.78,9.91-28.35,21.37-42,32.73-1.35,1.13-2.78,2.16-4.8,3.73-.17-6.2.25-10.78,5.22-14.67,11.89-9.3,23.4-19.07,36-27.46,6.83-4.54,14-7.59,22.37-6.53C79.68,52,82,51,84,47.72c3.32-5.68,9.28-7.54,15.41-7.56q63.74-.22,127.48,0c12.19.06,19.15,7.12,19.81,19.76.54,10.27.27,20.58.29,30.87q0,23.16,0,46.32c0,16.84-6.77,23.63-23.47,23.71-11.29.05-22.58.16-33.86-.08-3.52-.07-5,1-5.6,4.45a51.66,51.66,0,0,1-6.68,18.09c-5.75,9.34-12.83,11.57-22.78,6.91-1.88-.88-2.78-.59-4.26.67-11.24,9.64-18.79,9.66-30.24,0-1.94-1.64-3.32-1.39-5.29-.5a24.52,24.52,0,0,1-16.5,1.76,13.44,13.44,0,0,1-8.2-6.1c-1.12-1.79-2.09-2.71-4.28-1.41C72,192.67,56.84,190.37,42,190.46,37.79,190.48,37.26,186.13,34.42,182.72ZM127,152.1c2.34,1.5,4.2,1,5.95,1q46.08.05,92.16,0c9.82,0,13.7-3.6,13.79-13.39.15-17.27,0-34.54.11-51.81,0-3.23-.93-4.24-4.2-4.24q-71.48.14-143,0c-3.64,0-4.44,1.29-4.37,4.63q.29,13.44,0,26.9c-.08,3.71.69,4.74,4.38,3.05,12.37-5.63,24.84-11,37.28-16.53,5.79-2.56,11.67-4.85,18.15-4.71,10.07.23,16.88,7,16.95,17,.09,13.13-5,23-17.61,28.48C140.14,145.36,133.36,147.66,127,152.1Zm36.64-86.62c23.55,0,47.1-.1,70.65.09,4.41,0,5.38-1.42,4.77-5.51-1.19-8-5.46-12-13.69-12q-62.44,0-124.87.05c-7.63,0-11.58,3.49-12.84,11.06-.94,5.67-.41,6.33,5.34,6.34Q128.33,65.49,163.65,65.48ZM149.6,168.84c.12-8,.12-8-6.77-8-4.15,0-8.3.1-12.44,0-2.43-.08-3.6.59-3.71,3.28a53.39,53.39,0,0,1-3,16.06,2.85,2.85,0,0,0,.37,3.24c3.09,3.26,6.1,6.89,11.16,6.56a13.36,13.36,0,0,0,11.54-7.51C149.07,177.88,149.44,172.91,149.6,168.84Zm18-8a28.4,28.4,0,0,1-4,0c-4.55-.65-6.66.51-5.83,5.77.5,3.15-.31,6.6-1,9.82s-1.39,5.82,2.4,7.45c3.47,1.5,6.44,1,9.05-1.66a30.15,30.15,0,0,0,6.44-10.5C178.78,161.2,178.51,160.83,167.56,160.83Zm-48.76,5.44c-.56-1.9,1.4-4.17-.94-5.16-1.83-.77-2.88,1.24-4,2.36a185.08,185.08,0,0,1-15,13c-1.26,1-3.72,1.36-2.93,3.93a6.09,6.09,0,0,0,4.53,4.17,13,13,0,0,0,16.42-8.83C117.81,172.6,118.21,169.28,118.81,166.26Z"/></svg>