<svg id="Camada_1" data-name="Camada 1" xmlns="http://www.w3.org/2000/svg" viewBox="0 0 196 196"><defs><style>.cls-1{fill:#fcd200;}</style></defs><title>celular</title><path class="cls-1" d="M86,102.21v-.74q0-11.32,0-22.64a6,6,0,0,1,4.5-5.8,5.72,5.72,0,0,1,6.67,2.82A7.22,7.22,0,0,1,98,78.68c.12,1.83,0,3.67,0,5.5v.76c3.9-1.44,6.75-.36,8.54,3.41a6.24,6.24,0,0,1,5.19-.51,5.8,5.8,0,0,1,3.51,3.5,21.8,21.8,0,0,1,3.32-.6,5.6,5.6,0,0,1,5.76,5,11.8,11.8,0,0,1,.13,1.7c0,4.09.06,8.18,0,12.27a41.21,41.21,0,0,1-.93,9.15c-1.32,5.4-4.75,8.62-10.07,9.94a31.21,31.21,0,0,1-6.5.82,36.15,36.15,0,0,1-8.72-.67,16.77,16.77,0,0,1-8.35-4.62c-5.35-5.24-10.61-10.56-15.93-15.82a7.69,7.69,0,0,1-2.16-3.05c-1-3.1,1.17-7.86,5.33-8.25A6.3,6.3,0,0,1,82.6,99c.92,1,1.87,1.88,2.81,2.82.14.14.3.28.45.41ZM89.21,110l-.62-.58c-2.7-2.67-5.38-5.35-8.09-8a3.18,3.18,0,0,0-4.58.16A2.91,2.91,0,0,0,76,106l7.5,7.44q4.12,4.11,8.23,8.23a14.74,14.74,0,0,0,6.43,3.85,23.7,23.7,0,0,0,5.85.87,29.58,29.58,0,0,0,9.21-.87c4.18-1.19,6.75-3.89,7.45-8.18a42.42,42.42,0,0,0,.52-6.15c.08-4.6,0-9.19,0-13.79a5.65,5.65,0,0,0-.06-.94A2.68,2.68,0,0,0,118,94.27a2.82,2.82,0,0,0-2.4,2.9c0,2.15,0,4.3,0,6.45A1.56,1.56,0,0,1,115,105a1.57,1.57,0,0,1-2.52-1.3c0-3.16,0-6.33,0-9.49a2.93,2.93,0,0,0-3-2.91,2.74,2.74,0,0,0-2.61,2.91q0,3.73,0,7.46a1.6,1.6,0,0,1-1,1.61,1.56,1.56,0,0,1-2.19-1.56c0-3.56,0-7.13,0-10.69a2.82,2.82,0,1,0-5.63.11c0,2.64,0,5.27,0,7.91a2.31,2.31,0,0,1-.26,1.08,1.54,1.54,0,0,1-1.83.64,1.49,1.49,0,0,1-1-1.5q0-9.46,0-18.91a9.78,9.78,0,0,0-.12-1.51,2.68,2.68,0,0,0-3.35-2.14,2.91,2.91,0,0,0-2.19,3.09q0,14.64,0,29.29Z"/><path class="cls-1" d="M103.95,81.87l-2.84-1.26c0-.52.12-1.14.12-1.77A9.21,9.21,0,1,0,83.39,82a3.37,3.37,0,0,1,.2,1.1c0,1.51,0,3,0,4.58C80.37,85.2,78.15,79,80.88,73.34a12.51,12.51,0,0,1,16.07-5.91C103.47,70.31,105.44,77.33,103.95,81.87Z"/><path class="cls-1" d="M48.93,98.51q0-25.41,0-50.82c0-6.61-.14-13.23.07-19.83A18.69,18.69,0,0,1,62.8,10.79a26.81,26.81,0,0,1,7-.81c19.39,0,38.77-.07,58.16.06,7.53,0,13.21,3.67,17,10.19,1.79,3.13,2.17,6.62,2.18,10.14,0,6.85,0,13.7,0,20.55s0,13.77,0,20.66,0,13.77,0,20.66,0,13.77,0,20.66,0,13.77,0,20.66,0,13.77,0,20.66c0,4.3,0,8.61-.05,12.91a18.52,18.52,0,0,1-8.21,15.51,15.49,15.49,0,0,1-7.36,3c-1.46.15-2.92.35-4.39.35-19.87,0-39.74.07-59.61,0-6.55,0-11.67-3-15.38-8.41a18.73,18.73,0,0,1-3.21-11q0-19.06,0-38.11,0-15,0-30Zm91.75-.34h0q0-19.93,0-39.87c0-9.78,0-19.55,0-29.33a12.41,12.41,0,0,0-2.91-8c-2.7-3.33-6.43-4.55-10.53-4.68s-8.33,0-12.49,0c-15.22,0-30.43,0-45.65.05a17.51,17.51,0,0,0-5.69,1,12.71,12.71,0,0,0-8.23,12.42c.08,6.85,0,13.7,0,20.55q0,18.59,0,37.18t0,37.18c0,14.15,0,28.3,0,42.45a12.24,12.24,0,0,0,2.54,7.51c2.83,3.75,6.74,5.18,11.29,5.2,4.06,0,8.12,0,12.19,0,15.49,0,31,0,46.48,0a12.39,12.39,0,0,0,5.09-.92c5-2.34,7.89-6.24,7.89-12Q140.68,132.52,140.68,98.18Z"/><path class="cls-1" d="M60.1,91.27q0-29.85,0-59.7c0-.38,0-.76,0-1.14A1.69,1.69,0,0,1,62,28.56l23.44,0H133.8c1.38,0,2,.62,2,2q0,14.1,0,28.2,0,22.72,0,45.44,0,24.06,0,48.13c0,1.25-.59,1.85-1.89,1.9s-2.55,0-3.82,0l-37.18,0q-14.61,0-29.23,0c-.48,0-1,0-1.45,0-1.54-.07-2.14-.69-2.14-2.24q0-8.78,0-17.56,0-21.59,0-43.17Zm72.58.11h0q0-10.17,0-20.35,0-18.54,0-37.08c0-2.81.12-2.26-2.21-2.26H97.77l-33.11,0c-1.4,0-1.42,0-1.42,1.48q0,24.79,0,49.57,0,33.57,0,67.13c0,.82.26,1.09,1.06,1.09,5.71,0,11.43,0,17.14,0h29.12c7,0,14,0,21.07,0,.87,0,1.09-.27,1.09-1.12,0-4.06,0-8.12,0-12.19Q132.68,114.51,132.68,91.38Z"/><path class="cls-1" d="M98,176a9.4,9.4,0,0,1-9.7-9.56,9.56,9.56,0,0,1,9.42-9.53,9.68,9.68,0,0,1,9.88,9.67C107.67,171.29,103.43,176.26,98,176Zm0-3.12a6.32,6.32,0,0,0,6.48-6.32,6.39,6.39,0,0,0-6.51-6.5,6.41,6.41,0,1,0,0,12.82Z"/><path class="cls-1" d="M98,23.6c-2.89,0-5.77,0-8.66,0a2.14,2.14,0,0,1-1.3-.44,1.24,1.24,0,0,1-.22-1.1,1.18,1.18,0,0,1,.84-.68c2.07-.09,4.15-.11,6.22-.12,3.88,0,7.76,0,11.65,0,.1,0,.2,0,.31,0a1.43,1.43,0,0,1,1.58,1.13c.12.59-.72,1.25-1.56,1.26-2.16,0-4.33,0-6.49,0H98Z"/></svg>