<svg id="Camada_1" data-name="Camada 1" xmlns="http://www.w3.org/2000/svg" viewBox="0 0 72 67"><defs><style>.cls-1{fill:#ff8400;}</style></defs><title>CELULAR</title><path class="cls-1" d="M38.24,47.41c-1.2-1.13-2.17-2.08-3.19-3A1.66,1.66,0,0,0,34,44a5.5,5.5,0,0,1-5.63-5.66c.1-4.37,0-8.74,0-13.11A5.36,5.36,0,0,1,34,19.58q12,0,24,0a5.34,5.34,0,0,1,5.49,5.57c0,4.44-.06,8.88,0,13.32A5.54,5.54,0,0,1,57.88,44c-5.22-.08-10.44,0-15.66,0a1.61,1.61,0,0,0-1.35.54C40,45.49,39.16,46.41,38.24,47.41Zm7.67-14.08c3.32,0,6.64,0,10,0,.49,0,.69-.14.65-.64a9.21,9.21,0,0,1,0-1.6c.08-.7-.2-.86-.86-.86-3.5,0-7,0-10.5,0-3,0-6.06,0-9.09,0-.58,0-.81.17-.76.76a10.65,10.65,0,0,1,0,1.67c0,.54.18.67.69.67C39.32,33.33,42.62,33.34,45.92,33.33Zm5.39-5.27c0-.91,0-1.69,0-2.46,0-.51-.17-.64-.66-.64-1.72,0-3.43,0-5.15,0-3.17,0-6.33,0-9.5,0-.53,0-.72.15-.68.68s0,1,0,1.54c0,.88,0,.88.88.88H51.31Zm1,7.63H44.34v2.94h7.92Zm-16.92,3c2.15,0,4.2,0,6.24,0,.11,0,.3-.29.31-.45,0-.69,0-1.38,0-2.07,0-.39-.17-.5-.53-.49H35.83c-.33,0-.5.1-.49.46C35.35,36.93,35.34,37.75,35.34,38.69Z"/><path class="cls-1" d="M47.88,16.51H45V14.72H18.21V52.19c.21,0,.43,0,.64,0q12.72,0,25.43,0c.62,0,.75-.2.73-.77,0-1.42,0-2.85,0-4.32h2.84c0,.23,0,.47,0,.7q0,4.85,0,9.7a5.46,5.46,0,0,1-5.64,5.67H21a5.42,5.42,0,0,1-5.6-4.4,5.11,5.11,0,0,1-.08-1.06c0-14.55,0-29.09,0-43.64a5.55,5.55,0,0,1,5.63-5.68c7.16,0,14.32,0,21.48,0A5.41,5.41,0,0,1,47.88,14C47.89,14.8,47.88,15.63,47.88,16.51ZM34.58,57.28a3,3,0,0,0-3.06-3,3.07,3.07,0,0,0-3,3.06,3.11,3.11,0,0,0,3,3A3.05,3.05,0,0,0,34.58,57.28Z"/></svg>