<svg id="Camada_1" data-name="Camada 1" xmlns="http://www.w3.org/2000/svg" viewBox="0 0 72 77"><defs><style>.cls-1{fill:#ff8400;}</style></defs><title>TROCA</title><path class="cls-1" d="M70.22,50.38c-.87,2.77-1.42,5.71-2.67,8.29a23.08,23.08,0,0,1-24.11,12.5c-10.59-1.83-18.28-9.58-19.7-19.85-.05-.38-.15-.75-.24-1.22a23.42,23.42,0,0,1-17-9.78A22.82,22.82,0,0,1,2.28,24.77,23.67,23.67,0,0,1,22.72,3.6C35.32,2.16,47.8,11.16,49,24.79a23.54,23.54,0,0,1,14.16,6.66A22.56,22.56,0,0,1,70,45.21a5.67,5.67,0,0,0,.27.93ZM42.33,25.11c.23-7.27-7.48-14.78-15.52-15.22A17.19,17.19,0,0,0,8.51,25.63a16.94,16.94,0,0,0,15.22,18l2.12-6.26c-4.13-.06-7.34-1.66-9.34-5.16C15.68,30.81,15,29.53,13,30.13v-2l1.87-.25v-2l-1.82-.24V23.55c1.78.48,2.5-.37,3.29-1.79a9.92,9.92,0,0,1,9.87-5.39A10.23,10.23,0,0,1,35,22.13L33.19,23c-2.06-3.46-5-5.08-8.82-4.56a8.28,8.28,0,0,0-6.69,5.16h7.76v2.08h-6.9c-.75,0-1.53-.17-1.56,1.07S17.76,28,18.59,28h6.86v2.17H17.77a8.37,8.37,0,0,0,8.77,5.21,2.52,2.52,0,0,0,1.25-.82c1.69-1.69,3.22-3.54,5-5.08A22.07,22.07,0,0,1,42.33,25.11Zm4.51,44.31a21.28,21.28,0,1,0-21.3-21.61A21.35,21.35,0,0,0,46.83,69.42Zm-.27-44.69C47.21,16.2,37.5,6.39,27.8,5.63c-12.37-1-22.65,7.75-23.52,19.95C3.49,36.73,12.36,47.18,23.4,48v-2C10.68,43.69,6,33.44,6.53,25.6A19.2,19.2,0,0,1,23.28,7.89c9.35-1,19.57,4.88,21.43,16.94Z"/><path class="cls-1" d="M10.7,50.38c0,3,0,5.85,0,8.72,0,2.7,1.14,3.86,3.86,3.9,2.88,0,5.76,0,8.76,0v2c-3.38,0-6.75.14-10.09,0a4.7,4.7,0,0,1-4.49-4.42c-.17-3.35,0-6.72,0-10.19Z"/><path class="cls-1" d="M49,11.87V9.95c3.42,0,6.78-.16,10.12.05a4.88,4.88,0,0,1,4.58,5c.06,3.13,0,6.27,0,9.49h-2V18c0-5.78-.34-6.12-6.22-6.12Z"/><path class="cls-1" d="M46.61,67.17A19,19,0,1,1,66,48.45,19.27,19.27,0,0,1,46.61,67.17Zm.14-2.08c9.45,0,17.26-7.64,17.18-16.86A17,17,0,1,0,46.74,65.09Z"/><path class="cls-1" d="M48,59.72H45.86c.46-1.77-.64-2.41-2-3.12-1.56-.83-2.13-2.28-2.08-4.17h1.57A12.54,12.54,0,0,0,45,54.86a3.12,3.12,0,0,0,4.5-.45c1.21-1.46,1-2.66-.69-4-.68-.53-1.49-.88-2.22-1.34A24.26,24.26,0,0,1,43.46,47c-2.46-2.15-2.31-5.41.51-7.12,1.42-.86,2.3-1.65,1.85-3.44h2.06L48,38.85c2.35.82,3.92,2.28,4.18,4.94H50.31a13.21,13.21,0,0,0-.61-1.46,3.21,3.21,0,0,0-5.54-.19,2.22,2.22,0,0,0,.31,3.21,31.36,31.36,0,0,0,2.81,1.92,28.81,28.81,0,0,1,3,1.93c2.62,2.23,2.4,5.76-.57,7.47C48.46,57.4,47.58,58,48,59.72Z"/><path class="cls-1" d="M36.13,47.19V49H34.19V47.19Z"/><path class="cls-1" d="M57.57,47.15h1.9l.1,1.85h-2Z"/></svg>