<svg id="Camada_1" data-name="Camada 1" xmlns="http://www.w3.org/2000/svg" viewBox="0 0 72 67"><defs><style>.cls-1{fill:#ff8400;}</style></defs><title>TROCA 2</title><path class="cls-1" d="M18.94,45.25l.5.35c1.91,1.21,3.79,2.47,5.74,3.62A3.1,3.1,0,0,1,26.06,54a2.63,2.63,0,0,1-3.64.64l-9.91-6.3C10.74,47.21,9,46.1,7.2,45a2.9,2.9,0,0,1-1.27-3A2.82,2.82,0,0,1,8,39.46a3.72,3.72,0,0,1,1.09-.16h52.6a3,3,0,0,1,3.11,2.52,3,3,0,0,1-2.07,3.28,4.53,4.53,0,0,1-1.24.14H18.94Z"/><path class="cls-1" d="M51.68,23.48l-5.21-3.27c-.48-.3-1-.59-1.43-.89a2.8,2.8,0,0,1-1.24-3.18,3,3,0,0,1,2.7-2.45,2.93,2.93,0,0,1,1.81.55L62.21,23c.44.27.87.55,1.31.82a3.25,3.25,0,0,1,1.24,3.57,2.91,2.91,0,0,1-2.83,2.13H9.22a4.44,4.44,0,0,1-1.46-.21A2.89,2.89,0,0,1,5.9,26a3,3,0,0,1,2.82-2.46H51.65Z"/></svg>