<svg id="Camada_1" data-name="Camada 1" xmlns="http://www.w3.org/2000/svg" viewBox="0 0 260 239"><defs><style>.cls-1{fill:#faad17;}</style></defs><title>CHAT 2</title><path class="cls-1" d="M251,132.27c-1,3.94-1.62,8-3,11.8-5.06,13.71-14.78,23.52-26.86,31.27q-1.69,1.08-3.42,2.08c-1.14.66-2.31,1.27-3.61,2L235,219.06l-.31.26c-.69-.45-1.39-.88-2.07-1.34-13.92-9.6-27.81-19.22-41.78-28.74a5.25,5.25,0,0,0-3.6-.78,112.35,112.35,0,0,1-53-1.93,91,91,0,0,1-29.62-14.11c-2.39-1.74-4.61-3.71-6.86-5.55,7.76-.66,15.39-.92,22.89-2,22.84-3.35,43.76-11.43,61.36-26.75,12.74-11.09,21.7-24.58,24.42-41.63a59.06,59.06,0,0,0-.82-22.25c-.13-.59-.22-1.18-.38-2.05a83.4,83.4,0,0,1,27.05,16.44c9.9,9.12,16.64,20,18.36,33.61a5.41,5.41,0,0,0,.39,1.1Z"/><path class="cls-1" d="M26.33,182.47l21.89-41.61c-5.12-3.47-10.29-6.53-14.94-10.22C21.54,121.35,13,109.83,10.2,94.77c-2.43-12.89.21-24.89,7-35.93,9.62-15.67,24-25.49,40.81-32a116.82,116.82,0,0,1,52.1-7.3c19.71,1.56,38.11,7.24,54.29,18.92C175.78,46.66,184.6,57,189,70.68a48.7,48.7,0,0,1-2.21,36.07c-6.24,13.76-16.65,23.79-29.58,31.11-25.06,14.19-51.9,17.69-80,12.11a5.16,5.16,0,0,0-4.35.94Q51,166.15,29,181.27c-.77.53-1.55,1-2.32,1.56ZM149.28,74h-19v19h19ZM71.59,93V73.9H52.81V93Zm38.77,0v-19H91.57v19Z"/></svg>