<svg id="Camada_1" data-name="Camada 1" xmlns="http://www.w3.org/2000/svg" xmlns:xlink="http://www.w3.org/1999/xlink" viewBox="0 0 329 274"><defs><style>.cls-1{fill:url(#linear-gradient);}.cls-2{fill:url(#linear-gradient-2);}</style><linearGradient id="linear-gradient" x1="34.48" y1="143.79" x2="269.69" y2="143.79" gradientUnits="userSpaceOnUse"><stop offset="0" stop-color="#94c732"/><stop offset="1" stop-color="#34631c"/></linearGradient><linearGradient id="linear-gradient-2" x1="101.98" y1="105.04" x2="295.27" y2="105.04" xlink:href="#linear-gradient"/></defs><title>Prancheta 1 cópia 4</title><path class="cls-1" d="M34.48,136.68c.65-4.59,1.13-9.22,2-13.78C41.68,94.59,55.51,71.22,77.69,53c21-17.23,45.21-26,72.37-26.59.57,0,1.15.07,1.86.12V52.37c-31.76,1-57.16,14.15-75.36,40.17-12.68,18.13-17.71,38.62-15.42,60.57,4.87,46.8,43.18,81.5,90.65,82.15a87.53,87.53,0,0,0,45.67-12.12,91.55,91.55,0,0,0,46-79.1h26.28c-.34,4.87-.4,9.77-1.07,14.59-4.78,34.34-21.34,61.65-49.58,81.7-17.39,12.34-36.87,19.52-58.21,20.64-47,2.48-83.29-16.46-108.89-55.67-10.22-15.66-15.6-33.21-17-51.91a13.09,13.09,0,0,0-.44-1.93Z"/><path class="cls-2" d="M270,16l25.27,20.69L166.49,194.08,102,129.58l22.88-22.83,38.9,39.08Z"/></svg>