<svg id="Camada_1" data-name="Camada 1" xmlns="http://www.w3.org/2000/svg" viewBox="0 0 196 196"><defs><style>.cls-1{fill:#fcd200;}</style></defs><title>chip</title><path class="cls-1" d="M148.22,39.64h6.66a3.11,3.11,0,0,1,2.72,1.61,33.14,33.14,0,0,1,3.9,12.54,3.1,3.1,0,0,1-3.09,3.41H149.5a3.12,3.12,0,0,1-3.06-2.67A18.53,18.53,0,0,0,131,39a3.12,3.12,0,0,1-2.7-3.07V27.08A3.1,3.1,0,0,1,131.69,24a33.16,33.16,0,0,1,14.15,4.84A3.09,3.09,0,0,1,147.23,32l-1,5.15A2,2,0,0,0,148.22,39.64ZM162.89,28l-1,5.15a3.09,3.09,0,0,0,1.38,3.21,33.16,33.16,0,0,0,14.15,4.84,3.1,3.1,0,0,0,3.41-3.09V29.25a3.12,3.12,0,0,0-2.7-3.07,18.53,18.53,0,0,1-15.45-15.52A3.12,3.12,0,0,0,159.63,8h-8.92a3.1,3.1,0,0,0-3.09,3.41A33.14,33.14,0,0,0,151.52,24a3.11,3.11,0,0,0,2.72,1.61h6.66A2,2,0,0,1,162.89,28Z"/><path class="cls-1" d="M78.33,168.17V144.63H60.49c0,.23,0,.46,0,.68q0,9.36,0,18.72a4,4,0,0,0,4,4.13,1.91,1.91,0,1,1-.07,3.82,7.84,7.84,0,0,1-7.73-8.08q0-10.7,0-21.4,0-13.64,0-27.28,0-10.16,0-20.33A7.68,7.68,0,0,1,60.41,88a7.42,7.42,0,0,1,4-1.13q26.5,0,53,0a7.8,7.8,0,0,1,7.78,7.79q0,33.2,0,66.4a26.37,26.37,0,0,1-.21,4.69,7.63,7.63,0,0,1-7.56,6.21q-22.35,0-44.71,0a1.94,1.94,0,0,1-2-1.48,1.86,1.86,0,0,1,1.07-2.16,2.19,2.19,0,0,1,.86-.17c1.69,0,3.38,0,5.07,0Zm22.6,0V90.75H82.21v77.38ZM78.33,90.76a2.28,2.28,0,0,0-.31,0c-4.55,0-9.1,0-13.65,0a3.9,3.9,0,0,0-3.91,4.09q0,9.42,0,18.83c0,.19,0,.38,0,.58H78.33Zm0,27.37H60.45v22.62H78.32Zm43.05,26.46h-.86c-5,0-10,0-15,0-.62,0-.75.18-.74.77q0,11.12,0,22.23c0,.17,0,.35,0,.55.21,0,.38,0,.55,0H117a4,4,0,0,0,4.34-4.36q0-9.21,0-18.42Zm-16.6-53.88v23.53h16.6c0-.22,0-.39,0-.57q0-9.35,0-18.71a4,4,0,0,0-4.27-4.25H104.78Zm16.56,27.42H104.81v22.62h16.53Z"/><path class="cls-1" d="M39.25,112.45q0-30.07,0-60.15A14.2,14.2,0,0,1,50.82,38.05a17.61,17.61,0,0,1,3.08-.27c1.53,0,3.06,0,4.59,0a1.92,1.92,0,0,1,1.87,1.32,1.81,1.81,0,0,1-.69,2.11,2.94,2.94,0,0,1-1.4.38c-1.91.06-3.82,0-5.72.09a10.41,10.41,0,0,0-9.36,8.83,18.8,18.8,0,0,0-.12,2.26q0,7.54,0,15.08,0,39.93,0,79.86,0,12.6,0,25.2a10.45,10.45,0,0,0,10.51,10.47H98.35c1.52,0,3,.08,4.55.07,8.74,0,17.48,0,26.22-.11a10.35,10.35,0,0,0,10.05-10.18c0-7.19,0-14.39,0-21.58q0-28.31,0-56.62,0-11.68,0-23.37c0-1.61,0-3.21,0-4.82a2.46,2.46,0,0,0-.78-1.86q-11.27-11.26-22.53-22.53A2.55,2.55,0,0,0,114,41.6H69c-1.57,0-2.52-1.12-2.09-2.49a1.76,1.76,0,0,1,1.38-1.26,3.85,3.85,0,0,1,.83-.08h44.95a6.23,6.23,0,0,1,4.57,2q9.73,9.77,19.5,19.51c.87.87,1.7,1.79,2.62,2.6A6.65,6.65,0,0,1,143,67.2c0,12.92,0,25.83,0,38.75s0,25.79,0,38.69c0,9.42.06,18.83,0,28.25-.06,6.05-3,10.4-8.41,13a12.49,12.49,0,0,1-5.54,1.24H53.76a14,14,0,0,1-10.68-4.56A13.66,13.66,0,0,1,39.25,173Q39.24,142.73,39.25,112.45Z"/><path class="cls-1" d="M123.62,63.2c0,2.54,0,5.09,0,7.63a3.1,3.1,0,0,1-3.42,3.39c-2.38,0-4.77-.05-7.15,0a3.25,3.25,0,0,1-3.48-3.46c.08-5.14,0-10.29,0-15.44a3,3,0,0,1,3.17-3.19h7.57a3,3,0,0,1,3.29,3.31q0,3.87,0,7.75ZM113.45,56V70.35h6.3V56Z"/><path class="cls-1" d="M64.67,63.22c0,2.62,0,5.24,0,7.86a3,3,0,0,1-3.06,3.12q-3.93,0-7.86,0A3,3,0,0,1,50.64,71c0-1.84.07-3.69.06-5.53,0-3.37-.06-6.74-.07-10.11A3,3,0,0,1,53,52.22a3.59,3.59,0,0,1,.83-.08c2.58,0,5.16,0,7.74,0a3,3,0,0,1,3.13,3.16c0,2.64,0,5.28,0,7.92ZM54.48,56V70.34h6.37V56Z"/><path class="cls-1" d="M70.63,63.15c0-2.58,0-5.17,0-7.75a3,3,0,0,1,3.22-3.26q3.78,0,7.57,0a3,3,0,0,1,3.26,3.29q0,7.72,0,15.44a3.09,3.09,0,0,1-3.34,3.34H73.94a3.08,3.08,0,0,1-3.31-3.31Q70.63,67,70.63,63.15ZM74.49,56V70.34h6.32V56Z"/><path class="cls-1" d="M90.3,63.13q0-3.87,0-7.75a3,3,0,0,1,3.23-3.24h7.63a3,3,0,0,1,3.18,3.18q0,7.87,0,15.74a3.05,3.05,0,0,1-3.12,3.14q-3.9,0-7.81,0a3,3,0,0,1-3.11-3.08c0-2.66,0-5.33,0-8ZM94.15,56V70.35h6.33V56Z"/></svg>