<svg id="Camada_1" data-name="Camada 1" xmlns="http://www.w3.org/2000/svg" viewBox="0 0 260 239"><defs><style>.cls-1{fill:#faad17;}</style></defs><title>CERTO</title><path class="cls-1" d="M54.34,110.65a10.15,10.15,0,0,1,3.14-7.93C62.63,97.52,67.75,92.29,73,87.21c4.74-4.57,11.17-4.34,16,.48q17.14,17.06,34.22,34.19c2.37,2.37,2.37,2.38,4.69.06q43.55-43.54,87.1-87.1c2.08-2.08,4.21-4,7.27-4.52,3.3-.58,6.43-.05,8.81,2.22,5.91,5.65,11.75,11.38,17.33,17.36,3.55,3.8,3.3,9.61,0,13.65-.6.73-1.26,1.4-1.93,2.07L134.34,177.74c-5.62,5.62-11.76,5.66-17.36.07Q87.6,148.47,58.24,119.1C55.87,116.73,54.18,114.08,54.34,110.65Z"/><path class="cls-1" d="M116.56,217.91H58.51A39.89,39.89,0,0,1,19,185.65a36.79,36.79,0,0,1-.76-7.25q-.07-59,0-118c0-19.4,15.39-36.71,34.58-39A50,50,0,0,1,58.62,21q58.29,0,116.57,0A38.79,38.79,0,0,1,190.13,24c4.18,1.72,4.85,4.83,1.71,8.05-1.86,1.92-3.79,3.78-5.66,5.69a5.18,5.18,0,0,1-5.33,1.56,29.31,29.31,0,0,0-6.53-.69q-57.58-.06-115.16,0c-13.66,0-23.44,9.62-23.46,23.26q-.09,57.7,0,115.39c0,13.5,9.83,23.17,23.31,23.18q57.7,0,115.39,0c13.45,0,23.11-9.77,23.13-23.27,0-10.93,0-21.87,0-32.8a8.17,8.17,0,0,1,2.71-6.48c2.48-2.3,4.82-4.75,7.21-7.14,1.46-1.45,3.11-2.12,5.12-1.26s2.58,2.51,2.57,4.59c-.05,15.57.24,31.16-.17,46.72-.32,12.15-6.38,21.65-15.77,29.08a37.62,37.62,0,0,1-24.11,8.1Q145.82,217.88,116.56,217.91Z"/></svg>