<svg id="Camada_1" data-name="Camada 1" xmlns="http://www.w3.org/2000/svg" viewBox="0 0 196 196"><title>facebook</title><path d="M108.8,184.29H17.93V14.21H188V184.29H135.43c0-.24,0-.49,0-.73q0-32.07,0-64.14c0-.16,0-.32,0-.49s0-.25.06-.43h22c.38-2.9.75-5.75,1.11-8.61s.76-5.71,1.11-8.57.75-5.69,1.09-8.62H135.47c0-.22,0-.37,0-.53q0-8.16,0-16.33a19,19,0,0,1,.61-5.09,8.13,8.13,0,0,1,4.68-5.56,13.59,13.59,0,0,1,3.11-.92,25,25,0,0,1,4.5-.33H161c.24,0,.47,0,.73,0v-23a2.16,2.16,0,0,0-.35-.1c-.66-.07-1.32-.15-2-.21-1.44-.11-2.87-.23-4.31-.32q-2.57-.16-5.14-.27c-1.44-.06-2.88-.08-4.32-.13a58.35,58.35,0,0,0-9.31.3,35.32,35.32,0,0,0-9.13,2.37,27.72,27.72,0,0,0-13.21,11.09A34,34,0,0,0,109.26,67a51.22,51.22,0,0,0-.49,7.46q0,8.8,0,17.59v.68H87.35c-.78,0-.73,0-.73.74q0,12.15,0,24.3c0,.13,0,.26,0,.39,0,.32.05.35.38.37h21.14l.64,0v.78q0,32.1,0,64.19C108.78,183.77,108.79,184,108.8,184.29Z"/></svg>