<svg id="Camada_1" data-name="Camada 1" xmlns="http://www.w3.org/2000/svg" viewBox="0 0 72 67"><defs><style>.cls-1{fill:#ff8400;}</style></defs><title>GRAFICO</title><path class="cls-1" d="M45.93,42.14c3.29,4.27,8,4.36,11.45,0,2,.88,4,1.72,6,2.67,3.42,1.63,5.12,6.41,4.84,9.43a1,1,0,0,1-.6.66,52.57,52.57,0,0,1-5.76,1.42,62.34,62.34,0,0,1-12.5.7c-4.56-.23-9.13-.44-13.51-2a1.17,1.17,0,0,1-.95-1.42c.41-4.31,2.06-7.77,6.34-9.49C42.82,43.47,44.35,42.8,45.93,42.14Z"/><path class="cls-1" d="M58.94,31.93c.11.28.27.75.47,1.21a4.43,4.43,0,0,1,.08,2.92,3.46,3.46,0,0,1-.31.88c-.91,1.62-1.73,3.31-2.79,4.83-2.79,4-7.91,3.46-10.16-1-.46-.93-1-1.82-1.55-2.7a6.16,6.16,0,0,1-1-4.13c0-.17,0-.39.09-.49.95-1,.53-2.24.6-3.38a6.41,6.41,0,0,1,2.81-5.27,9,9,0,0,1,9.07,0,2,2,0,0,1,.74.69C57.88,27.49,59.33,29.29,58.94,31.93Z"/><path class="cls-1" d="M38.74,43.69a4.58,4.58,0,0,1-3.55,1.6c-8.43-.09-16.86,0-25.29,0-2.7,0-4-1.31-4-4q0-12.34,0-24.69a3.47,3.47,0,0,1,1.74-3.21A2.85,2.85,0,0,1,9,13q22.38,0,44.76,0a3.08,3.08,0,0,1,3,2.93c.1,2.49,0,5,0,7.58a7.63,7.63,0,0,1-1.35-.65,1.12,1.12,0,0,1-.28-.8c0-1.82,0-3.64,0-5.47,0-1.47-.61-2.05-2.08-2.05H9.68c-1.43,0-2.06.64-2.06,2.09q0,12.43,0,24.86c0,1.63.64,2.27,2.27,2.27H38.74Z"/><path class="cls-1" d="M24,49.85V46H36.24a14.54,14.54,0,0,0-2.66,6.56c-.25,0-.47.05-.68.05h-12a1.38,1.38,0,1,1,0-2.72C21.86,49.83,22.86,49.85,24,49.85Z"/><path class="cls-1" d="M42.63,22.33c0,.37,0,.62,0,.87,0,3.61,0,7.23,0,10.84,0,.77-.22,1-1,.94a12.34,12.34,0,0,0-1.79,0c-.51,0-.71-.16-.71-.69q0-5.63,0-11.27c0-.5.14-.72.68-.7C40.77,22.36,41.65,22.33,42.63,22.33Z"/><path class="cls-1" d="M14.94,29.64l-1.43.45a3.58,3.58,0,0,0,3.75,2.37A6.49,6.49,0,0,0,19,32c.6-.23,1.15-.3,1.44.37s-.08,1.06-.66,1.36A5.94,5.94,0,0,1,12,31.51c-.41-.69-.75-1-1.5-.64a1.81,1.81,0,0,1-.55,0l1.2-4.66Z"/><path class="cls-1" d="M22.62,26.21l1.58-.34L23,30.62l-3.73-3.4,1.38-.49a3.81,3.81,0,0,0-4.54-2.25,4.6,4.6,0,0,0-.95.37.93.93,0,0,1-1.44-.35c-.36-.67.07-1.06.62-1.34A5.8,5.8,0,0,1,19.43,23,6.09,6.09,0,0,1,22.62,26.21Z"/><path class="cls-1" d="M34.62,30.71c0-1.19,0-2.39,0-3.58,0-.56.2-.73.74-.75C38,26.28,38,26.27,38,28.93c0,1.73,0,3.47,0,5.2,0,.63-.2.88-.83.83a11.55,11.55,0,0,0-1.79,0c-.67.06-.82-.24-.8-.85C34.64,33,34.62,31.84,34.62,30.71Z"/><path class="cls-1" d="M33.41,32.07c0,.77,0,1.54,0,2.29a.85.85,0,0,1-.57.58,12.18,12.18,0,0,1-2.29,0,.85.85,0,0,1-.59-.57q-.08-2.29,0-4.59a.85.85,0,0,1,.58-.58,12.17,12.17,0,0,1,2.29,0,.85.85,0,0,1,.58.58C33.46,30.53,33.41,31.3,33.41,32.07Z"/><path class="cls-1" d="M28.77,32.75c0,2.2,0,2.2-2.17,2.2-1.36,0-1.36,0-1.36-1.33,0-.77,0-1.53,0-2.3,0-.54.19-.8.75-.76.2,0,.4,0,.59,0C28.77,30.57,28.77,30.57,28.77,32.75Z"/></svg>