<svg id="Camada_1" data-name="Camada 1" xmlns="http://www.w3.org/2000/svg" viewBox="0 0 196 196"><title>instagran</title><path d="M134.29,181H61.69c-1-.1-2.06-.19-3.09-.29a46,46,0,0,1-13.34-3.49A46.59,46.59,0,0,1,28.8,165.49c-8-8.85-12.27-19.24-12.33-31.15-.13-23.18,0-46.35,0-69.53a44.12,44.12,0,0,1,1.49-11.38,46.92,46.92,0,0,1,18.92-27.1,45,45,0,0,1,26.1-8.42c23-.09,46.08,0,69.12,0a47.34,47.34,0,0,1,11.15,1.29,45.76,45.76,0,0,1,19.35,9.79c11,9.42,16.84,21.38,16.94,35.86.16,23.06.06,46.12,0,69.17a45.33,45.33,0,0,1-3.62,17.8A47.15,47.15,0,0,1,155.28,175a46,46,0,0,1-18,5.75C136.32,180.82,135.3,180.9,134.29,181ZM29,99.4q0,17,0,34a36.55,36.55,0,0,0,.8,7.69,34.71,34.71,0,0,0,33.85,27.36q34.13,0,68.26,0a39.75,39.75,0,0,0,4.73-.28,33.29,33.29,0,0,0,17.83-7.7,34,34,0,0,0,12.57-27c.06-22.7,0-45.4,0-68.11a36.46,36.46,0,0,0-.22-4.12,33.66,33.66,0,0,0-7.61-18.09c-6.86-8.24-15.72-12.65-26.42-12.72-22.89-.15-45.78,0-68.67-.05A34.75,34.75,0,0,0,33.54,47.92,34,34,0,0,0,29,65.34Q29,82.37,29,99.4Z"/><path d="M54.06,99.42a43.93,43.93,0,1,1,43.81,43.93A44,44,0,0,1,54.06,99.42Zm75.31,0A31.38,31.38,0,1,0,98,130.81,31.3,31.3,0,0,0,129.37,99.42Z"/><path d="M146.49,41.13a9.42,9.42,0,1,1-9.44,9.37A9.43,9.43,0,0,1,146.49,41.13Z"/></svg>