<svg id="Camada_1" data-name="Camada 1" xmlns="http://www.w3.org/2000/svg" viewBox="0 0 266 266"><defs><style>.cls-1{fill:#ffcb00;}</style></defs><title>IOS</title><path class="cls-1" d="M145.82,263H119.27c-.78-1-1.91-.79-2.95-.93C50.41,253,3,198.73,3,132.32A129.82,129.82,0,0,1,98.38,7.49c7.19-2,14.61-2.63,21.8-4.49h25.63c.65.84,1.62.71,2.51.82A129.49,129.49,0,0,1,258.64,99.3c1.84,6.86,2.93,13.92,4.36,20.88v26.55c-1.06.92-.8,2.23-1,3.4a130,130,0,0,1-96.2,108.79C159.26,260.66,152.49,261.66,145.82,263ZM55.12,129c.52,25.07,11.47,49.71,31,70.75,9.72,10.5,18.11,12.72,31.2,7.15s25.61-6.3,38.71.2c10.18,5.06,20,2.88,28.23-4.91,11.39-10.73,19.53-23.68,25.63-38,1-2.25.51-3.52-1.55-4.82a62.16,62.16,0,0,1-14.12-12.23c-10.46-12.25-12-27.06-4.45-41.23a50.82,50.82,0,0,1,12.41-15.1c2.91-2.42,2.68-3.87.27-6.4a46.68,46.68,0,0,0-52.29-10.42c-9.93,4.2-18.75,4-28.93.13-18.45-7-36.19-4.44-50.87,9.71C58.72,95,55.14,109.46,55.12,129Zm113.8-93.86c.48-6.37.19-6.6-6.05-4.92-19,5.12-30.44,19.57-31.5,39.44-.16,3,.82,3.53,3.65,3.2C154.87,70.5,167.28,56.78,168.91,35.11Z"/></svg>