<svg id="Camada_1" data-name="Camada 1" xmlns="http://www.w3.org/2000/svg" viewBox="0 0 329 274"><defs><style>.cls-1{fill:#fff;}</style></defs><title>Prancheta 1 cópia</title><path class="cls-1" d="M201.08,199.66l5.47-5.23L192.69,179.6c-19.89,13.07-41.56,18.25-65,15s-42.82-14.38-58.08-32.17c-1.88,1.72-3.77,3.42-5.59,5.2-.19.19,0,.92.17,1.32a13.54,13.54,0,0,1-9.55,19,13.59,13.59,0,0,1-13.19-22,13.5,13.5,0,0,1,15.81-3.79A1.3,1.3,0,0,0,59,161.8c1.85-2,3.74-3.89,5.58-5.79-16.41-25.32-21-52.37-12-81.21C60.07,50.91,75.24,33,97.31,21.32c23.82-12.59,48.87-14.37,74.25-5.44s43.29,26.45,54.36,51L234,58.28a15.19,15.19,0,0,1-1.32-7.17,13.58,13.58,0,0,1,12.67-12.39A14.93,14.93,0,0,1,252.19,40a1.67,1.67,0,0,0,1.48-.15q11-10.67,22-21.42a6.67,6.67,0,0,0,.43-.54H264.79V10.37H289.3v24.5h-7.46V23.21c-.57.5-.9.76-1.19,1.05q-10.74,10.51-21.48,21a1.49,1.49,0,0,0-.37,2A13.55,13.55,0,0,1,256,61.67c-4.29,4.17-10,5.32-15.19,3a1.5,1.5,0,0,0-2,.39q-4.56,4.53-9.21,9a1.78,1.78,0,0,0-.54,2.12,92.69,92.69,0,0,1-7.83,72.2q-1,1.77-2.05,3.5c-.68,1.12-1.4,2.21-2.17,3.41l13.54,14.55,5.52-5.55L303,230.82l-35.79,35.79ZM225.58,103a84.94,84.94,0,1,0-84.95,84.95C187.54,187.94,225.72,149.76,225.58,103Zm11.26,72.17L212,199.95l55.28,55.86L292.12,231ZM212.67,161.7,199,175.22l12.64,13.48,13.56-13.56ZM51.79,180.61a6,6,0,1,0-5.88-6A6,6,0,0,0,51.79,180.61ZM246.25,46.29a6,6,0,1,0,0,11.93,6,6,0,1,0,0-11.93Z"/><path class="cls-1" d="M261,88.66V80.52h7.41v8.14Z"/><path class="cls-1" d="M286.33,123.8v-8.09h7.42v8.09Z"/><path class="cls-1" d="M252.29,155v-8.12h7.41V155Z"/><path class="cls-1" d="M79.77,199.57h7.45v8.14H79.77Z"/><path class="cls-1" d="M150.13,223.81h-7.38v-8.16h7.38Z"/><path class="cls-1" d="M79.78,246.23h7.44v8.13H79.78Z"/><path class="cls-1" d="M207.75,103a67.1,67.1,0,1,1-67-67.12A67.1,67.1,0,0,1,207.75,103ZM88.28,131.22a1,1,0,0,0,.28-.13q7.67-7.92,15.3-15.87a1.46,1.46,0,0,0,.18-1.15c-.43-1.88-1.23-3.72-1.34-5.61a13.31,13.31,0,0,1,13.82-14.07c7.59.27,12.69,5.55,13.35,13.06a1.52,1.52,0,0,0,.86,1.06c9.59,3,19.2,6,28.79,9.06a1.2,1.2,0,0,0,1.57-.51,13.41,13.41,0,0,1,16.4-4,1.29,1.29,0,0,0,1.73-.28c6.43-6.32,12.9-12.61,19.32-18.95a2.26,2.26,0,0,0,.55-1.74,58.78,58.78,0,0,0-19.82-34.32A59.4,59.4,0,0,0,87.22,76.84a58.12,58.12,0,0,0-5.61,19.23A60.07,60.07,0,0,0,82,112.78,56.8,56.8,0,0,0,88.28,131.22Zm4.28,6.72a59.13,59.13,0,0,0,68.32,21c26.08-9.41,39.66-34.14,39.09-55.85l-16.06,15.7c.46,1.59,1,3,1.25,4.43a13.55,13.55,0,1,1-26.89,3.16,1.56,1.56,0,0,0-1.29-1.67q-14.16-4.39-28.28-8.89a1.47,1.47,0,0,0-1.91.57,13.51,13.51,0,0,1-16.09,4,1.51,1.51,0,0,0-1.35.2C103.75,126.32,98.19,132.11,92.56,137.93Zm79.27-6.59a6,6,0,0,0,6-6,6,6,0,0,0-6.1-5.92,6,6,0,0,0,.15,12Zm-61.58-23.4a6,6,0,0,0,5.93,6,6,6,0,1,0,0-12A6,6,0,0,0,110.25,107.94Z"/><path class="cls-1" d="M231.18,202.61l-5.43-5.4,10.68-10.58,26.15,26.1-5.21,5.09-20.91-20.89Z"/><path class="cls-1" d="M269.6,230.21l-5.34-5.31,5.14-5.15,5.33,5.34Z"/><path class="cls-1" d="M111.77,69.7l-5-5.73C122,51.7,138.85,48.49,157.65,54.21l-1.25,3.64-1.24,3.59C139.26,56.46,124.88,59.24,111.77,69.7Z"/><path class="cls-1" d="M167.56,58.84l6.76,4.89-5,5.81-5.74-4.19Z"/><path class="cls-1" d="M149.86,146.57l1.45,6.86a51.69,51.69,0,0,1-29.91-2.5l2.65-6.64c4.37.87,8.56,2.06,12.81,2.44S145.38,146.66,149.86,146.57Z"/></svg>