<svg id="Camada_1" data-name="Camada 1" xmlns="http://www.w3.org/2000/svg" xmlns:xlink="http://www.w3.org/1999/xlink" viewBox="0 0 329 274"><defs><style>.cls-1{fill:url(#linear-gradient);}.cls-2{fill:url(#linear-gradient-2);}.cls-3{fill:url(#linear-gradient-3);}.cls-4{fill:url(#linear-gradient-4);}.cls-5{fill:url(#linear-gradient-5);}</style><linearGradient id="linear-gradient" x1="32.04" y1="139.56" x2="174.22" y2="139.56" gradientUnits="userSpaceOnUse"><stop offset="0" stop-color="#94c732"/><stop offset="1" stop-color="#34631c"/></linearGradient><linearGradient id="linear-gradient-2" x1="158.81" y1="140.56" x2="296" y2="140.56" xlink:href="#linear-gradient"/><linearGradient id="linear-gradient-3" x1="108.54" y1="56.48" x2="231.58" y2="56.48" xlink:href="#linear-gradient"/><linearGradient id="linear-gradient-4" x1="108.39" y1="223.64" x2="231.4" y2="223.64" xlink:href="#linear-gradient"/><linearGradient id="linear-gradient-5" x1="190.59" y1="135.6" x2="264.11" y2="135.6" xlink:href="#linear-gradient"/></defs><title>Prancheta 1 cópia 5</title><path class="cls-1" d="M173.52,195.56c-3.65,1.2-7.3,3.41-11,3.44q-56.8.39-113.61.12c-9.6,0-16.75-7.42-16.79-17q-.18-42.3-.06-84.61C32.13,87.13,39.4,80,49.89,80c37.07-.08,74.13,0,111.2,0a16.37,16.37,0,0,1,13.13,5.75c-15.93,21.5-35.62,39.14-54.54,57.46-8.1,7.85-22.25,6.29-31-2.39q-21-20.7-41.8-41.58c-2-2-3.86-4.28-6.81-6.11-1.32,31.58-1.65,62.88-.76,94.17l1.68.36,41.44-42.91,6,4.83-42,41.08,1,1.49H163.42l-42.06-41,6.56-5.81,46.16,48.21ZM45,87.23c1.12,1.4,1.55,2.05,2.09,2.6C62.18,105,77.22,120.2,92.49,135.2c8.8,8.65,17.33,8.66,26.17,0,11.29-11,22.26-22.34,33.43-33.48,4.52-4.51,9.19-8.87,13.79-13.29l-.63-1.24Z"/><path class="cls-2" d="M227.09,209c-37.46-.26-68.61-30.94-68.27-67.25.37-39.59,30.27-69.86,68.77-69.62a68.43,68.43,0,1,1-.5,136.87Zm58.53-68.28a58.48,58.48,0,0,0-58.23-58.58c-32.11,0-58.28,26.13-58.48,58.49-.19,31.72,26.17,58.17,58.11,58.29A58.37,58.37,0,0,0,285.62,140.71Z"/><path class="cls-3" d="M231.26,64.7c-3.4-1.41-7.86,2.63-9.89-3.06-.16-.46-1.73-.59-2.65-.59q-49.25,0-98.5,0a12.23,12.23,0,0,0-2.28.53V72.93h-9.12c0-5.79-.74-11.79.17-17.52,1.36-8.59,9.41-15.19,18.16-15.24q42.73-.26,85.47,0C223.86,40.26,233.49,50.79,231.26,64.7Z"/><path class="cls-4" d="M117.78,220h5.63q46.64,0,93.29,0c2.11,0,4.41,1,5.88-2.49.57-1.34,5.44-.87,8.28-1.22,2.85,12.87-5.69,24.51-18.11,24.63q-42,.41-84.1.13c-12.49-.09-20.2-8.51-20.24-21,0-4.48,0-9,0-13.74h9.38ZM170,237v0h6.25c4.09,0,5-2.42,5-6s-.11-6.67-4.71-6.77a103.33,103.33,0,0,0-13,.13c-1.63.17-4.23,2-4.4,3.26-1,7.67-.08,9.94,7,9.36C167.41,236.94,168.7,237,170,237Z"/><path class="cls-5" d="M252.48,132.84c9.4,1.16,11.71,3.93,11.62,13-.07,7.25.06,14.49,0,21.74Q264,177.7,254,177.71q-26.58.06-53.16,0c-7,0-10.17-3.32-10.21-10.47,0-6.93,0-13.85,0-20.78,0-10.41,1.31-12,11.65-13.8,0-4.85-.12-9.79,0-14.73a24.89,24.89,0,0,1,19.65-23.82c10.75-2.51,22.35,2.35,27.25,12.54,2.2,4.58,2.52,10.15,3.22,15.34C252.86,125.44,252.48,129,252.48,132.84Zm-43.45.06h35.79c0-6,.46-11.6-.11-17.13-.81-7.9-7.7-14-15.61-14.67-8.51-.73-16.72,4.12-18.48,12.2C209.25,119.57,209.51,126.21,209,132.89Zm12.07,16.42c1.08,5.9,1.8,10.73,3,15.46.25,1,2.1,2.2,3.23,2.22a4.07,4.07,0,0,0,3.18-2.21,95.77,95.77,0,0,0,3-14.33,6,6,0,0,0-6.4-6.76C223,144,221.1,146.42,221.1,149.32Z"/></svg>