<svg id="Camada_1" data-name="Camada 1" xmlns="http://www.w3.org/2000/svg" viewBox="0 0 194 138">
    <defs>
        <style>.cls-1{fill:#000;}</style>
    </defs>
    <title>dinheiro</title>
    <path class="cls-1"
          d="M63,120.28c.72,2.24.21,3.35-2.09,3.89a55.08,55.08,0,0,1-28.16-.29C21,120.52,14.26,110.19,15.18,97.56c.53-7.29,3-14,6.29-20.36s7-12.49,10.28-18.84c2.82-5.42,5.33-11,8.15-16.88H55.07c4.19,14,13.59,25.5,19.34,38.82,1.44,3.33,2.62,6.77,3.7,9.6-4,4.55-7.56,8.65-11.13,12.76-2.58,3-5.12,6-7.73,9-1.5,1.71-2.83,3.42-1.79,5.87S60.56,120.36,63,120.28Zm-12.8-13.62a15.47,15.47,0,0,1,0-3.06,3.16,3.16,0,0,1,1.15-2c3.29-1.8,5.23-4.42,5.21-8.23S54.48,87,51.2,85.28C49.65,84.47,48,83.84,46.5,83c-.52-.3-.77-1.09-1.14-1.66.58-.36,1.19-1.07,1.73-1a24.48,24.48,0,0,1,4.41.94,14,14,0,0,1,2.22,1.09l2.48-6.53-5.83-2.62V69.55H44A7.32,7.32,0,0,0,43.87,71c.32,2-.38,3.1-2.23,4.08A7.46,7.46,0,0,0,37.75,82c0,3.54,1.92,5.87,4.86,7.47,1.66.9,3.47,1.56,5.07,2.54.61.38,1.33,1.55,1.15,2a2.66,2.66,0,0,1-2,1.5,29.17,29.17,0,0,1-5.4-1.33A11.22,11.22,0,0,1,39.34,93c-.54,1.45-1,2.61-1.39,3.77-1.13,3.09-1.09,3.17,1.94,4.53a5.65,5.65,0,0,0,1.42.52c1.65.25,2.34,1.08,2.24,2.82,0,.64.6,1.84,1,1.89A46.67,46.67,0,0,0,50.18,106.66Z"/>
    <path class="cls-1" d="M184.61,74.13h-5.86v51.51H154.6V74.25h-6.06l-.44-.65L166.6,52,185,73.43Z"/>
    <path class="cls-1"
          d="M141,97.44c-1.3,0-2.62.09-3.91,0-1.67-.14-2.07.52-2.05,2.14.09,8,0,16.06,0,24.09,0,.58,0,1.16,0,1.92H110.88V97.46H105l-.47-.65,18.45-21.48,18.45,21.45Z"/>
    <path class="cls-1" d="M79.28,94.26l18.41,21.42-.33.57H91.51v9.31H67.24V116.4h-6l-.39-.64Z"/>
    <path class="cls-1"
          d="M47,33.25c-2.77,0-5.55,0-8.32,0a2.58,2.58,0,0,1-1.83-.77C34.36,29,31.93,25.53,29.7,21.94c-1.15-1.85-2.21-4.09-.73-6.15s3.72-1.19,5.69-.86c2.66.44,5.29,1,7.94,1.56a7.36,7.36,0,0,0,5.74-1.34,63.45,63.45,0,0,1,10.6-6c4.82-2,7.62.42,6.8,5.6a22.41,22.41,0,0,1-2.53,6.68c-1.94,3.67-4.11,7.22-6.29,10.76a2.62,2.62,0,0,1-1.86,1C52.35,33.32,49.65,33.25,47,33.25Z"/>
    <path class="cls-1" d="M39.75,39.31l-.6-2.86H55l-.27,2.86Z"/>
</svg>