<svg id="Camada_1" data-name="Camada 1" xmlns="http://www.w3.org/2000/svg" viewBox="0 0 260 239"><defs><style>.cls-1{fill:#faad17;}</style></defs><title>DINHEIRO</title><path class="cls-1" d="M114.54,3.68q19.77,0,39.55,0c5,0,5.72.92,4.45,5.77-4.67,17.83-9.29,35.68-14.15,53.46-.77,2.83,0,3.72,2.45,4.73a87,87,0,0,1,40,32.47c1.18,1.73,1.73,3.4-.05,4.76-2,1.49-3.63.53-4.87-1.33a81.46,81.46,0,0,0-42.31-32.35c-2.71-.93-2.93-2.71-2.25-5.23,4.73-17.57,9.29-35.19,14.11-52.74.93-3.38.25-4-3.13-3.95-9.17.23-18.35.18-27.53,0-2.75,0-3.52.82-3.45,3.5.18,6.59,0,13.18.07,19.77,0,2.22-.22,4.49-3,4.52s-3.06-2.2-3-4.44c0-6.59-.09-13.19.06-19.77.06-2.57-.5-3.63-3.36-3.58q-14.34.26-28.69,0c-2.83-.05-2.81.91-2.22,3.1,4.69,17.45,9.28,34.93,14,52.38,1.29,4.82,1.14,5.21-3.66,7.06-31,12-49.52,34.37-53.42,67.25C30.1,172.68,46.57,204,77,219.81c38.22,19.89,84,7.09,106.67-29.56,1.25-2,2.21-5.62,5.57-3.69s.86,4.54-.45,6.57c-19.49,30.22-47.39,44.33-83.08,41.57-39.19-3-72-35.23-77.31-74.62a86.38,86.38,0,0,1,53.85-92.5c2.78-1.11,2.9-2.28,2.2-4.85C79.64,45.07,75,27.35,70.39,9.64c-1.33-5.07-.65-6,4.61-6Q94.77,3.66,114.54,3.68Z"/><path class="cls-1" d="M135.38,138c-6.06,0-6.27-.2-7.06-6.47-1.19-9.5-8.12-14.16-17-11.56-4.69,1.37-7,4.59-7.64,9.19-.6,4.31,1.4,7.8,5.57,10.16s9,3.89,13.57,5.63c8.37,3.16,16.51,7.14,19.33,16.44,3.79,12.49.53,26-14.47,31.48-3.44,1.26-5,3-4.83,6.74.17,4.24-1.92,5.75-6.86,5.73-5.11,0-6.91-1.34-6.82-5.7.08-3.73-1.47-5.52-5-6.62-11.61-3.64-18.3-13.57-17.72-25.56.12-2.48,1.2-4.07,3.54-4.3,7.53-.74,11-1,11.39,7.42a9.7,9.7,0,0,0,5.88,8.52,18.66,18.66,0,0,0,16.44,0c3.63-1.67,5.26-5,5.29-8.84a9.91,9.91,0,0,0-5.53-9.11c-5.33-3-11.19-4.65-16.78-7S96.28,148.83,93,143.79c-7.41-11.31-4.52-30.14,10.81-36,4-1.51,5.75-3.42,5.49-7.83s1.53-5.52,7.64-5.45c4.76.05,6.21,1.13,6,5.46-.23,4.14,1.35,6.2,5.21,7.77,9.45,3.84,16.45,16.53,14.89,26.31C142.28,138.62,138.58,138,135.38,138Z"/><path class="cls-1" d="M198.49,111.61a34.07,34.07,0,0,1,0,68.14,34.07,34.07,0,1,1,0-68.14Zm0,6a28.07,28.07,0,1,0,28.18,28A28.1,28.1,0,0,0,198.52,117.6Z"/><path class="cls-1" d="M194.74,151.91c4.89-5.51,9.69-10.89,14.46-16.29,1.35-1.53,2.79-3.09,4.81-1.26s.88,3.42-.52,5c-5.17,5.91-10.34,11.83-15.4,17.83-2.15,2.55-4.14,2.78-6.36.22-2.79-3.21-5.62-6.38-8.38-9.61-1.15-1.34-2-2.92-.34-4.41s3.27-1,4.69.62C190,146.65,192.31,149.2,194.74,151.91Z"/></svg>