<svg id="Camada_1" data-name="Camada 1" xmlns="http://www.w3.org/2000/svg" viewBox="0 0 196 196"><title>mvno</title><path d="M160.59,68.68a9.39,9.39,0,0,1-7,9.2,5,5,0,0,0-3.93,3.41Q136,116.91,122.24,152.49a9.45,9.45,0,0,0-.61,2.16c-1,7.53-1.41,8-8.72,10Q84.47,172.26,56,179.9c-7.11,1.9-10.09.16-11.95-6.77Q29.24,117.77,14.41,62.41c-.48-1.81-1.17-3.62-.86-5.53.55-3.51,2.79-5.52,6.08-6.4q30.82-8.23,61.65-16.39c4.71-1.24,8,.89,9.44,6.08C95,55.75,99.14,71.37,103.34,87c.65,2.42,1.41,4.81,1.95,7.26.5,2.27,1.47,2.19,3.08,1,10.39-7.66,20.78-15.32,31.26-22.86,1.67-1.2,1.51-2.6,1.64-4.22.45-5.61,4.79-9.26,10.48-8.95A9.46,9.46,0,0,1,160.59,68.68ZM107.7,135.61c-.11-.45-.17-.69-.24-.93q-11-41.2-22-82.41c-.48-1.81-1.29-2.06-3-1.6q-27.93,7.57-55.9,15c-1.92.51-2.36,1.35-1.79,3.21,1,3.35,1.82,6.78,2.72,10.16,6.28,23.48,12.61,46.94,18.81,70.44.71,2.71,1.58,3.64,4.57,2.81,17.87-4.94,35.8-9.67,53.69-14.52C105.83,137.44,107.84,137.76,107.7,135.61Zm7.12-18.67c3.26-.2,6.75-.47,10.24-.62,2.63-.11,3.84-.8,2.92-3.87-1.33-4.42-2.14-9-3.21-13.5-1.76-7.43-1.77-7.42-8-2.82-9.47,7-9.39,6.95-6.12,18.2C111.29,116.64,112.34,117.5,114.83,116.94Zm3.74,26.62.95.09q3.88-10.08,7.76-20.16c.45-1.19-.14-1.63-1.26-1.55-3.62.26-7.24.55-10.86.8-1.43.1-2.06.75-1.66,2.2ZM88.08,158.41c0-3.42-3.31-6.57-6.88-6.55a6.72,6.72,0,0,0,.31,13.44C84.93,165.29,88.08,162,88.08,158.41Zm44.55-51.07.79.19c1.36-3.46,2.88-6.87,4-10.4.91-2.76,4-6.35,2.23-8.05-2-1.92-6.14-.11-9.36.09-1.61.1-1.78.83-1.45,2.2C130.17,96.69,131.39,102,132.63,107.34Zm2.66-24.8c7.48.53,8.67-.07,9.51-4.37.11-.58.52-1.3-.29-1.6a1.74,1.74,0,0,0-1.35.3C140.65,78.64,138.19,80.45,135.29,82.55Z"/><path d="M187,71.22c-.37,11.88-9.58,23.68-20.89,26.7-.84.23-2,1.15-2.48-.35-.32-1.11.89-1.29,1.7-1.57,12.16-4.28,18.76-12.79,19.56-25.72.05-.83-.17-1.88,1-2.12C186.82,68,187.07,68.68,187,71.22Z"/><path d="M118.67,61.41c.27-12.33,9.58-24.26,21.22-27.28.86-.22,2.09-1,2.48.39.3,1.11-1,1.25-1.76,1.52q-18.52,6.34-19.84,25.86c-.06.87,0,2.06-1.2,1.89C118.14,63.59,118.8,62.21,118.67,61.41Z"/><path d="M125.43,60.74c-.17-8,8-18.39,15.64-20,.69-.14,1.59-.62,1.85.42s-.66,1.2-1.36,1.47c-8.46,3.3-13.24,9.4-14.15,18.48-.08.76-.31,1.62-1.26,1.46S125.53,61.43,125.43,60.74Z"/><path d="M180.18,71.45c-.25,8.27-6.77,16.94-14.69,19.62-.8.27-1.88,1-2.34,0-.64-1.35.79-1.53,1.65-1.9,7.92-3.36,12.5-9.21,13.39-17.85.09-.92,0-2.34,1.45-2C180.78,69.51,180.07,70.75,180.18,71.45Z"/><path d="M132.91,61.45c-.68,0-.71-.54-.78-1-.58-4,5.87-12.29,10-13,.51-.08,1.12-.2,1.29.33a1.41,1.41,0,0,1-.37,1.29A15.11,15.11,0,0,0,134,60.63,1,1,0,0,1,132.91,61.45Z"/><path d="M173.5,72.4a16.3,16.3,0,0,1-9.18,12c-.66.32-1.46.74-1.92-.21-.34-.71.27-1.16.84-1.44a14.29,14.29,0,0,0,8.25-10.92c.13-.77.44-1.58,1.39-1.38S173.39,71.64,173.5,72.4Z"/><path d="M144.14,54.75c-1.39,1.79-2.74,3.71-4.3,5.44-.49.55-1.1-.06-1.16-.81-.12-1.42,3.29-5.53,4.58-5.58C143.9,53.77,144.11,54.11,144.14,54.75Z"/><path d="M166.43,71.17c.6,3.26-1.07,5.1-3.12,6.73-.4.32-.91.53-1.31.07-.2-.24-.35-.81-.21-1C163.3,75,164.88,73.1,166.43,71.17Z"/><path d="M87.41,133.5c-2.52.59-2.73-.58-3-1.71q-5.88-21.94-11.79-43.86c-.55-2,0-2.81,2-3.44,9-2.78,9-2.85,11.42,6.19,3.29,12.32,6.5,24.66,9.91,36.94.74,2.68.28,3.84-2.55,4.27A46.33,46.33,0,0,0,87.41,133.5Z"/><path d="M81,133.55a1.5,1.5,0,0,1-1.22,2c-2.78.76-5.57,1.45-8.35,2.22-1.51.42-2-.42-2.34-1.65q-4.61-17.23-9.25-34.46c-.48-1.78.23-2.37,1.83-2.91,9.13-3.11,9.14-3.16,11.66,6.15,2.39,8.82,4.74,17.66,7.11,26.48C80.59,132.09,80.77,132.82,81,133.55Z"/><path d="M56.49,109c1.42-.21,1.6.86,1.86,1.83,2.36,8.8,4.69,17.62,7.11,26.4.45,1.64-.1,2.1-1.59,2.6-9.53,3.17-9.53,3.22-12.11-6.43-1.64-6.14-3.09-12.35-5-18.43-.82-2.69-.06-3.59,2.44-4.07S54.08,109.66,56.49,109Z"/></svg>