<svg id="Camada_1" data-name="Camada 1" xmlns="http://www.w3.org/2000/svg" viewBox="0 0 260 239"><defs><style>.cls-1{fill:#faad17;}</style></defs><title>CODIGO</title><path class="cls-1" d="M114.55,196.12q0-10.19,0-20.37l0,0h10.13v-10.2H114.52l0,0,0-10.2h20.4V145.28h10.15v10.07h10.18V135l0,0h30.54q0,5.06,0,10.13h10.1V135.07H185.75V124.84H165.38V104.59H134.84v10.15H114.59V135.1h10.07v10.16H114.54v10.17H104.38V145.24H73.87V135.09h30.46V53.67h10.22l0,0q0,14.69,0,29.39c0,.34,0,.68,0,1.09H124.7V63.87h10.15V84.2h10.22l0,0V94.34H195.9v10.15H206.1v10.23l0,0H196v10.2h10.13l0,0v20.38h10.2l0,0v20.32h-10.1V186H216.3l0,0v10.17h20.32v10.15H206.13v20.34H196V216.45h-20.4l0,0V206.3H165.46V196.15H185.7V186H134.93V196.1h-20.4Zm61-30.52V155.47h-10.1v10.11H175.6V175.7h20.27V165.6Zm-20.38,0H145.13v10.07H155.2Zm20.43-51h10.07V104.58H175.62Z"/><path class="cls-1" d="M23,84.12V13H94.11V84.12Zm10.2-61V73.94H84V23.17Z"/><path class="cls-1" d="M236.58,84.15H165.46V13h71.12Zm-10.15-61H175.66V74h50.77Z"/><path class="cls-1" d="M23,155.45H94.14v71.12H23Zm61,10.2H33.2v50.77H84Z"/><path class="cls-1" d="M114.54,53.67V33.32H104.4V13h50.78V33.28H145.12V43.47h10.07v20.3H145.07V53.67H134.91V43.53H124.75V53.65H114.52Zm10.2-20.43h10.07V23.18H124.75Z"/><path class="cls-1" d="M73.82,104.52v10.17H94.14v10.16H63.68v20.34H23V124.94H33.1v10H53.5V104.52l0,0H73.84Z"/><path class="cls-1" d="M114.52,196.1v10.17h10.16v10.16h10.15v10.17h-30.4V196.12h10.12Z"/><path class="cls-1" d="M53.5,104.52H33.16v10.14H23V94.42H53.47q0,5.06,0,10.13Z"/><path class="cls-1" d="M236.58,124.84H226.48V104.56H216.34V94.4h20.24Z"/><path class="cls-1" d="M73.84,104.55V94.42H94.13v10.11H73.82Z"/><path class="cls-1" d="M216.3,145.25V135.12h10.11v10.1H216.27Z"/><path class="cls-1" d="M145.07,84.2V74.07h10.11v10.1H145Z"/><path class="cls-1" d="M114.55,175.75H104.42V165.6h10.13l0,0q0,5.1,0,10.2Z"/><path class="cls-1" d="M216.3,186V175.82h10.11v10.1H216.27Z"/><path class="cls-1" d="M206.1,114.72h10.13v10.15H206.1l0,0V114.7Z"/><path class="cls-1" d="M175.58,216.45v10.13H165.47v-10.1H175.6Z"/><path class="cls-1" d="M236.58,226.6H226.51V216.53h10.07Z"/><path class="cls-1" d="M155.25,135H145.12V124.94h10.1q0,5.07,0,10.13Z"/><path class="cls-1" d="M73.77,63.79H43.35V33.37H73.77Z"/><path class="cls-1" d="M185.8,63.77V33.35h30.42V63.77Z"/><path class="cls-1" d="M43.34,206.23V175.81H73.76v30.42Z"/></svg>