<svg id="Camada_1" data-name="Camada 1" xmlns="http://www.w3.org/2000/svg" viewBox="0 0 260 239"><defs><style>.cls-1{fill:#faad17;}</style></defs><title>SEGURANÇA 2</title><path class="cls-1" d="M148.5,186.86C146,202,151.2,212.23,165.84,217.2l-1.16,1.42H92.29l-1.51-1c14.18-5.54,20.45-15.32,17.53-30.46-1.59-.07-3.6-.25-5.61-.25-17.29,0-34.59,0-51.88,0-11.55,0-15.44-3.85-15.45-15.37q-.06-55.3,0-110.61c0-10.24,3-14.65,12.38-14.81,27.33-.47,54.67-.17,82.38-.17l1,8.63c-2.37.12-4.53.32-6.69.32q-36.2,0-72.41,0c-7.43,0-8.06.62-8.06,8.19q0,43.62,0,87.23c0,7.2.62,7.77,7.84,7.77q75.83,0,151.66,0c7.77,0,8.44-.71,8.46-8.53,0-8,.5-16-.2-23.93-.62-7.05,2.33-11.45,8.31-15.28a41.32,41.32,0,0,1,.51,4.48c0,19,.06,38,0,57,0,11.07-4,15-15.25,15-16.91,0-33.83,0-50.74,0Zm-12-13.62c.26-5.11-2.95-8.92-7.8-9.26a8.7,8.7,0,1,0-1.14,17.37C132.68,181.55,136.28,178.29,136.54,173.23Z"/><path class="cls-1" d="M231.63,49.75c-1.46,25.51-12.45,50.31-38.76,66.87-4.27,2.69-7.74,2.75-12,0-22.9-14.57-35-35.67-38.2-62.26a116,116,0,0,1-.94-13c0-4.58,2.32-7.66,7.12-8a69.14,69.14,0,0,0,34.56-11.83c2-1.31,6.71-.16,9.24,1.38,8.92,5.44,18.25,9.14,28.72,10C230.8,33.78,232.16,35.53,231.63,49.75Zm-77.21,19c.64,12.43,18.66,37.09,33.3,41,0-2,0-3.87,0-5.72,0-9.49.19-19-.08-28.48-.12-4.3,1.38-5.65,5.57-5.49,7.4.27,14.81-.11,22.21.15,3.69.13,5.75-1.09,6.31-4.74,1-6.37,1.91-12.74,2.94-19.1.59-3.62-.93-4.7-4.48-5.43a189.71,189.71,0,0,1-21.82-6c-3.83-1.28-7.28-3.67-11.65-6-.16,2.83-.35,4.84-.36,6.86,0,8.92-.25,17.86.06,26.77.16,4.62-1.18,6.41-6,6.21C171.88,68.49,163.34,68.74,154.42,68.74Z"/><path class="cls-1" d="M57.68,121.09H66L65,122.31c3,2.42,5.68,5.7,9.11,7,3.62,1.4,7.79.19,9.33-4.24,1.62-4.65-.25-8.19-4.54-10.38-3.38-1.73-6.88-3.22-10.31-4.85-6-2.85-9.8-7.23-9.42-14.2.39-7.17,4.58-11.17,11.14-13.54,1.7-.61,2.68-3.26,3.94-5,.76-1.05,1.42-2.17,2.12-3.26.84,1,2.48,2,2.39,2.86-.42,4,1.91,5,5,6.19,6,2.29,9.35,6.82,9.37,13.75-4.44.38-8.89,2.33-10.92-4.4-.52-1.73-5-3.21-7.55-3.08-1.93.09-5.09,2.8-5.27,4.58-.27,2.75.72,6.66,2.67,8.34,3.2,2.77,7.59,4.17,11.49,6.12,7.53,3.75,10.55,8.19,9.93,14.93-.66,7.12-4.68,11.49-11.55,13-3.1.7-3.82,2.41-3.8,5.26,0,.88-1.36,1.78-2.11,2.66-.79-.85-2.34-1.79-2.25-2.53.52-4.24-2.35-4.86-5.35-5.91C60.64,132.95,57.76,129.05,57.68,121.09Z"/><path class="cls-1" d="M138.72,133.75c-10.63,0-21.27.18-31.9-.16-2-.07-4-2.2-6-3.39,1.94-1.07,3.87-3.05,5.82-3.07q31.9-.34,63.8,0c2,0,4,2.22,6,3.41-1.92,1.06-3.82,3-5.77,3C160,133.91,149.35,133.75,138.72,133.75Z"/><path class="cls-1" d="M126.18,101.24c6.63,0,13.27-.23,19.88.15,1.72.1,3.33,2.1,5,3.23-1.67,1.17-3.31,3.32-5,3.35q-20.17.41-40.34,0c-1.67,0-3.3-2.19-4.95-3.36,1.66-1.12,3.26-3.11,5-3.21C112.53,101,119.36,101.24,126.18,101.24Z"/></svg>