<svg id="Camada_1" data-name="Camada 1" xmlns="http://www.w3.org/2000/svg" xmlns:xlink="http://www.w3.org/1999/xlink" viewBox="0 0 329 274"><defs><style>.cls-1{fill:url(#linear-gradient);}.cls-2{fill:url(#linear-gradient-2);}.cls-3{fill:url(#linear-gradient-3);}.cls-4{fill:url(#linear-gradient-4);}</style><linearGradient id="linear-gradient" x1="122.76" y1="141.5" x2="302" y2="141.5" gradientUnits="userSpaceOnUse"><stop offset="0" stop-color="#94c732"/><stop offset="1" stop-color="#34631c"/></linearGradient><linearGradient id="linear-gradient-2" x1="1" y1="182.9" x2="106.35" y2="182.9" xlink:href="#linear-gradient"/><linearGradient id="linear-gradient-3" x1="32.02" y1="141.5" x2="116.36" y2="141.5" xlink:href="#linear-gradient"/><linearGradient id="linear-gradient-4" x1="63.29" y1="100.07" x2="126.82" y2="100.07" xlink:href="#linear-gradient"/></defs><title>Prancheta 1 cópia 8</title><path class="cls-1" d="M302,91.33c-2.62,15.53-5.35,31.05-7.85,46.61-3.27,20.42-6.29,40.88-9.55,61.3-1.63,10.18-9,17.27-19.29,18.24-6.19.58-12.46.39-18.69.4q-48.8,0-97.6,0c-20.41,0-28.86-10.6-25.55-30.85q8-49,15.26-98.2c2.54-17,9.72-23.69,27-23.71q54.48-.06,109,0c15.94,0,21.31,3.6,27.32,18.19ZM142.67,196.67H264.31l17.25-110.6h-44c-1.71,8.91-3.65,17.58-5,26.33-.9,6.07-4.08,8.44-9.91,8.32s-11.58,0-17.37,0c-9.56,0-11.81-2.88-10-12.38,1.4-7.28,2.68-14.59,4.07-22.22H160Z"/><path class="cls-2" d="M1,179.63c3.1-5.35,7.66-7.05,13.84-7,26.7.28,53.41,0,80.11.17,8.61,0,14,7.34,10.08,14.1-1.69,2.89-6.1,5.85-9.33,5.9-28,.46-56.08.51-84.11,0C8,192.71,4.53,188.57,1,186.32Z"/><path class="cls-3" d="M73.93,151.66c-10,0-20.07.07-30.1,0-7.22-.07-11.65-3.94-11.81-10s4.41-10.22,11.53-10.25q30.77-.14,61.54,0c7.21,0,11.36,4,11.27,10.32s-4.32,9.88-11.66,9.95C94.44,151.73,84.18,151.66,73.93,151.66Z"/><path class="cls-4" d="M94.91,110.23c-6.89,0-13.78.11-20.67,0s-10.8-3.85-10.95-9.9S67.21,90.05,73.84,90q21.33-.24,42.67,0c6.41.08,10.52,4.6,10.31,10.56-.2,5.57-4.31,9.49-10.57,9.64C109.14,110.36,102,110.23,94.91,110.23Z"/></svg>