<svg id="Camada_1" data-name="Camada 1" xmlns="http://www.w3.org/2000/svg" xmlns:xlink="http://www.w3.org/1999/xlink" viewBox="0 0 329 274"><defs><style>.cls-1{fill:url(#linear-gradient);}.cls-2{fill:url(#linear-gradient-2);}.cls-3{fill:url(#linear-gradient-3);}.cls-4{fill:url(#linear-gradient-4);}.cls-5{fill:url(#linear-gradient-5);}.cls-6{fill:url(#linear-gradient-6);}.cls-7{fill:url(#linear-gradient-7);}</style><linearGradient id="linear-gradient" x1="47.91" y1="140.71" x2="224.51" y2="140.71" gradientUnits="userSpaceOnUse"><stop offset="0" stop-color="#94c732"/><stop offset="1" stop-color="#34631c"/></linearGradient><linearGradient id="linear-gradient-2" x1="205.89" y1="125.34" x2="299" y2="125.34" xlink:href="#linear-gradient"/><linearGradient id="linear-gradient-3" x1="109.47" y1="133.88" x2="188.77" y2="133.88" xlink:href="#linear-gradient"/><linearGradient id="linear-gradient-4" x1="176.87" y1="133.87" x2="294.11" y2="133.87" xlink:href="#linear-gradient"/><linearGradient id="linear-gradient-5" x1="148.09" y1="234.34" x2="156.86" y2="234.34" xlink:href="#linear-gradient"/><linearGradient id="linear-gradient-6" x1="148.08" y1="55.71" x2="156.87" y2="55.71" xlink:href="#linear-gradient"/><linearGradient id="linear-gradient-7" x1="65.01" y1="96.7" x2="73.77" y2="96.7" xlink:href="#linear-gradient"/></defs><title>Prancheta 1 cópia 3</title><path class="cls-1" d="M47.91,81c28.72-5.63,54.36-18.15,77.73-35.4C134.58,39,142.7,31.25,151.2,24l1.29-1.1a234.45,234.45,0,0,0,65.73,45.53c-4.47,1.79-8.67,3.57-13,5.11-.65.23-1.71-.52-2.52-.94a242.5,242.5,0,0,1-48.51-33.52c-.55-.48-1.12-.93-1.75-1.45C125,61.92,94.37,80.31,58.57,89.44a216,216,0,0,0,3.28,35.95C66.22,150,74.57,173.07,88.62,193.9c15.73,23.31,36.63,40.57,61.94,52.59a5.06,5.06,0,0,0,3.84,0c23-10.92,42.47-26.22,57.68-46.74,1.28-1.73,2.33-2.11,4.32-1.43,2.52.87,5.19,1.35,8.12,2.08-.53.86-.95,1.62-1.44,2.32-17.74,25.1-41.13,43.19-69.12,55.53a5,5,0,0,1-3.56-.28c-49.25-22.08-80.2-59.73-94.57-111.41A213.65,213.65,0,0,1,48.37,99c-.05-1.19-.3-2.36-.46-3.54Z"/><path class="cls-2" d="M299,96.6c-4.63,4.81-9.19,9.69-13.89,14.42q-24,24.1-48.07,48.11c-.52.52-1.07,1-2,1.87-1.49-1.58-2.89-3.15-4.38-4.63-7.47-7.5-15-15-22.44-22.46-2.83-2.85-3.09-5.76-.85-8.09s5.44-2.14,8.3.72c6.42,6.44,12.82,12.91,19.79,19.93,4-4.25,7.75-8.37,11.66-12.31q20.74-20.87,41.59-41.62c4-4,6.91-3.8,10.26.72Z"/><path class="cls-3" d="M131.86,131h36.45a67.42,67.42,0,0,0,4.55,27.7,68.78,68.78,0,0,0,15.91,23.73,33.42,33.42,0,0,1-4.32.61q-32.06,0-64.12,0c-6.33,0-10.72-4.35-10.78-10.69q-.15-15.18,0-30.36c0-6.31,3.64-10.11,10-10.86,1.1-.13,2.2-.22,3.7-.37,0-5.23-.15-10.49.06-15.74a35.49,35.49,0,0,1,1.31-9.6C128.29,94,136.24,86.87,148.12,85.1c11.59-1.72,21.16,2.39,28.21,12,1.12,1.51,1.4,2.76.32,4.5-1.44,2.33-2.51,4.88-3.92,7.69-2.19-7.36-6.53-12.43-13.47-14.8A20.46,20.46,0,0,0,132,111.91C131.33,118.05,131.86,124.32,131.86,131Zm28.44,21-.69-.3c-.06-5-1.57-7.18-5.64-8.35a6.65,6.65,0,0,0-7.7,3.55c-1.55,3.37-1.76,7.19.35,10.36a9,9,0,0,1,1.65,5.88,29.93,29.93,0,0,0,0,3.62,4.13,4.13,0,0,0,4.07,4.1,4.18,4.18,0,0,0,4.37-4.11c.12-1.94,0-3.9.07-5.84a7.17,7.17,0,0,1,.65-2.3C158.36,156.34,159.34,154.14,160.29,151.94Z"/><path class="cls-4" d="M291.08,115.62a58.21,58.21,0,0,1-29.58,70.72c-27.23,13.7-60.59,3.83-76.37-22.47s-8.3-60.58,17.33-78.34c24.72-17.13,57.39-11.66,74.74,7.15l-8.07,7.83c-.24-.19-.66-.51-1.06-.86-13.64-12.32-29.45-16.09-46.83-10.5s-28.06,18-31.88,35.9c-5.5,25.78,12.86,51.58,39.13,55.31a47.19,47.19,0,0,0,54.17-44.64,18.68,18.68,0,0,0-.18-5.55c-.94-3.6.18-6.14,2.93-8.46A68,68,0,0,0,291.08,115.62Z"/><path class="cls-5" d="M156.86,234.31a4.41,4.41,0,0,1-4.36,4.45,4.46,4.46,0,0,1-4.41-4.42,4.39,4.39,0,0,1,4.38-4.42A4.33,4.33,0,0,1,156.86,234.31Z"/><path class="cls-6" d="M156.87,55.64a4.39,4.39,0,1,1-8.79.08,4.39,4.39,0,0,1,8.79-.08Z"/><path class="cls-7" d="M69.56,92.28a4.51,4.51,0,0,1,4.2,4.61A4.38,4.38,0,1,1,65,96.56,4.52,4.52,0,0,1,69.56,92.28Z"/></svg>