<svg id="Camada_1" data-name="Camada 1" xmlns="http://www.w3.org/2000/svg" viewBox="0 0 196 196"><defs><style>.cls-1{fill:#fcd200;}</style></defs><title>compartilhar</title><path class="cls-1" d="M123.24,42.4c5.91,0,10.23,0,14.55,0,1.17,0,1.54-.32,1.54-1.52q0-9.89,0-19.78a5.77,5.77,0,0,1,3.83-5.48c2.49-1.09,5-1,7,.87,2.7,2.44,5.23,5.06,7.81,7.63C162,28.08,165.92,32,169.86,36l11.92,11.93c3.31,3.31,6.6,6.64,9.93,9.92,3.08,3,3.06,6.92-.05,10-5.51,5.51-11,11.07-16.47,16.58Q164.61,95,154,105.52c-1.11,1.1-2.19,2.22-3.31,3.3a6.23,6.23,0,0,1-7.07,1.39c-2.61-1-4.22-2.87-4.24-5.77-.05-6.5-.08-13,0-19.49,0-1.31-.37-1.7-1.68-1.68-7.92.12-15.85,0-23.76.3a82.43,82.43,0,0,0-20.7,3.25c-5.87,1.77-11.45,4.21-16,8.5a30.74,30.74,0,0,0-7.81,12c-3.09,8.37-3.72,17.09-3.37,25.89.2,4.92.79,9.82,1.17,14.72.19,2.5-1.44,4.15-3.91,3.75A3.74,3.74,0,0,1,61,150.25c-5.09-7.65-9.71-15.59-12.81-24.27a130,130,0,0,1-3.84-12.9c-1.25-5.1-1-10.35-.81-15.56a64.24,64.24,0,0,1,3.66-19.6A44.37,44.37,0,0,1,63.54,56.34c9.44-6.6,20-10.07,31.27-11.86A164,164,0,0,1,123.24,42.4Z"/><path class="cls-1" d="M15.86,104c0-15.18-.16-30.36.06-45.53C16.06,49,20.24,41.4,27.52,35.39a30,30,0,0,1,19.57-6.75c8.68-.06,17.36,0,26,0,2.46,0,3.72.94,4.09,2.88a3,3,0,0,1-2,3.59,89.53,89.53,0,0,0-14.5,6.41,6.22,6.22,0,0,1-2.86.66c-3.46.08-6.92,0-10.39,0-4.21.06-8.11,1-11.48,3.77a17.36,17.36,0,0,0-6.54,14.15q0,31,0,62c0,8.54,0,17.08,0,25.61a17.05,17.05,0,0,0,1.89,8.48c3.42,6.1,8.52,9.37,15.55,9.4,10.34.05,20.68,0,31,0,19,0,37.94,0,56.92,0,7.27,0,12.63-3.13,16.16-9.4a17,17,0,0,0,2-8.48c0-7.21,0-14.42,0-21.63a4.25,4.25,0,0,1,2.24-3.94c1.95-1.24,3.87-2.53,5.7-3.93a3.23,3.23,0,0,1,3.44-.58,3.29,3.29,0,0,1,2.13,3.22c-.05,10,.09,20-.15,30-.16,6.87-3,12.79-7.59,17.91-6.3,7.07-14.25,10.41-23.66,10.41q-43.9,0-87.8,0c-7.49,0-14.29-2.07-20.07-7s-9.85-10.92-10.79-18.57a114.14,114.14,0,0,1-.59-13.18c-.07-12.19,0-24.38,0-36.57Z"/></svg>