<svg id="Camada_1" data-name="Camada 1" xmlns="http://www.w3.org/2000/svg" viewBox="0 0 196 196"><defs><style>.cls-1{fill:#fcd200;}</style></defs><title>presente</title><path class="cls-1" d="M154.61,61.16l-4.13-3.93,4.23-4,4.2,4Z"/><path class="cls-1" d="M171.94,144.08l-10.42,8.32-.19-.12c.11-.41.21-.82.34-1.23,1.13-3.61,2.23-7.22,3.41-10.81a1.32,1.32,0,0,0-.56-1.77c-3-2.19-6-4.44-8.94-6.67-.18-.13-.34-.29-.69-.58.58,0,.93-.06,1.29-.06,3.62,0,7.24,0,10.85,0a1,1,0,0,0,1.14-.84c1.21-4,2.47-7.93,3.77-12.1l2.35,7.46c.48,1.53,1,3,1.42,4.59a1,1,0,0,0,1.2.9c3.58,0,7.17,0,10.75,0H189c-.37.34-.54.52-.74.67-3,2.25-6,4.52-9,6.74a1.14,1.14,0,0,0-.48,1.52c1.23,3.82,2.4,7.66,3.59,11.5.07.22.11.45.24,1Z"/><path class="cls-1" d="M100.2,59.55,97.26,61.9l-.05,0c0-.12.06-.23.09-.35.32-1,.63-2,1-3a.37.37,0,0,0-.16-.5c-.85-.62-1.68-1.25-2.52-1.88l-.19-.16.36,0h3.06a.28.28,0,0,0,.32-.24c.34-1.12.69-2.23,1.06-3.41l.66,2.1c.14.43.28.86.4,1.29a.29.29,0,0,0,.34.25H105l-.21.19c-.84.64-1.69,1.27-2.54,1.9a.32.32,0,0,0-.13.43c.35,1.08.68,2.16,1,3.24,0,.06,0,.13.07.28Z"/><path class="cls-1" d="M184.2,113.8l-2.93,2.34-.05,0c0-.12.06-.23.09-.35.32-1,.63-2,1-3a.37.37,0,0,0-.16-.5c-.85-.62-1.68-1.25-2.52-1.88l-.19-.16.36,0h3.06a.28.28,0,0,0,.32-.24c.34-1.12.69-2.23,1.06-3.41l.66,2.1c.14.43.28.86.4,1.29a.29.29,0,0,0,.34.25H189l-.21.19c-.84.64-1.69,1.27-2.54,1.9a.32.32,0,0,0-.13.43c.35,1.08.68,2.16,1,3.24,0,.06,0,.13.07.28Z"/><path class="cls-1" d="M154.45,61.33l-5.07,4-.09-.06c.05-.2.1-.4.16-.6.55-1.76,1.09-3.52,1.66-5.26a.64.64,0,0,0-.27-.86c-1.46-1.07-2.9-2.16-4.35-3.25l-.34-.28.63,0c1.76,0,3.52,0,5.28,0a.48.48,0,0,0,.55-.41c.59-1.93,1.2-3.86,1.84-5.89l1.14,3.63c.23.74.48,1.48.69,2.23a.5.5,0,0,0,.58.44c1.74,0,3.49,0,5.23,0h.65c-.18.16-.26.25-.36.33-1.46,1.1-2.92,2.2-4.39,3.28a.55.55,0,0,0-.23.74c.6,1.86,1.17,3.73,1.75,5.6,0,.11.05.22.12.48Z"/><path class="cls-1" d="M18.82,77.11l-7.21,5.76-.13-.08c.08-.28.14-.57.23-.85.78-2.5,1.54-5,2.36-7.48a.91.91,0,0,0-.39-1.22c-2.08-1.51-4.13-3.07-6.19-4.62-.12-.09-.24-.2-.48-.4.4,0,.64,0,.89,0,2.5,0,5,0,7.51,0a.68.68,0,0,0,.79-.58c.84-2.75,1.71-5.49,2.61-8.37l1.63,5.16c.33,1.06.69,2.11,1,3.18a.71.71,0,0,0,.83.62c2.48,0,5,0,7.44,0h.93c-.26.23-.37.36-.51.46C28,70.19,26,71.76,23.88,73.3a.79.79,0,0,0-.33,1.05c.85,2.64,1.66,5.3,2.49,8,0,.15.07.31.16.69Z"/><path class="cls-1" d="M30.2,130l-2.4,1.92,0,0c0-.09,0-.19.08-.28.26-.83.51-1.66.79-2.49a.3.3,0,0,0-.13-.41c-.69-.5-1.37-1-2.06-1.54l-.16-.13h2.8a.23.23,0,0,0,.26-.19c.28-.91.57-1.83.87-2.79l.54,1.72c.11.35.23.7.33,1.06a.24.24,0,0,0,.28.21h2.79l-.17.15-2.08,1.55a.26.26,0,0,0-.11.35c.28.88.55,1.77.83,2.65,0,.05,0,.1.05.23Z"/><path class="cls-1" d="M46.82,51l-2.4,1.92,0,0c0-.09,0-.19.08-.28.26-.83.51-1.66.79-2.49a.3.3,0,0,0-.13-.41c-.69-.5-1.37-1-2.06-1.54l-.16-.13h2.8a.23.23,0,0,0,.26-.19c.28-.91.57-1.83.87-2.79l.54,1.72c.11.35.23.7.33,1.06A.24.24,0,0,0,48,48h2.79l-.17.15-2.08,1.55a.26.26,0,0,0-.11.35c.28.88.55,1.77.83,2.65,0,.05,0,.1.05.23Z"/><path class="cls-1" d="M95.88,68.11h3.39c5.86,1.48,9.18,5.15,9.8,11.24.22,2.22.66,4.41,1,6.92.75-.6,1.29-1,1.8-1.45,1.59-1.4,3.14-2.85,4.76-4.21a11.29,11.29,0,0,1,15.71,16.18c-.3.33-.54.72-.88,1.17,3.17,1.15,6.17,2.17,9.12,3.32a8.28,8.28,0,0,1,5,10.7c-1.12,3.34-2.34,6.65-3.57,9.95-.78,2.1-2,2.68-4.15,2.09l-1.76-.52V126q0,13.68,0,27.35c0,5.92-1.63,8.25-7.16,10.24H70.42c-5.5-2.22-6.84-4.21-6.84-10.21q0-18,0-36c0-3.34.61-3.94,4-3.95h39.71a3.21,3.21,0,0,0-1.58-1.1L66,97.84c-3-1.08-3.47-2.11-2.39-5.12.95-2.65,1.93-5.29,2.9-7.94,2.33-6.36,6.22-8.19,12.57-5.91l7.19,2.57a37.18,37.18,0,0,1,.61-5.06C88.08,71.73,91.5,69.37,95.88,68.11ZM91.4,158V119h-22a1.89,1.89,0,0,0-.2.5q0,17.81,0,35.63A2.64,2.64,0,0,0,72.08,158C78.44,158.08,84.8,158,91.4,158Zm16.89,0c6.53,0,12.81,0,19.09,0,2.19,0,3.22-1.18,3.22-3.55,0-10.52,0-21,0-31.57,0-1.35-.62-1.7-1.68-2.21-6.68-3.21-13.71-1.23-20.68-1.9Zm6.85-60.16-3.83,10.56L137.58,118c1-2.73,2-5.22,2.82-7.75a2.82,2.82,0,0,0-1.93-3.87C130.8,103.57,123.12,100.79,115.14,97.89ZM95.6,102.73l3.82-10.53c-8-2.93-15.87-5.87-23.78-8.58a3.49,3.49,0,0,0-3.14,1.26,82,82,0,0,0-3.2,8.29ZM97.15,119v38.92h5.39V119ZM113,91.22c3.37,1.22,6.38,2.41,9.45,3.4a5.61,5.61,0,0,0,6.69-2.73,5.83,5.83,0,0,0-1.27-7.13,5.63,5.63,0,0,0-7.23-.22C118.15,86.57,115.78,88.79,113,91.22Zm-8.13-2.94c-.64-3.82-1.05-7.3-1.85-10.7a5.44,5.44,0,0,0-5.63-3.92,5.88,5.88,0,0,0-5.33,4.39A5.5,5.5,0,0,0,94.9,84.5C98,85.88,101.29,86.94,104.88,88.28Zm-.26,5.79-3.81,10.56,5.29,1.87L109.93,96Z"/></svg>