<svg id="Camada_1" data-name="Camada 1" xmlns="http://www.w3.org/2000/svg" viewBox="0 0 260 239"><defs><style>.cls-1{fill:#faad17;}</style></defs><title>TAG</title><path class="cls-1" d="M133.09,226.44h-4.71c-.29-.93-1.16-1.22-1.89-1.64L63.86,188.48c-7.91-4.58-15.83-9.15-23.71-13.78-3.16-1.86-3.81-4.41-2.12-7.64.36-.7.77-1.37,1.16-2.05L107.95,45.42c4.36-7.58,3-6.39,11.62-7.89A4.9,4.9,0,0,1,124,38.88,86.74,86.74,0,0,1,140.2,59a9.29,9.29,0,0,1,1.32,7.43A17,17,0,0,0,149,84.7a17.55,17.55,0,0,0,20.29-.65c5.92-4.35,8.23-11.15,6.27-18.42-2-7.43-8.28-12.84-15.53-13.39-2.66-.2-3,.29-1.88,2.65a108.26,108.26,0,0,1,4.83,11.44c1.1,3.16,0,6-2.72,6.93-2.87,1-5.5-.37-6.73-3.59-1.41-3.67-2.92-7.29-4.66-10.81-7.51-15.19-18.16-27.43-33.2-35.6a97.12,97.12,0,0,0-15.19-6.35c-4-1.36-5-5.39-2.18-8.54.37-.42.9-.72,1-1.37h5.14c.54,1.14,1.74,1.16,2.71,1.5a83.69,83.69,0,0,1,35.31,23.05,5.39,5.39,0,0,0,5.44,1.88c9.87-1.56,19.76-3,29.65-4.45,3.94-.58,5.68.44,7.14,4.14,7.65,19.39,15.24,38.81,23,58.17a7.85,7.85,0,0,1-.59,7.48c-11.3,19.53-22.42,39.16-33.78,58.65C159.82,180.42,147.19,203.85,133.09,226.44Zm-12-47.8c7.47.17,13.44-3.28,17.49-10.18s4.46-13.72.19-20.65a56.19,56.19,0,0,0-10.87-12.32c-3.46-3.08-7.1-6-10-9.7-1.83-2.36-1.91-4.69-.4-6.94s3.53-3,6.37-2.27a29.4,29.4,0,0,1,10.44,5.27c3,2.18,4.24,4.93,3.32,8.55-.53,2.09.28,3.42,2.1,4.36,2.6,1.34,5.16,2.76,7.75,4.13,3.57,1.89,5.14,1.18,6.19-2.77,2.27-8.55-1-16.9-8.89-22.84-2.67-2-2.78-2.28-1.9-5.34.48-1.67.09-3.11-1.47-3.81-2.14-1-4-3.46-6.79-1.62a2.66,2.66,0,0,0-.46.45c-2.62,2.84-2.61,2.81-6.18,1.5a27.39,27.39,0,0,0-4.31-1.25c-6.76-1.27-13.18-.48-18.6,4.06-7.85,6.56-9.24,16.61-3.74,25.24,3.28,5.13,7.88,9,12.39,13,2.9,2.54,5.88,5,8.05,8.25,1.85,2.75,1.92,5.47.27,7.79s-3.8,2.88-7.09,2.08a28.61,28.61,0,0,1-8.78-3.88c-5.43-3.53-6.25-5.53-4.71-11.76A3.07,3.07,0,0,0,100,144.1c-3.44-1.89-6.88-3.8-10.39-5.55-2-1-3.64-.32-4.49,1.79a20.41,20.41,0,0,0-1.57,10.05c.83,7.24,4.46,12.81,10.22,17.14,3.45,2.59,3.47,2.83,1.69,6.7-1.07,2.32-.63,3.71,1.6,5,.56.32,1.13.62,1.7.91,2.81,1.45,4.06,1.09,5.6-1.62,1.65-2.9,2.58-3.27,5.74-2.1A32.84,32.84,0,0,0,121.05,178.63Z"/></svg>