<svg id="Camada_1" data-name="Camada 1" xmlns="http://www.w3.org/2000/svg" viewBox="0 0 260 239"><defs><style>.cls-1{fill:#faad17;}</style></defs><title>TAG TEMPO</title><path class="cls-1" d="M181.67,9.56c-.34.77.39.73.73.92,3.67,2,5.16,5.09,5.16,9.14q0,27.68,0,55.36a24.53,24.53,0,0,0,0,3.42c.85,6-1.7,10.45-6.2,14.12-1,.78-1.41.76-2.22-.07Q173.85,87,168.43,81.7c-.73-.72-1.06-1.32-.08-2a2.7,2.7,0,0,0,.93-2.46q0-23.73,0-47.45c0-1.5-.45-1.93-1.93-1.93q-23.73.07-47.45,0a4.08,4.08,0,0,0-3.11,1.49Q88.72,57.43,60.6,85.53L29.16,117c-2,2-2,2,.07,4.15q23.58,23.58,47.18,47.13a5.17,5.17,0,0,1,1.73,4.09c-.1,5.84-.11,11.69,0,17.53,0,2-.75,2.29-2.4,1.81a10,10,0,0,1-4.35-2.6Q39.66,157.34,7.89,125.63c-1-1-1.23-2.7-2.79-3.2v-6.84c.42.51.63,0,.73-.22.82-1.89,2.35-3.2,3.76-4.61Q57.34,63,105.1,15.26c1.85-1.85,3.51-3.95,6-5.09.26-.12.41-.38,0-.61Z"/><path class="cls-1" d="M150.89,228.46c-.06-1.22-1.08-.77-1.69-.9-22.66-4.6-39-17.32-48-38.6-16.2-38.24,8.9-81.89,50-87.55a63.93,63.93,0,0,1,71.85,52.25c.11.61-.32,1.62.9,1.69v18.38c-1.09-.09-.74.82-.83,1.31-5.13,27.62-25,47.52-52.59,52.59-.49.09-1.4-.26-1.31.83Zm9.37-18.29A45.58,45.58,0,1,0,114.55,165C114.6,189.87,135.19,210.23,160.26,210.17Z"/><path class="cls-1" d="M141.87,73.36a18.22,18.22,0,1,1,18.32-18.1A18.24,18.24,0,0,1,141.87,73.36Z"/><path class="cls-1" d="M151,151c0-6.91,0-13.82,0-20.72,0-1.67.47-2.24,2.18-2.2q6.94.16,13.89,0c1.74,0,2.32.42,2.3,2.24-.1,7.62,0,15.24-.09,22.86,0,2,.58,2.39,2.4,2.34,4.63-.12,9.26,0,13.89-.07,1.6,0,2.1.49,2.07,2.08-.09,4.77-.08,9.54,0,14.31,0,1.46-.39,2-1.91,2q-16.45-.09-32.9,0c-1.45,0-1.81-.51-1.8-1.85C151,164.94,151,158,151,151Z"/></svg>