<svg id="Camada_1" data-name="Camada 1" xmlns="http://www.w3.org/2000/svg" viewBox="0 0 260 239"><defs><style>.cls-1{fill:#faad17;}</style></defs><title>TEMPO</title><path class="cls-1" d="M9.75,112.95c1.16-2.63,3.18-3.5,6-3.48,15.81.08,31.62,0,47.43.08a2.9,2.9,0,0,0,3.22-2.17c1.94-4.68,4.18-9.24,6.3-13.85.28-.61.6-1.21,1.06-2.15h-26c-3.79,0-6-1.79-6-4.74S44.07,82,47.88,82c10.1,0,20.19,0,30.29,0a4,4,0,0,0,3.53-1.68,93.53,93.53,0,0,1,51-32.33c.59-.15,1.16-.38,1.89-.63,0-3.56.1-7.08-.09-10.58,0-.65-1.1-1.5-1.87-1.82A16,16,0,0,1,128.32,7.7,16.21,16.21,0,0,1,139,4.06c10.88,0,21.76,0,32.64,0,8.45,0,14.85,5.33,16.29,13.35,1.4,7.73-2.89,14.82-10.8,17.84l-1,.38V47.1c5.49,1.9,11,3.37,16.19,5.68,32.59,14.65,51.56,39.77,57.08,75.06.3,1.92.56,3.85.84,5.77v13.15c-.78,4.68-1.38,9.41-2.37,14A91.22,91.22,0,0,1,235.43,191c-1.76,2.76-4.4,3.57-6.77,2.13s-2.93-4.3-1.13-7.16a82,82,0,0,0,12.71-36.43c2.54-27.21-5.37-51-24.92-70.27-42.11-41.43-112-29.09-137.18,24.3a85.12,85.12,0,0,0,60.67,120.22c21.86,4.33,42.45.58,61.54-11,3.85-2.34,6.51-2.18,8.16.56s.51,5.13-3.12,7.39c-49.55,30.9-115.67,9.52-137.71-44.57-.73-1.79-1.56-2.47-3.54-2.45-9.63.11-19.26.06-28.88,0a17,17,0,0,1-3-.18,4.6,4.6,0,0,1-.16-9,14.5,14.5,0,0,1,3-.23q12.8,0,25.6,0h2.67l-2.9-18.05H58.18c-5.87,0-11.74,0-17.61,0-3.26,0-5.36-1.81-5.43-4.57s2.09-4.79,5.44-4.81c6.57,0,13.13,0,19.73,0l2.31-18H59.95c-14.48,0-29,0-43.44,0-2.87,0-5.19-.65-6.75-3.17ZM155.22,26.6c5.39,0,10.79,0,16.18,0,4.37,0,7.33-2.65,7.39-6.46s-2.94-6.65-7.23-6.67q-16.3-.07-32.6,0c-4.3,0-7.18,2.86-7.1,6.74s2.9,6.35,7.18,6.38C144.43,26.63,149.83,26.6,155.22,26.6ZM144.09,45.53h22.43V36.14H144.09Z"/><path class="cls-1" d="M9.75,167.44l1-1.22a4.7,4.7,0,0,1,7-.48,4.62,4.62,0,0,1-.21,6.83,4.7,4.7,0,0,1-6.93-.92c-.31-.44-.56-.93-.84-1.39Z"/><path class="cls-1" d="M155.36,67.24a72.86,72.86,0,1,1-72.83,72.89A72.84,72.84,0,0,1,155.36,67.24Zm-.05,9.4A63.46,63.46,0,1,0,218.81,140,63.44,63.44,0,0,0,155.31,76.64Z"/><path class="cls-1" d="M214.51,203.7a4.57,4.57,0,0,1,4.72-4.49,4.64,4.64,0,1,1-.28,9.27A4.58,4.58,0,0,1,214.51,203.7Z"/><path class="cls-1" d="M140.72,139.43a15.94,15.94,0,0,1,.87-3.9c.78-1.64.18-2.52-.94-3.59-2.83-2.71-5.58-5.49-8.31-8.29-2.3-2.35-2.45-5.05-.46-7.06s4.8-1.81,7.08.42c3,2.9,5.82,5.91,8.85,8.75a3.07,3.07,0,0,0,2.54.56,14.42,14.42,0,0,1,9.67,0c1.6.62,2.38.13,3.39-.9q10.33-10.42,20.75-20.76a8.22,8.22,0,0,1,2.59-1.95,4.38,4.38,0,0,1,5.28,1.41,4.58,4.58,0,0,1,.12,5.66,19.27,19.27,0,0,1-1.91,2.06c-6.75,6.76-13.48,13.53-20.28,20.24a2.81,2.81,0,0,0-.83,3.41c1.93,5.92.57,11.21-4,15.37a13.64,13.64,0,0,1-15.71,2.45C143.72,150.73,141,146.06,140.72,139.43Zm14.58-4.5a5.11,5.11,0,0,0-5.1,5.27,5.17,5.17,0,0,0,10.34-.14A5.12,5.12,0,0,0,155.3,134.94Z"/><path class="cls-1" d="M160.08,92c0,.78,0,1.56,0,2.33a4.66,4.66,0,0,1-9.31.23,29.88,29.88,0,0,1,0-4.9,4.67,4.67,0,0,1,9.33.24C160.12,90.56,160.09,91.26,160.08,92Z"/><path class="cls-1" d="M203.47,144.94a22.46,22.46,0,0,1-3.46-.36,4.63,4.63,0,0,1,.9-9.09c1.47-.1,3-.07,4.44,0,2.85.08,4.87,2,4.94,4.54a4.8,4.8,0,0,1-4.71,4.82c-.7.05-1.4,0-2.1,0Z"/><path class="cls-1" d="M160.16,188.14a22.81,22.81,0,0,1-.5,3.67,4.47,4.47,0,0,1-4.88,3.13,4.58,4.58,0,0,1-4.09-4.14,40.31,40.31,0,0,1,0-4.9,4.66,4.66,0,0,1,9.31-.34,21.93,21.93,0,0,1,0,2.56Z"/><path class="cls-1" d="M107.52,135.31c.86,0,1.73,0,2.58.13a4.45,4.45,0,0,1,4,4.2,4.29,4.29,0,0,1-3.5,4.83,24.72,24.72,0,0,1-6.07.12,4.53,4.53,0,0,1-4.09-4.66,4.63,4.63,0,0,1,4.49-4.53c.85-.07,1.72,0,2.58,0Z"/></svg>