<svg id="Camada_1" data-name="Camada 1" xmlns="http://www.w3.org/2000/svg" xmlns:xlink="http://www.w3.org/1999/xlink" viewBox="0 0 329 274"><defs><style>.cls-1{fill:url(#linear-gradient);}.cls-2{fill:url(#linear-gradient-2);}.cls-3{fill:url(#linear-gradient-3);}</style><linearGradient id="linear-gradient" x1="36.83" y1="133.51" x2="308" y2="133.51" gradientUnits="userSpaceOnUse"><stop offset="0" stop-color="#94c732"/><stop offset="1" stop-color="#34631c"/></linearGradient><linearGradient id="linear-gradient-2" x1="101.17" y1="94.44" x2="165.56" y2="94.44" xlink:href="#linear-gradient"/><linearGradient id="linear-gradient-3" x1="234.14" y1="109.3" x2="262.62" y2="109.3" xlink:href="#linear-gradient"/></defs><title>Prancheta 1 cópia 7</title><path class="cls-1" d="M36.83,113.87v-9.07a4.15,4.15,0,0,0,.24-.79c.14-1.39.25-2.79.37-4.19a99,99,0,0,1,3.81-19.75A101.59,101.59,0,0,1,69,35.08,99.71,99.71,0,0,1,99.92,14.63a97.45,97.45,0,0,1,37-7.23,8.56,8.56,0,0,0,1.14-.16h2.16a7,7,0,0,0,1,.16,104.67,104.67,0,0,1,19.5,2,93.91,93.91,0,0,1,48.82,25.86,123.49,123.49,0,0,1,18,22.78c1.39,2.23,1.77,2.36,4.21,1.55a50.54,50.54,0,0,1,26.7-1.73c17.14,3.64,29.7,13.36,37.32,29.16a50.35,50.35,0,0,1,4.2,31.54A51.62,51.62,0,0,1,284.9,146.9a50.74,50.74,0,0,1-32.33,14.62,54.37,54.37,0,0,1-22.29-3c-.36-.13-.73-.23-1.13-.35-1.9,3.11-3.8,6.13-5.74,9.38h11.12v6.14h73.2s.06,0,.08.06l.08.07c.2,2.2.11,78.78-.12,79.65H237.45c-.43,0-.86,0-1.29,0-1.12.08-1.48.4-1.56,1.51-.06.86,0,1.73,0,2.59,0,.67,0,1.34,0,2.13H223.21a13.63,13.63,0,0,1-3.75-.32,4.88,4.88,0,0,0-1.5,0c-.32,0-.64.11-1,.11h-39a6.79,6.79,0,0,1-.8-.1v-5.95H103.74c0-.53,0-1,0-1.37q0-22.12,0-44.24c0-2.21-.43-2.86-2.42-3.7-.93-.39-1.86-.78-2.78-1.18Q63,187.32,46.41,152.11a98.87,98.87,0,0,1-9.2-36A20.18,20.18,0,0,0,36.83,113.87Zm22.32-1.3a79.13,79.13,0,0,0,3.65,21.25A77.88,77.88,0,0,0,72,153a81.38,81.38,0,0,0,14,16.22c5.28,4.68,15.57,11.47,17.87,11.73v-7.11c.36,0,.6-.08.85-.08l28.05,0a11.56,11.56,0,0,0,1.83-.09,1.57,1.57,0,0,0,1.51-1.66,7.35,7.35,0,0,0,0-.75q0-5.45,0-10.9c0-.31,0-.62.06-.92a31.24,31.24,0,0,1,6.37.1v13.95c1.87.21,34,.13,34.9-.1v-5.85h9.9l5.18,0a4.4,4.4,0,0,0,3.26-1.39,83.74,83.74,0,0,0,13.83-18.26c1.1-2,1.08-2.16-.43-3.87a51.27,51.27,0,0,1-10.56-18.38,70.17,70.17,0,0,1-2.25-10.09c-.17-1.05-.38-2.1-.57-3.18-2.18,0-4.25,0-6.31,0v-6.28h6.38c.11-.5.22-.88.27-1.27.15-1,.26-2.07.41-3.1a51.88,51.88,0,0,1,12.9-27.52c1.16-1.29,1.24-1.68.36-3.14-1.49-2.46-3-4.94-4.59-7.3a77.7,77.7,0,0,0-31.33-26.84,84.2,84.2,0,0,0-28.26-7.65c-1-.09-2.05-.23-3.2-.37V50.45q0,2.16,0,4.32c0,1.42,0,2.85,0,4.28H136V57.73q0-13.54,0-27.09c0-.41,0-.83,0-1.26a69.59,69.59,0,0,0-17.52,2.35C95.85,37.68,77,54,67,74.24a73.59,73.59,0,0,0-7.47,26.84c-.13,1.64-.15,3.28-.22,5.05H88.9a1.23,1.23,0,0,1,.11.22c.07,1.11.14,2.22.21,3.34.15,2.24-.26,2.67-2.51,2.67q-11.82,0-23.63,0C61.79,112.42,60.51,112.52,59.15,112.57Zm235.24-2.94A44.78,44.78,0,0,0,292,94.38C287.68,81.93,279.39,73,267.5,67.5a44.06,44.06,0,0,0-28.31-3.37c-13,2.76-23,10-30.05,21.23a44.46,44.46,0,0,0-6.72,21.16,32.78,32.78,0,0,0,.43,9.35c.54,2.4.5,4.93,1.56,7.24a14.07,14.07,0,0,1,.72,1.57c.55,1.75,1,3.51,1.47,5.29a3.21,3.21,0,0,0,1,2.06,2.3,2.3,0,0,1,.67,1,12.73,12.73,0,0,0,2.91,3.93c1.69,1.82,3.39,3.62,5.18,5.35,7.71,7.43,16.78,12,27.55,12.89a47.38,47.38,0,0,0,19.56-2.33A45.76,45.76,0,0,0,294.38,109.64ZM183.9,253.29h1.3c7.47-.12,14.94.13,22.41-.15,6.39-.24,12.8,0,19.21-.05,1.26,0,1.59-.28,1.73-1.52a12.72,12.72,0,0,0,0-1.72c-.09-2.8-.26-5.61-.27-8.41q-.07-18-.07-35.93,0-15.05,0-30.11c0-.42,0-.83,0-1.25H183.9ZM103.76,198c0-2.75,0-5.27,0-7.78,0-.18,0-.36,0-.54a2.19,2.19,0,0,0-1-1.72,9.4,9.4,0,0,0-1.22-.68A86.15,86.15,0,0,1,71,162.66a85.19,85.19,0,0,1-18.21-46.84A83.88,83.88,0,0,1,54,93.8a92,92,0,0,1,9-25.53A81.16,81.16,0,0,1,85.3,41c14.18-11,30.42-16.59,48.13-18.2a77.68,77.68,0,0,1,22.44,1.31,85.77,85.77,0,0,1,48.71,28.25,99,99,0,0,1,10,14c.33.55.68,1.09,1.08,1.72l7.35-5c-.29-.55-.51-1-.74-1.36a95.5,95.5,0,0,0-78-48.23A95.89,95.89,0,0,0,43.9,118.87a92.89,92.89,0,0,0,4.28,20.32,95.85,95.85,0,0,0,24.76,39.19,88.51,88.51,0,0,0,26.4,17.83C100.73,196.8,102.13,197.33,103.76,198Zm197.89-3.17h-67c0,.3-.06.54-.06.78,0,1.87,0,3.74,0,5.61,0,1.3.41,1.77,1.71,1.84,1.08.06,2.16,0,3.23,0L273,203h28.59c0-.39,0-.63,0-.88C301.66,199.75,301.66,197.35,301.66,194.82ZM177.29,224.48c-1.31-.22-66.22-.17-67,0v7.93c.55,0,1,.11,1.53.11l18.88,0,40.45,0c1.51,0,3,0,4.53,0a1.43,1.43,0,0,0,1.61-1.48C177.31,228.93,177.29,226.74,177.29,224.48Zm-67-29.67a49.73,49.73,0,0,0,.1,8.08h66.67v-8.08Zm124.45,37.7h66.73a50.19,50.19,0,0,0-.07-8.08H234.75Zm66.87-22.8c-1.29-.24-66.05-.19-66.82,0v7.82c1.42.21,66,.16,66.82-.06Zm-124.53,0H110.25v8h66.84Zm-66.78,37.2c1.27.23,66,.18,66.75,0v-7.61c-1.22-.25-66-.19-66.75,0ZM301.68,239h-1.36c-10.57,0-21.15,0-31.72,0q-16.39,0-32.78.14c-.35,0-.69,0-1.13.07,0,2.37,0,4.67,0,7,0,.66.27.83,1,.87.29,0,.58,0,.86,0l16.72,0h46.18a4.79,4.79,0,0,0,1.38-.17c.44-.14.87-.39.87-1C301.68,243.71,301.68,241.45,301.68,239ZM177.06,180.36H110.29v7.71h66.77Zm57.7,7.71c2.46.22,66,.12,66.83-.09a46.58,46.58,0,0,0-.1-7.59c-2.16-.21-65.93-.11-66.73.11ZM204,167.41c.13.12.16.16.18.16,3.27,0,6.54,0,9.81,0a2.39,2.39,0,0,0,2.05-1.19c1.39-2.1,2.83-4.16,4.24-6.25,1-1.48,2-3,3-4.56l-7.48-5Z"/><path class="cls-2" d="M165.56,106.09v6.25c-.5,0-1,.09-1.48.09l-8.19,0c-.4,0-.79,0-1.19,0a3,3,0,0,0-2.62,1.63c-.24.44-.44.91-.65,1.36a13.53,13.53,0,0,1-14.15,7.52,13.71,13.71,0,0,1-11.56-11.25,12.76,12.76,0,0,1,1.21-8.27,3.25,3.25,0,0,0-.55-4.11q-11.6-13.36-23.13-26.77c-.7-.81-1.37-1.64-2.09-2.5L106,65.85c.29.33.56.6.81.89l24.59,28.51.42.49a2.2,2.2,0,0,0,2.69.71,14,14,0,0,1,6.36-.78,13.19,13.19,0,0,1,10.45,7.25,14,14,0,0,1,.72,1.56,2.4,2.4,0,0,0,2.5,1.64c3.24,0,6.47,0,9.71,0Zm-19.05,3.16a7.27,7.27,0,1,0-14.53.11,7.27,7.27,0,0,0,14.53-.11Z"/><path class="cls-3" d="M234.24,119.31h5.83l.4.91c1.89,4.3,5.51,6.09,10.1,5a7.61,7.61,0,0,0,4.31-2.48,5.29,5.29,0,0,0,0-7.1,7.38,7.38,0,0,0-5-2.63c-1.39-.17-2.8-.2-4.18-.44a13.81,13.81,0,0,1-10-6.77,12,12,0,0,1,3.49-15.57,15.5,15.5,0,0,1,3.91-2c1.88-.68,2.28-1.33,2.14-3.31a64.52,64.52,0,0,1,0-7h6.45c0,1.13,0,2.2,0,3.27q0,2.1-.07,4.21c0,1.75.32,2.3,2,2.85a12.77,12.77,0,0,1,7,5.27,11.84,11.84,0,0,1,1.89,6,2,2,0,0,1-.09.4c-.84,0-1.69.06-2.55.07-.57,0-1.16-.08-1.72,0A1.94,1.94,0,0,1,256,98.5a8.34,8.34,0,0,0-8.29-4.87,7.58,7.58,0,0,0-6.29,3.61,4.91,4.91,0,0,0,1.87,7.35,14.68,14.68,0,0,0,5.73,1.75,17.71,17.71,0,0,1,5.54,1.28,12.92,12.92,0,0,1,7.65,8.52A11.91,11.91,0,0,1,257.58,129a34.07,34.07,0,0,1-3.61,1.9c-.25.13-.54.19-.81.3a2.18,2.18,0,0,0-1.57,2.41q0,3,0,6c0,.35,0,.7-.05,1.09H245.3c0-.95-.08-1.84-.08-2.73,0-1.29,0-2.59,0-3.88,0-2-.23-2.41-2.18-3.16a19.65,19.65,0,0,1-2.92-1.36,12.12,12.12,0,0,1-5.8-8.2A13.1,13.1,0,0,1,234.24,119.31Z"/></svg>