<svg id="Camada_1" data-name="Camada 1" xmlns="http://www.w3.org/2000/svg" viewBox="0 0 196 196"><title>torre</title><path d="M87.69,186.71c-1.88-1.48-2-3.36-1.48-5.54,7.27-31.35,14.15-62.79,22-94,2.37-9.47.25-18.69,1.69-27.9-3.67-1.27-6.18-3.16-6.55-7a7.35,7.35,0,0,1,5.48-8.08,7.46,7.46,0,0,1,8.85,4.14c1.52,3.37.51,7.59-2.76,9.34-2.07,1.11-2.33,2.48-2.3,4.46.09,7.21-.65,14.52.29,21.61s3.74,13.8,5.38,20.76c6,25.4,11.81,50.84,17.75,76.26.55,2.36.7,4.4-1.6,5.89H132.7l-4.33-7.86a15.68,15.68,0,0,0-1.84.11c-10.34,1.48-20.67,3.05-31,4.41a7.09,7.09,0,0,0-5.57,3.34Zm39.89-9.4.23-.59-32.58-7.44-3,13.11Zm.85-2-3.28-13.93-28.78,5.93,0,.67ZM96,165.79l28-5.79-.08-.69-25-6.2Zm3.79-14.71-.09.63,24.67,6.11-3-12.77Zm0-1.61,20.86-5.83-.07-.63-18-5.42Zm11.59-47.77-.53-.06c-1.33,5.72-2.72,11.42-3.94,17.16a2.9,2.9,0,0,0,.86,2.5c2.85,1.74,5.85,3.22,9.3,5.07Zm-8.6,33.36.13,1,17.65,5.32-2.64-11.16C112.69,132.09,107.48,132.82,102.81,135.07Zm3.28-12.85-2.34,10.6L118,128.66Z"/><path d="M50,51.11a35.79,35.79,0,0,1,7.09-16.52A45.53,45.53,0,0,1,77.26,20.39C68.24,29.7,63,40.65,63,53.69s5.08,23.92,14,33.31a42.53,42.53,0,0,1-15.72-9.43A35.49,35.49,0,0,1,50,56.74Z"/><path d="M171.52,56.74c-1.16,6-3.24,11.68-7.21,16.51A44.3,44.3,0,0,1,144.61,87c8.85-9.41,14-20.35,13.93-33.33s-5.23-24-15-33.69a48.07,48.07,0,0,1,16.69,10,35.44,35.44,0,0,1,11.27,21.06Z"/><path d="M90.66,29.88c-12.08,14.5-12.12,33.3-.42,47.42C81.78,75.17,74.16,65,73.35,54.74,72.59,45,79.78,34.47,90.66,29.88Z"/><path d="M131.27,30.23c9.32,3,16.83,13.45,17,23.5.13,9.83-7.36,20.36-17,23.71Q149,53.72,131.27,30.23Z"/><path d="M41.17,183.17a2.1,2.1,0,0,1-.64-2.39c3.13-13.51,6.1-27.06,9.46-40.51,1-4.08.11-8.06.73-12-1.58-.55-2.66-1.36-2.82-3a3.17,3.17,0,0,1,2.36-3.48,3.21,3.21,0,0,1,3.82,1.78,3.1,3.1,0,0,1-1.19,4,1.78,1.78,0,0,0-1,1.92c0,3.11-.28,6.26.13,9.32s1.61,5.95,2.32,8.95c2.58,10.95,5.09,21.91,7.65,32.87.24,1,.3,1.9-.69,2.54h-.73l-1.86-3.39a6.76,6.76,0,0,0-.8,0c-4.46.64-8.91,1.32-13.37,1.9a3.05,3.05,0,0,0-2.4,1.44Zm17.19-4.05.1-.25-14-3.21-1.3,5.65Zm.37-.87-1.41-6-12.4,2.55v.29Zm-14-4.09,12.08-2.5,0-.3L46,168.69Zm1.63-6.34,0,.27L57,170.72l-1.3-5.5Zm0-.69,9-2.51,0-.27L47.59,162Zm5-20.59-.23,0c-.58,2.46-1.17,4.92-1.7,7.4a1.25,1.25,0,0,0,.37,1.08c1.23.75,2.52,1.39,4,2.19Zm-3.71,14.38.05.43,7.61,2.29-1.14-4.81C52,159.63,49.7,159.94,47.69,160.91Zm1.41-5.54-1,4.57,6.15-1.79Z"/><path d="M24.93,124.72A15.43,15.43,0,0,1,28,117.6a19.63,19.63,0,0,1,8.7-6.12,20,20,0,0,0-.14,28.71,18.33,18.33,0,0,1-6.77-4.06,15.3,15.3,0,0,1-4.83-9Z"/><path d="M77.31,127.15a15.46,15.46,0,0,1-3.11,7.12,19.1,19.1,0,0,1-8.49,5.94,20.3,20.3,0,0,0,6-14.37c0-5.61-2.25-10.33-6.46-14.52a20.72,20.72,0,0,1,7.19,4.33,15.28,15.28,0,0,1,4.86,9.08Z"/><path d="M42.46,115.57c-5.21,6.25-5.23,14.35-.18,20.44-3.64-.92-6.93-5.31-7.28-9.72C34.67,122.1,37.76,117.55,42.46,115.57Z"/><path d="M60,115.72a10.73,10.73,0,0,1,0,20.35Q67.59,125.85,60,115.72Z"/><path d="M152.12,145.15a1.13,1.13,0,0,1-.34-1.28c1.68-7.26,3.28-14.53,5.08-21.76.55-2.19.06-4.33.39-6.46-.85-.29-1.43-.73-1.52-1.61a1.7,1.7,0,0,1,1.27-1.87,1.73,1.73,0,0,1,2,1,1.67,1.67,0,0,1-.64,2.16,1,1,0,0,0-.53,1,42.05,42.05,0,0,0,.07,5c.22,1.63.86,3.19,1.24,4.8,1.39,5.88,2.73,11.77,4.11,17.65.13.55.16,1-.37,1.36h-.39l-1-1.82a3.63,3.63,0,0,0-.43,0c-2.39.34-4.78.71-7.18,1a1.64,1.64,0,0,0-1.29.77Zm9.23-2.18.05-.14-7.54-1.72-.7,3Zm.2-.47-.76-3.22-6.66,1.37v.16Zm-7.5-2.2,6.49-1.34,0-.16-5.79-1.43Zm.88-3.4,0,.15,5.71,1.41-.7-3Zm0-.37,4.83-1.35,0-.15-4.18-1.25Zm2.68-11.06h-.12c-.31,1.32-.63,2.64-.91,4a.67.67,0,0,0,.2.58c.66.4,1.35.75,2.15,1.17Zm-2,7.72,0,.23,4.08,1.23-.61-2.58A35.06,35.06,0,0,0,155.62,133.2Zm.76-3-.54,2.45,3.3-1Z"/><path d="M143.39,113.77a8.29,8.29,0,0,1,1.64-3.82,10.54,10.54,0,0,1,4.67-3.29,10.73,10.73,0,0,0-.08,15.42,9.84,9.84,0,0,1-3.64-2.18,8.22,8.22,0,0,1-2.6-4.82Z"/><path d="M171.52,115.07a8.3,8.3,0,0,1-1.67,3.82,10.26,10.26,0,0,1-4.56,3.19,10.9,10.9,0,0,0,3.22-7.72,10.73,10.73,0,0,0-3.47-7.8,11.13,11.13,0,0,1,3.86,2.33,8.2,8.2,0,0,1,2.61,4.88Z"/><path d="M152.81,108.85a8.33,8.33,0,0,0-.1,11c-2-.49-3.72-2.85-3.91-5.22S150.29,109.91,152.81,108.85Z"/><path d="M162.21,108.93a5.77,5.77,0,0,1,0,10.93Q166.3,114.37,162.21,108.93Z"/></svg>