<svg id="Camada_1" data-name="Camada 1" xmlns="http://www.w3.org/2000/svg" xmlns:xlink="http://www.w3.org/1999/xlink" viewBox="0 0 329 274"><defs><style>.cls-1{fill:url(#linear-gradient);}.cls-2{fill:url(#linear-gradient-2);}.cls-3{fill:url(#linear-gradient-3);}</style><linearGradient id="linear-gradient" x1="174.26" y1="144.12" x2="314" y2="144.12" gradientUnits="userSpaceOnUse"><stop offset="0" stop-color="#94c732"/><stop offset="1" stop-color="#34631c"/></linearGradient><linearGradient id="linear-gradient-2" x1="16" y1="144.14" x2="155.75" y2="144.14" xlink:href="#linear-gradient"/><linearGradient id="linear-gradient-3" x1="118.35" y1="144.2" x2="241.63" y2="144.2" xlink:href="#linear-gradient"/></defs><title>Prancheta 1 cópia 6</title><path class="cls-1" d="M314,237.26H178.72c-4.41,0-4.41,0-4.41-4.42,0-22.11.05-44.22,0-66.33,0-2.82.58-4,3.67-3.81a107.73,107.73,0,0,0,11.92,0c2.44-.1,3.14.78,3.13,3.16-.08,16.29,0,32.58,0,48.88,0,3.86,0,3.88,3.77,3.88h94.55c4.09,0,4.11,0,4.11-4.16q0-56.44,0-112.88c0-4,0-4-3.92-4-7,0-14-.09-20.95,0-2.46,0-3.15-.83-3.11-3.19.12-7.27,0-14.55.08-21.82,0-2.27-.72-3-3-3q-34.33.1-68.66,0c-2.41,0-2.91.92-2.9,3.08.06,16.39,0,32.78.09,49.17,0,3-.85,3.91-3.77,3.73a95.06,95.06,0,0,0-11.34,0c-2.78.16-3.65-.71-3.64-3.55.12-17.84.06-35.69.06-53.53,0-4.85.07-9.7,0-14.55,0-2,.44-3,2.73-3q44.22.09,88.44,0c1.92,0,3,1.05,4.18,2.22Q290.31,73.88,311,94.53c.82.82,1.4,2.22,3,1.88Z"/><path class="cls-2" d="M16,51h89.92c1.76,0,3.34.06,4.77,1.5q21.21,21.36,42.57,42.56a7.68,7.68,0,0,1,2.48,6.14c-.14,7-.16,14,0,21,.07,2.74-.9,3.52-3.51,3.41-4.16-.18-8.34-.12-12.51,0-2,0-2.72-.67-2.7-2.69.08-7.27-.06-14.55.08-21.82,0-2.58-.63-3.57-3.39-3.5-7.08.18-14.16-.06-21.24.11-2.74.07-3.46-.89-3.4-3.49.15-7.18,0-14.36.09-21.53,0-2.25-.66-3-3-3q-34.19.1-68.39,0c-2.66,0-3.23.94-3.22,3.38q.09,71.15,0,142.3c0,2.7.84,3.42,3.47,3.41q47.87-.11,95.74,0c2.84,0,3.34-1.06,3.32-3.56-.09-16.1,0-32.2,0-48.31,0-4.08,0-4.08,4.18-4.07,4,0,8,.07,11.93,0,1.88,0,2.54.68,2.53,2.55q-.06,34.78,0,69.55c0,2.59-1.52,2.42-3.23,2.42H16Z"/><path class="cls-3" d="M164.26,134.82q20.8,0,41.6,0c1.12,0,2.76.58,3.24-.44.59-1.25-1-2.1-1.76-3q-3-3.75-6.14-7.38c-1-1.19-1.08-2,.23-3.09,3.7-3,7.34-6,11-9.12,1.2-1,2.1-1,3.15.25q12.62,15.23,25.33,30.4c1.09,1.3.95,2.34-.09,3.58q-12.7,15.17-25.32,30.41c-1,1.26-1.85,1.35-3.09.28-3.61-3.09-7.24-6.16-11-9.11-1.49-1.19-1.22-2.06-.14-3.3,2.36-2.7,4.62-5.49,6.9-8.26.48-.58,1.36-1.17,1.06-1.94-.39-1-1.52-.57-2.32-.57q-28.66,0-57.31,0c-9.41,0-18.81-.07-28.22,0-2.3,0-3.06-.75-3-3,.14-4.07.21-8.16,0-12.21-.17-3,1.05-3.52,3.71-3.5C136.14,134.88,150.2,134.82,164.26,134.82Z"/></svg>