<svg id="Camada_1" data-name="Camada 1" xmlns="http://www.w3.org/2000/svg" xmlns:xlink="http://www.w3.org/1999/xlink" viewBox="0 0 329 274"><defs><style>.cls-1{fill:url(#linear-gradient);}.cls-2{fill:url(#linear-gradient-2);}.cls-3{fill:url(#linear-gradient-3);}.cls-4{fill:url(#linear-gradient-4);}.cls-5{fill:url(#linear-gradient-5);}.cls-6{fill:url(#linear-gradient-6);}.cls-7{fill:url(#linear-gradient-7);}.cls-8{fill:url(#linear-gradient-8);}.cls-9{fill:url(#linear-gradient-9);}.cls-10{fill:url(#linear-gradient-10);}</style><linearGradient id="linear-gradient" x1="226.13" y1="153.89" x2="287" y2="153.89" gradientUnits="userSpaceOnUse"><stop offset="0" stop-color="#94c732"/><stop offset="1" stop-color="#34631c"/></linearGradient><linearGradient id="linear-gradient-2" x1="41.38" y1="154.66" x2="102.13" y2="154.66" xlink:href="#linear-gradient"/><linearGradient id="linear-gradient-3" x1="79.29" y1="199.55" x2="235.74" y2="199.55" xlink:href="#linear-gradient"/><linearGradient id="linear-gradient-4" x1="120.93" y1="169.76" x2="249.03" y2="169.76" xlink:href="#linear-gradient"/><linearGradient id="linear-gradient-5" x1="91.25" y1="77.83" x2="237.71" y2="77.83" xlink:href="#linear-gradient"/><linearGradient id="linear-gradient-6" x1="133.04" y1="91.97" x2="206.89" y2="91.97" xlink:href="#linear-gradient"/><linearGradient id="linear-gradient-7" x1="103" y1="220.49" x2="131.37" y2="220.49" xlink:href="#linear-gradient"/><linearGradient id="linear-gradient-8" x1="118.12" y1="234.45" x2="142.38" y2="234.45" xlink:href="#linear-gradient"/><linearGradient id="linear-gradient-9" x1="136.63" y1="248.92" x2="154.67" y2="248.92" xlink:href="#linear-gradient"/><linearGradient id="linear-gradient-10" x1="86.67" y1="215.77" x2="104.55" y2="215.77" xlink:href="#linear-gradient"/></defs><title>Prancheta 1 cópia 2</title><path class="cls-1" d="M287,174.18c-7.76,4.59-15.49,9.24-23.31,13.75-4.9,2.82-8.84,1.79-11.69-3.27q-12.06-21.44-24.24-42.81c-3.07-5.37-1.8-9.16,3.55-12s10.78-6.14,16.23-9.1c7.32-4,9.85-3.27,13.95,3.82q12.79,22.13,25.51,44.3Zm-26.92-.61c-2,2.59-4.18,4.22-4.05,5.64s2.42,2.91,3.77,4.36c1.45-1.37,3.83-2.6,4.08-4.16C264.1,178,261.95,176.27,260.08,173.57Z"/><path class="cls-2" d="M41.38,168.84c8.12-14,16.28-27.9,24.33-41.9,5.35-9.29,7.37-9.91,16.81-4.64,5,2.81,10.12,5.54,15.1,8.46,4.61,2.7,5.77,6.57,3.12,11.29-8.16,14.5-16.38,29-24.56,43.44-2.11,3.74-5.43,6.17-9.31,4.06-8.71-4.73-17-10.21-25.48-15.38Q41.38,171.51,41.38,168.84ZM74.21,180c-2.73-1.94-4.44-4.08-5.86-3.91s-2.86,2.51-4.28,3.9c1.42,1.36,2.73,3.64,4.28,3.82S71.48,181.9,74.21,180Z"/><path class="cls-3" d="M167.07,239.65l21.06,11.6c-2.9,6-7.61,8-13.69,6.45-3.42-.86-6.65-2.48-9.93-3.83s-5.37-2.46-4.82-7.14c.76-6.46-3.6-10.27-12.08-12.67.09-12.56-1.68-15.23-12.59-18.5.84-7.19-.2-13.84-8.44-16.37s-12.73,2.91-16.89,9.62c-4.33-6.84-9.6-8.73-17.55-7.93-3.92.39-8.82-5.6-12.59-9.38-.87-.87.6-4.76,1.73-6.86,7.84-14.44,15.88-28.77,24.19-43.75l25.41,7.77c-4.24,6.25-8.62,11.55-11.62,17.53-1.78,3.54-3.17,9.3-1.47,12s7.91,4.69,11.37,3.83c5.68-1.4,11.87-4.25,15.86-8.4,13.4-13.93,13.42-14.81,29.85-4.48,19,11.92,37.32,24.87,55.78,37.6,3.42,2.36,6.74,5.55,4.17,10.63s-6.56,6.21-12.35,2.92c-10-5.72-19.83-11.86-29.87-17.58-1.53-.87-3.79-.46-5.72-.64,1.11,1.57,1.88,3.71,3.38,4.62,8.37,5,16.8,10,25.46,14.54,4.83,2.53,5.77,5.88,3.6,10.34s-5.7,5.26-10,2.92c-8.59-4.67-17.12-9.45-25.81-13.94-1.65-.85-3.9-.57-5.87-.8,1,1.63,1.7,3.83,3.18,4.8,6.31,4.15,12.79,8,19.34,11.8,2.81,1.61,5.92,2.77,4,6.87-1.74,3.73-4.32,6.56-8.87,4.68-7.38-3.05-14.6-6.48-21.95-9.61a31.28,31.28,0,0,0-5.45-1.27Z"/><path class="cls-4" d="M225.21,144c7.28,13.14,15.52,27.86,23.51,42.73.69,1.28.15,3.73-.65,5.17a21.3,21.3,0,0,1-4.43,4.93c-7.65,7.08-7.93,6.57-16.51.75-19.3-13.08-39-25.54-58.49-38.36-5.65-3.72-11-3.23-16,.87-4.08,3.39-7.27,7.94-11.59,10.9a44.38,44.38,0,0,1-14.6,6.64c-4.42,1-7.14-2.31-4.48-6.54,5.92-9.38,12.2-18.56,19-27.33,1.74-2.25,5.79-3.38,8.92-3.76,17.59-2.09,35.09-5.21,52.66,1.69C208.77,144.16,216.32,143.22,225.21,144Z"/><path class="cls-5" d="M91.32,44.23c27.56.25,52.95-2.31,72.83-22.73,20,20.47,45.37,23,73.57,22.71-1.22,12-1.74,23.65-3.72,35.06-2.84,16.36-10,31.15-17.94,45.69-4.16,7.64-9.27,10.81-18.57,8.1,16.2-23.19,27.83-48.1,28.31-77.64-22.13-1.3-43.26-4.75-61.52-18.92-18,13.72-39.14,17.82-61,18.78-2.68,18.19,5.81,42.19,27.12,77.4-9.32,2.82-11.89,1.95-16.72-5.75C100.33,105.6,92.5,82.5,91.34,57.27,91.15,53.11,91.32,48.94,91.32,44.23Z"/><path class="cls-6" d="M133,96.87c6.84-8.08,9-8.33,16.13-2.4,3.41,2.84,6.82,5.69,10.25,8.5a9.22,9.22,0,0,0,2,.71l43.41-43,2,1.62a37.35,37.35,0,0,1-2.44,4.59c-11.92,16.6-23.8,33.22-35.88,49.7-6.37,8.68-7.44,8.65-15.14,1C146.55,110.71,139.79,103.74,133,96.87Z"/><path class="cls-7" d="M131.37,210.07a63.54,63.54,0,0,1-3.08,6.12c-3.54,5.35-7.23,10.6-10.84,15.91-2.87,4.23-6.54,6.34-11.17,3.08-4.23-3-4-7-1.24-11,4-5.83,7.64-12,12.24-17.33,1.7-2,5.87-2.94,8.59-2.47C127.95,204.68,129.52,208,131.37,210.07Z"/><path class="cls-8" d="M118.12,240.18c5.27-6.61,9.75-12.81,15-18.27,1-1,5.9.12,7.42,1.75s2.41,5.75,1.43,7.7a63.94,63.94,0,0,1-9.76,14.22c-1.48,1.62-5.49,2.22-7.76,1.48S120.84,243.31,118.12,240.18Z"/><path class="cls-9" d="M149.63,238.45c1.74,2.8,4.52,5.43,5,8.43.76,4.86-6.57,12.82-10.74,12.51-4.65-.34-7.32-3.12-7.25-7.8C136.71,246.53,143.72,239.32,149.63,238.45Z"/><path class="cls-10" d="M92.06,226.22c-1.86-2.75-4.82-5.3-5.32-8.28-.87-5.14,6.18-12.85,10.66-12.61s7,2.75,7.15,7.22C104.73,217.56,98,225.2,92.06,226.22Z"/></svg>