<svg id="Camada_1" data-name="Camada 1" xmlns="http://www.w3.org/2000/svg" viewBox="0 0 60 52"><defs><style>.cls-1{fill:#ff8400;}</style></defs><title>CARTEIRA</title><path class="cls-1" d="M51.39,42.06a16.58,16.58,0,0,1-.12,2.23,3.91,3.91,0,0,1-4,3.19c-3.58,0-7.15,0-10.73,0H9.36a4,4,0,0,1-4.19-3.09,5.93,5.93,0,0,1-.11-1.33q0-11.94,0-23.88c0-2.78,1.63-4.39,4.42-4.39H37.06c.21,0,.41,0,.67,0A10.76,10.76,0,0,0,42,23.4a10.55,10.55,0,0,0,9.32,2v3.07h-.67c-3.45,0-6.9,0-10.34,0a6.68,6.68,0,0,0-6.58,5.81,6.75,6.75,0,0,0,4.68,7.5,8.37,8.37,0,0,0,2.26.31c3.28,0,6.56,0,9.83,0Z"/><path class="cls-1" d="M48.63,23a8.17,8.17,0,1,1,8.19-8.13A8.18,8.18,0,0,1,48.63,23ZM50,14l.4.35a1.31,1.31,0,0,0,1.93,0,1.3,1.3,0,0,0-.08-1.93Q51,11.13,49.69,9.86a1.35,1.35,0,0,0-1.94-.15c-1,.93-1.91,1.88-2.84,2.84a1.26,1.26,0,0,0,0,1.79,1.32,1.32,0,0,0,1.79.17l.55-.43c0,.32,0,.53,0,.73,0,1.28,0,2.55,0,3.83a1.3,1.3,0,0,0,1,1.43A1.34,1.34,0,0,0,50,18.65C50,17.17,50,15.68,50,14Z"/><path class="cls-1" d="M51.33,31.17v8.1a2.35,2.35,0,0,1-.32,0c-3.57,0-7.14,0-10.72,0a3.91,3.91,0,0,1-3.88-3.52,4,4,0,0,1,3.94-4.63c3.53,0,7.06,0,10.59,0Zm-11,2.72A1.29,1.29,0,0,0,39,35.2a1.39,1.39,0,0,0,1.36,1.39,1.3,1.3,0,0,0,1.38-1.34A1.28,1.28,0,0,0,40.36,33.89Z"/></svg>