<svg id="Camada_1" data-name="Camada 1" xmlns="http://www.w3.org/2000/svg" viewBox="0 0 260 239"><defs><style>.cls-1{fill:#faad17;}</style></defs><title>CARTEIRA 3</title><path class="cls-1" d="M219.29,104.53c8.09,1.09,12.61,4.58,14.16,10.9a20.09,20.09,0,0,1,.42,4.69c0,12-.3,24,.12,35.91.36,10.34-5.2,16.41-14.69,17.51v2.64q0,13.47,0,26.93a25.1,25.1,0,0,1-25.43,25.46q-66.59,0-133.17,0c-14.21,0-25.29-10.75-25.32-25q-.15-67.46,0-134.92c0-14,11.11-24.78,25.16-24.87,6.82,0,13.63-.06,20.45,0,1.69,0,2.39-.48,2.94-2.16,5.85-17.81,18.16-28.48,36.54-31.62,21.86-3.73,43.28,9.7,49.92,30.94.71,2.26,1.68,2.91,4,2.86,6.48-.16,13-.08,19.45-.05,14.52.06,25.49,11.1,25.49,25.64q0,16.09,0,32.17ZM47,214.47a17.72,17.72,0,0,0,14.27,6.47q65.85,0,131.69,0c11,0,18.5-7.48,18.53-18.44q0-13.09,0-26.19v-3h-3.23c-14.55,0-29.1-.07-43.65,0-9.05.06-15.57-7.23-15.14-15a156.91,156.91,0,0,0,0-18.7c-.55-8.64,6.46-15.64,15.65-15.52,14.38.18,28.77,0,43.15,0h3.22v-3c0-8.73-.24-17.47.06-26.19.39-11.41-8.4-19.28-19.11-19.21-43.56.27-87.13.12-130.7.1-6.12,0-12.09-.82-17.53-3.93a3.67,3.67,0,0,0-1-.18c0,2.16.1,4.16,0,6.14-.17,2.61-.05,4.74,3.41,5,.66.05,1.66,1.8,1.62,2.74,0,.67-1.42,1.48-2.36,1.88a7.22,7.22,0,0,1-2.65-.06v2.83q0,56.49,0,113c0,.75,0,1.5,0,2.24a2.42,2.42,0,0,0,2.07,2.62c1.22.35,2.8,1.19,3.17,2.19S47.7,212.72,47,214.47Zm178.64-82.3h-9.37q-25.31,0-50.63,0c-5.64,0-8,2.43-8,8.05s0,11.31,0,17c0,5.81,2.31,8.13,8.15,8.15,6.15,0,12.3,0,18.46,0q16.71,0,33.42,0c5.65,0,8.11-2.46,8.11-8q0-11.35,0-22.69C225.77,133.73,225.69,132.85,225.66,132.17Zm-87.3-74.7c4.48,1.69,6.79,4.56,6.83,9.15,0,.5,1.24,1.39,1.93,1.41,4.4.13,8.81.07,13.21.07,4.08,0,4.08,0,4.18-4.13,0-.58,0-1.16,0-1.74A37.2,37.2,0,0,0,118,28,36.7,36.7,0,0,0,90.16,65.47c.07,1.57.23,2.68,2.3,2.66,7.14-.09,14.29-.06,21.44,0,1.62,0,2.24-.69,2.24-2.23,0-5.15,0-10.3,0-15.45,0-2.15-1.08-3.21-3.25-3.16-3.28.08-3.3.43-3.3-3.47,0-.5,0-1,0-1.49-.13-1.54.63-2,2.08-2,2.32.06,4.66-.06,7,0,1.7.07,2.78-.28,2.5-2.29-.21-1.52.33-2.25,2-2.26s2.1.88,2,2.33.1,2.22,1.8,2.23,2.51-.54,2.34-2.28.66-2.28,2.35-2.28c1.87,0,2.06,1.07,1.89,2.42-.21,1.75.54,2.42,2.22,2.85,4.65,1.2,7,4.12,7.28,8.31C143.24,53,141.74,55.61,138.36,57.46Zm34.5-5.61c0,4.58.22,8.88-.09,13.14-.17,2.39.6,2.85,2.7,2.82,6.06-.08,12.12,0,18.18,0a25.93,25.93,0,0,1,15,4.62c.64.44,1.29.85,2.37,1.56,0-2.05,0-3.53,0-5-.24-9-5.7-15.46-14.6-16.82-3.58-.55-7.28-.26-10.93-.29C181.35,51.82,177.22,51.85,172.86,51.85ZM68.12,68.08l0-.3c3.73,0,7.47,0,11.2,0,1.44,0,2.4-.32,2.37-2.06-.07-4-.1-8,0-11.94,0-1.61-.74-2-2.13-1.94-6.56,0-13.12-.16-19.67.08-5.93.21-10.56,3-13.89,8-1.06,1.59-.91,2.85.67,3.71,2.3,1.26,4.62,2.91,7.12,3.32C58.49,67.73,63.33,67.74,68.12,68.08ZM158,32.61C142,12.12,110.46,14.19,97,32.26,113.13,17.47,138.63,15,158,32.61ZM128.81,61c-5,.36-4.54-1-4.6,5.11,0,1.55.66,2,2.09,2,2.31-.06,4.63-.08,6.94,0,1.7.06,3-.35,3.25-2.22s-.32-3.55-2.33-4.07A48.08,48.08,0,0,0,128.81,61Zm-1-6.07c1.83-.32,3.5-.29,4.84-.95a3.78,3.78,0,0,0,1.81-2.82c0-1.09-.88-2.92-1.69-3.11a43.91,43.91,0,0,0-7.56-.73c-.25,0-.74.32-.75.5a26.1,26.1,0,0,0,.1,6.12C124.65,54.53,126.76,54.67,127.77,55Zm91.84,68.86c5.18.27,6.89-1.4,6.22-5.92a5.55,5.55,0,0,0-6.22-4.89Z"/><path class="cls-1" d="M199,110.24c0-2,0-4,0-6a2.46,2.46,0,0,1,2.52-2.77c1.72-.06,2.58,1,2.6,2.67q.06,6.21,0,12.43a2.37,2.37,0,0,1-2.62,2.65c-1.67-.06-2.5-1.12-2.5-2.79Q199,113.35,199,110.24Z"/><path class="cls-1" d="M199,187.32c0-1.91,0-3.81,0-5.72,0-1.69.54-3,2.46-3s2.66,1.13,2.67,2.85q.05,6,0,11.94c0,1.68-.68,3-2.6,2.94s-2.54-1.27-2.54-3Q199,190.3,199,187.32Z"/><path class="cls-1" d="M191.15,83.14a12.73,12.73,0,0,1,11,6.06c1,1.44,1.33,3.06-.38,4.15s-2.95.28-3.94-1.29a8.11,8.11,0,0,0-7-4c-1.85,0-3.74-.08-3.71-2.53C187.16,82.84,189.33,83.18,191.15,83.14Z"/><path class="cls-1" d="M190.85,214.34c-.58,0-1.34.23-1.71,0-.88-.67-2.19-1.6-2.16-2.4s1.4-2.32,2.19-2.31c4,0,7-1.34,9.32-4.71a3.22,3.22,0,0,1,3.17-.35,3.69,3.69,0,0,1,.68,3.35C200.6,211.84,195.89,214.35,190.85,214.34Z"/><path class="cls-1" d="M65.48,83.17h6.46c1.61,0,2.78.93,2.52,2.35A3.62,3.62,0,0,1,72,87.94c-4.38.25-8.77.15-13.16.1a2.27,2.27,0,0,1-2.46-2.52c0-1.59,1-2.35,2.61-2.35Z"/><path class="cls-1" d="M169.74,214.36c-2.15,0-4.31,0-6.46,0-1.58,0-2.58-.71-2.61-2.32s1-2.56,2.67-2.57c4.23,0,8.45,0,12.68,0a2.45,2.45,0,0,1,2.77,2.52c0,1.68-1.15,2.42-2.83,2.39C173.89,214.33,171.82,214.36,169.74,214.36Z"/><path class="cls-1" d="M143.75,88.06h-6.21c-1.68,0-2.74-.84-2.76-2.5s1.17-2.41,2.81-2.4q6.21,0,12.42,0c1.62,0,2.86.58,2.88,2.34s-1.17,2.59-2.94,2.57C147.89,88,145.82,88.07,143.75,88.06Z"/><path class="cls-1" d="M117.51,214.35c-2.15,0-4.31,0-6.46,0-1.6,0-2.64-.79-2.68-2.3a2.4,2.4,0,0,1,2.68-2.6c4.31,0,8.62,0,12.92,0a2.3,2.3,0,0,1,2.52,2.46,2.22,2.22,0,0,1-2.52,2.41Z"/><path class="cls-1" d="M91.42,88.06c-2,0-4,0-6,0-1.69,0-2.8-.7-2.85-2.4s1-2.53,2.71-2.52c4.24,0,8.47,0,12.71,0,1.55,0,2.57.66,2.58,2.35s-1,2.52-2.69,2.54C95.74,88.08,93.58,88.06,91.42,88.06Z"/><path class="cls-1" d="M117.55,88.06h-6c-1.64,0-2.79-.62-2.84-2.4s1-2.51,2.69-2.5q6.36,0,12.71,0c1.62,0,2.6.82,2.61,2.36s-1,2.56-2.71,2.55C121.87,88.05,119.71,88.06,117.55,88.06Z"/><path class="cls-1" d="M65.17,214.35c-2.08,0-4.16,0-6.23,0-1.71,0-2.78-.74-2.78-2.45a2.32,2.32,0,0,1,2.57-2.44c4.32,0,8.65,0,13,0a2.27,2.27,0,0,1,2.5,2.49c0,1.64-.94,2.39-2.54,2.39Z"/><path class="cls-1" d="M169.78,88.06c-2,0-4,0-6,0-1.67,0-2.8-.7-2.84-2.42s1-2.5,2.73-2.49q6.23,0,12.47,0c1.64,0,2.8.55,2.81,2.38s-1.21,2.55-3,2.54C173.93,88.05,171.85,88.07,169.78,88.06Z"/><path class="cls-1" d="M91.09,214.35H84.86c-1.59,0-2.53-.72-2.53-2.38a2.26,2.26,0,0,1,2.48-2.49c4.32,0,8.64,0,13,0a2.32,2.32,0,0,1,2.56,2.44,2.22,2.22,0,0,1-2.51,2.44Z"/><path class="cls-1" d="M143.65,214.36c-2.07,0-4.15,0-6.22,0-1.62,0-2.79-.48-2.8-2.35s1-2.55,2.66-2.56c4.23,0,8.46,0,12.69,0a2.26,2.26,0,0,1,2.56,2.4c0,1.78-1,2.51-2.67,2.49C147.79,214.34,145.72,214.36,143.65,214.36Z"/><path class="cls-1" d="M166.41,148.76a10.74,10.74,0,0,1,10.94-10.84,10.85,10.85,0,1,1,0,21.69A10.73,10.73,0,0,1,166.41,148.76Zm10.85,4.78a4.77,4.77,0,1,0,.26-9.54,4.77,4.77,0,1,0-.26,9.54Z"/></svg>