<svg id="Camada_1" data-name="Camada 1" xmlns="http://www.w3.org/2000/svg" viewBox="0 0 194 138"><defs><style>.cls-1{fill:#cf5c1a;}</style></defs><title>expanção</title><path class="cls-1" d="M153.7,4.47c5.3,2.47,6.62,4.53,6.24,10.38-.44,6.8-1,13.6-1.53,20.4-.14,2-1,3.4-3.06,3.32-2.23-.09-3-1.68-2.85-3.77q.48-6.8,1-13.6c.08-1.19.15-2.38.21-3.33l-27,27c3.16,3.8,3.15,4-.8,8q-2.81,2.82-5.63,5.63c-1.74,1.72-3.47,1.68-5.19,0l-8-8c-1.83-1.84-1.72-3.64.09-5.43,2.09-2.07,4.15-4.16,6.23-6.23,3-3,3.94-3,7,0,.4.39.83.75,1.06,1l28.86-29-12.34.8c-2.65.17-5.29.33-7.94.56-2.06.18-3.8-.4-4-2.62s1.4-3.23,3.65-3.35c5.86-.33,11.72-.77,17.58-1.19a12.31,12.31,0,0,0,1.89-.43ZM117.42,52.28l3.92-3.52L117,44.52l-3.74,2.87Z"/><path class="cls-1" d="M43.85,4.47c3.65.36,7.31.75,11,1.06,2.92.25,5.86.44,8.79.59,2,.1,3.4,1,3.36,3.06,0,2.2-1.57,3.05-3.71,2.9-5.1-.36-10.21-.7-15.31-1L43,10.7,71.62,39.22l-.55.56c.18,0,.41,0,.53-.13,4.79-4.2,4.79-4.2,9.28.3,1.67,1.68,3.34,3.36,5,5s1.89,3.6.06,5.43l-8,8c-1.72,1.73-3.44,1.77-5.18,0l-5.63-5.62c-3.93-3.94-3.94-4.2-.68-8.13L39.48,17.8c0,.75-.06,1.8,0,2.83.32,4.72.67,9.45,1,14.17.15,2.1-.63,3.68-2.85,3.77-2.07.08-2.92-1.34-3.06-3.33-.49-6.8-1.09-13.59-1.53-20.4C32.69,9,34,6.94,39.3,4.47ZM79.6,48.17l-3.34-4L71.4,48.44l3.88,4Z"/><path class="cls-1" d="M149.15,132.53c-3.65-.36-7.31-.75-11-1.06-2.92-.25-5.85-.43-8.79-.59-2.15-.11-3.54-1.17-3.36-3.33s1.77-2.75,3.71-2.62l15.31,1,5,.33L121.39,97.77l.55-.56c-.18,0-.41,0-.53.13-4.78,4.19-4.78,4.2-9.27-.27-1.68-1.67-3.34-3.36-5-5s-1.94-3.59-.1-5.43c2.75-2.75,5.49-5.5,8.25-8.23a3.08,3.08,0,0,1,4.77,0c2.59,2.5,5.15,5,7.64,7.63s.4,4.58-1.16,6.24l27,27c0-.79.06-1.83,0-2.86-.32-4.72-.67-9.45-1-14.17-.15-2.09.6-3.69,2.84-3.77,2-.07,2.93,1.31,3.07,3.32.48,6.8,1.09,13.59,1.53,20.4.38,5.85-.94,7.91-6.24,10.37ZM116.68,93l4.77-4.4-3.19-3.47-5,3.79Z"/><path class="cls-1" d="M39.3,132.53c-5.32-2.48-6.62-4.49-6.24-10.37.43-6.8,1-13.6,1.52-20.4.14-2,1-3.39,3.07-3.32,2.22.08,3,1.67,2.85,3.77q-.49,6.8-1,13.6c-.08,1.19-.15,2.39-.21,3.33l27-27c-3.18-3.82-3.17-4.07.78-8l5.64-5.62c1.74-1.73,3.47-1.68,5.19,0l8,8c1.83,1.84,1.73,3.63-.08,5.43-2.15,2.13-4.28,4.29-6.44,6.43-2.71,2.69-3.82,2.69-6.6,0-.47-.45-1-.89-1.25-1.15L42.77,126.28,55,125.49c2.65-.17,5.29-.35,7.94-.55,2-.16,3.81.37,4,2.61s-1.4,3.23-3.64,3.35c-5.77.33-11.53.76-17.29,1.18a16.48,16.48,0,0,0-2.18.45ZM71.45,88.44l4.36,4,4-3.13-4.42-4.87Z"/></svg>