<svg id="Camada_1" data-name="Camada 1" xmlns="http://www.w3.org/2000/svg" xmlns:xlink="http://www.w3.org/1999/xlink" viewBox="0 0 2000 900"><defs><style>.cls-1,.cls-2{fill:none;stroke-miterlimit:10;}.cls-1{stroke:url(#Gradiente_sem_nome_18);}.cls-2{stroke:url(#Gradiente_sem_nome_18-2);}</style><linearGradient id="Gradiente_sem_nome_18" x1="230" y1="675.16" x2="753.36" y2="675.16" gradientUnits="userSpaceOnUse"><stop offset="0" stop-color="#fff10f"/><stop offset="1"/></linearGradient><linearGradient id="Gradiente_sem_nome_18-2" x1="1350.7" y1="225.3" x2="1659.93" y2="225.3" xlink:href="#Gradiente_sem_nome_18"/></defs><title>BACKGROUND 2</title><rect x="-12" width="2012" height="1022.77"/><path class="cls-1" d="M428.63,745.1h66.23a30.87,30.87,0,0,1,27.08,16A329.41,329.41,0,0,1,560.68,885.8,30.84,30.84,0,0,1,530,919.72H441.36a31,31,0,0,1-30.44-26.49C398.32,813.82,336.54,750.74,257.38,739c-15.32-2.28-26.87-15-26.87-30.5V620.22a30.81,30.81,0,0,1,33.85-30.68A329.58,329.58,0,0,1,405,637.62a30.68,30.68,0,0,1,13.76,31.87l-9.86,51.22C406.34,734.18,415.16,745.1,428.63,745.1ZM574.42,629.6l-9.86,51.22a30.68,30.68,0,0,0,13.76,31.87A329.58,329.58,0,0,0,719,760.78a30.81,30.81,0,0,0,33.85-30.68V641.85c0-15.49-11.56-28.22-26.87-30.5C646.82,599.57,585,536.5,572.45,457.09A31,31,0,0,0,542,430.6H453.36a30.84,30.84,0,0,0-30.68,33.91,329.41,329.41,0,0,0,38.74,124.67,30.87,30.87,0,0,0,27.08,16h66.23C568.2,605.21,577,616.13,574.42,629.6Z"/><path class="cls-2" d="M1468.11,266.57h39.08a18.21,18.21,0,0,1,16,9.46A194.38,194.38,0,0,1,1546,349.6a18.2,18.2,0,0,1-18.1,20h-52.31a18.29,18.29,0,0,1-18-15.63c-7.43-46.86-43.89-84.07-90.6-91a18.31,18.31,0,0,1-15.86-18V192.88a18.18,18.18,0,0,1,20-18.1,194.48,194.48,0,0,1,83,28.37,18.1,18.1,0,0,1,8.12,18.81l-5.82,30.22C1455,260.13,1460.17,266.57,1468.11,266.57Zm86-68.15-5.82,30.22a18.1,18.1,0,0,0,8.12,18.81,194.48,194.48,0,0,0,83,28.37,18.18,18.18,0,0,0,20-18.1V205.65a18.31,18.31,0,0,0-15.86-18c-46.71-7-83.17-44.17-90.6-91A18.29,18.29,0,0,0,1535,81h-52.31a18.2,18.2,0,0,0-18.1,20,194.38,194.38,0,0,0,22.86,73.56,18.21,18.21,0,0,0,16,9.46h39.08C1550.47,184,1555.67,190.47,1554.14,198.42Z"/></svg>