<?xml version="1.0" encoding="UTF-8"?>
<!DOCTYPE svg PUBLIC "-//W3C//DTD SVG 1.1//EN" "http://www.w3.org/Graphics/SVG/1.1/DTD/svg11.dtd">
<svg xmlns="http://www.w3.org/2000/svg" xml:space="preserve" width="400px" height="110px" version="1.1" shape-rendering="geometricPrecision" text-rendering="geometricPrecision" image-rendering="optimizeQuality" fill-rule="evenodd" clip-rule="evenodd"
     viewBox="0 0 10.12 2.79"
     xmlns:xlink="http://www.w3.org/1999/xlink">
 <g>
<!--     <path fill="#FBAE17" fill-rule="nonzero" d="M6.9 2.17c0.05,-0.05 0.09,-0.11 0.12,-0.18 0.03,-0.06 0.04,-0.14 0.04,-0.23l0 -0.21c0,-0.18 -0.06,-0.32 -0.17,-0.4 0.08,-0.08 0.12,-0.2 0.12,-0.35l0 -0.21c0,-0.09 -0.01,-0.17 -0.04,-0.23 -0.02,-0.07 -0.06,-0.13 -0.12,-0.18 -0.09,-0.09 -0.22,-0.13 -0.37,-0.13l-0.48 0 0 2.25 0.53 0c0.15,0 0.28,-0.04 0.37,-0.13zm-5.21 -0.41c0,0.01 -0.01,0.01 -0.02,0.02 -0.11,0.11 -0.22,0.21 -0.33,0.32 -0.06,0.06 -0.12,0.12 -0.18,0.18 -0.02,0.01 -0.02,0.01 -0.04,0 -0.21,-0.23 -0.42,-0.45 -0.64,-0.68 -0.15,-0.16 -0.31,-0.32 -0.47,-0.49 -0.01,-0.01 -0.01,-0.02 0,-0.04 0.17,-0.16 0.34,-0.32 0.51,-0.49 0.02,-0.01 0.02,-0.01 0.04,0 0.06,0.07 0.12,0.13 0.18,0.2 0.02,0.01 0.02,0.02 0,0.04 -0.1,0.09 -0.2,0.19 -0.3,0.28 -0.01,0.02 -0.01,0.02 0,0.04 0.21,0.21 0.42,0.43 0.62,0.65 0.02,0.01 0.04,0.03 0.05,0.05 0.02,0.02 0.02,0.01 0.04,0 0.1,-0.1 0.2,-0.19 0.3,-0.29 0.01,-0.01 0.02,-0.01 0.04,0.01 0.06,0.06 0.12,0.13 0.18,0.19 0.01,0 0.01,0.01 0.02,0.01zm-1.14 -0.68c0.03,0 0.04,0 0.06,-0.01 0.18,-0.04 0.35,-0.08 0.53,-0.12 0.02,0 0.02,0 0.01,0.02 -0.05,0.18 -0.11,0.36 -0.17,0.55 0,0 0,0.01 0,0.02 -0.14,-0.15 -0.28,-0.3 -0.43,-0.46zm9.55 1.22l-0.37 0 -0.25 -0.67 -0.25 0.67 -0.37 0 0.41 -1.12 -0.41 -1.13 0.37 0 0.25 0.67 0.25 -0.67 0.37 0 -0.42 1.13 0.42 1.12zm-3.75 -0.95l0.18 0c0.06,0 0.1,0.02 0.13,0.04 0.03,0.03 0.05,0.09 0.05,0.16l0 0.21c0,0.07 -0.02,0.12 -0.05,0.15 -0.02,0.02 -0.07,0.03 -0.13,0.03l-0.18 0 0 -0.59zm0 -0.95l0.13 0c0.07,0 0.11,0.02 0.14,0.04 0.03,0.03 0.04,0.08 0.04,0.15l0 0.21c0,0.08 -0.02,0.13 -0.05,0.16 -0.02,0.03 -0.07,0.04 -0.13,0.04l-0.13 0 0 -0.6zm1.24 1.9l0 -2.25 -0.35 0 0 2.25 0.35 0zm1.21 -2.25l0 0.35 -0.36 0 0 1.9 -0.36 0 0 -1.9 -0.36 0 0 -0.35 1.08 0z"/>-->
<!--     <path fill="#FBAE17" fill-rule="nonzero" d="M6.15 2.62l-0.11 0 0 -0.08 0.11 0 0 -0.04 -0.16 0 0 0.28 0.17 0 0 -0.04 -0.12 0 0 -0.08 0.11 0 0 -0.04zm0.57 0.16l-0.08 -0.14 0.08 -0.14 -0.06 0 -0.03 0.06c-0.01,0.02 -0.01,0.03 -0.02,0.05l0 0c-0.01,-0.02 -0.02,-0.03 -0.03,-0.05l-0.03 -0.06 -0.06 0 0.08 0.14 -0.08 0.14 0.06 0 0.03 -0.05c0.01,-0.02 0.02,-0.04 0.02,-0.06l0 0c0.01,0.02 0.02,0.04 0.03,0.06l0.03 0.05 0.06 0zm0.53 -0.05c-0.01,0.01 -0.04,0.02 -0.06,0.02 -0.06,0 -0.1,-0.04 -0.1,-0.11 0,-0.07 0.04,-0.1 0.1,-0.1 0.03,0 0.04,0 0.06,0.01l0.01 -0.04c-0.01,-0.01 -0.04,-0.01 -0.07,-0.01 -0.09,0 -0.15,0.05 -0.15,0.15 0,0.08 0.05,0.14 0.14,0.14 0.04,0 0.06,-0.01 0.08,-0.01l-0.01 -0.05zm0.36 -0.23l0 0.28 0.05 0 0 -0.12 0.12 0 0 0.12 0.05 0 0 -0.28 -0.05 0 0 0.11 -0.12 0 0 -0.11 -0.05 0zm0.73 0.2l0.03 0.08 0.06 0 -0.1 -0.28 -0.06 0 -0.09 0.28 0.05 0 0.02 -0.08 0.09 0zm-0.08 -0.04l0.02 -0.07c0.01,-0.01 0.01,-0.03 0.02,-0.05l0 0c0,0.02 0.01,0.04 0.01,0.05l0.03 0.07 -0.08 0zm0.56 0.12l0 -0.1c0,-0.04 0,-0.08 0,-0.12l0 0c0.01,0.03 0.03,0.07 0.05,0.1l0.07 0.12 0.06 0 0 -0.28 -0.05 0 0 0.1c0,0.04 0,0.08 0,0.12l0 0c-0.01,-0.03 -0.03,-0.07 -0.05,-0.1l-0.07 -0.12 -0.06 0 0 0.28 0.05 0zm0.77 -0.15l-0.1 0 0 0.04 0.05 0 0 0.07c-0.01,0 -0.02,0 -0.04,0 -0.06,0 -0.1,-0.03 -0.1,-0.1 0,-0.06 0.05,-0.1 0.11,-0.1 0.03,0 0.04,0.01 0.06,0.01l0.01 -0.04c-0.01,-0.01 -0.04,-0.01 -0.07,-0.01 -0.1,0 -0.16,0.06 -0.16,0.14 0,0.05 0.01,0.08 0.04,0.11 0.02,0.02 0.06,0.04 0.11,0.04 0.04,0 0.07,-0.01 0.09,-0.02l0 -0.14zm0.52 -0.01l-0.11 0 0 -0.08 0.11 0 0 -0.04 -0.16 0 0 0.28 0.17 0 0 -0.04 -0.12 0 0 -0.08 0.11 0 0 -0.04z"/>-->
<!--     <path fill="#606060" fill-rule="nonzero" d="M2.3 1.19c0.01,0.01 0,0.01 -0.01,0.02 -0.14,0.13 -0.28,0.27 -0.42,0.4 -0.03,0.03 -0.07,0.06 -0.1,0.1 -0.01,0.01 -0.01,0.01 -0.02,0 -0.07,-0.07 -0.13,-0.14 -0.2,-0.21 -0.01,-0.01 0,-0.02 0,-0.03 0.1,-0.09 0.2,-0.19 0.3,-0.28 0.02,-0.02 0.02,-0.03 0,-0.05 -0.22,-0.23 -0.44,-0.46 -0.66,-0.69 -0.02,-0.02 -0.02,-0.02 -0.04,0 -0.1,0.09 -0.2,0.19 -0.3,0.28 -0.01,0.02 -0.02,0.02 -0.03,0 -0.07,-0.06 -0.13,-0.13 -0.19,-0.19 -0.02,-0.02 -0.01,-0.02 0,-0.04 0.17,-0.16 0.34,-0.33 0.51,-0.49 0.02,-0.01 0.03,-0.01 0.04,0 0.23,0.24 0.46,0.48 0.69,0.72 0.14,0.15 0.28,0.3 0.42,0.44 0,0.01 0.01,0.01 0.01,0.02zm1.15 1.02c0.09,-0.08 0.14,-0.2 0.14,-0.36l0 -1.35c0,-0.16 -0.05,-0.28 -0.14,-0.37 -0.08,-0.07 -0.18,-0.11 -0.32,-0.11 -0.14,0 -0.24,0.04 -0.32,0.11 -0.09,0.09 -0.14,0.21 -0.14,0.37l0 1.35c0,0.16 0.05,0.28 0.14,0.36 0.08,0.08 0.18,0.12 0.32,0.12 0.14,0 0.24,-0.04 0.32,-0.12zm-0.08 -1.99c0.07,0.06 0.1,0.16 0.1,0.28l0 1.35c0,0.12 -0.03,0.22 -0.1,0.28 -0.05,0.05 -0.13,0.08 -0.24,0.08 -0.11,0 -0.19,-0.03 -0.24,-0.08 -0.07,-0.06 -0.1,-0.16 -0.1,-0.28l0 -1.35c0,-0.12 0.03,-0.22 0.1,-0.28 0.06,-0.05 0.14,-0.08 0.24,-0.08 0.1,0 0.18,0.03 0.24,0.08zm1.4 -0.17l0 2.25 -0.07 0 -0.77 -1.83 0 1.83 -0.12 0 0 -2.25 0.07 0 0.77 1.83 0 -1.83 0.12 0zm1.04 0.12l-0.69 0 0 0.92 0.49 0 0 0.12 -0.49 0 0 0.97 0.69 0 0 0.12 -0.8 0 0 -2.25 0.8 0 0 0.12zm-4.05 1.03c-0.02,-0.01 -0.03,-0.03 -0.04,-0.04 -0.13,-0.14 -0.26,-0.27 -0.38,-0.41 -0.02,-0.01 -0.02,-0.01 -0.03,0.01 -0.05,0.19 -0.11,0.38 -0.17,0.57 0,0 -0.01,0.01 0,0.02 0.2,-0.05 0.41,-0.1 0.62,-0.15z"/>-->
 </g>
</svg>
