<svg id="Camada_1" data-name="Camada 1" xmlns="http://www.w3.org/2000/svg" viewBox="0 0 72 67"><defs><style>.cls-1{fill:#ff8400;}</style></defs><title>5 STAR_1</title><path class="cls-1" d="M19.75,59.56l.39-3.64q.28-2.61.56-5.21c.16-1.51.34-3,.5-4.53s.34-3.17.5-4.76a.46.46,0,0,0-.12-.31l-4.12-4.53-6.57-7.24L9.35,27.66l1.19-.28,8.7-1.94,7.68-1.72a.67.67,0,0,0,.38-.29q3.48-5.83,6.94-11.67l2.31-3.9.86,1.49,6,10.55,2.11,3.71a.71.71,0,0,0,.53.4q6.89,1.4,13.76,2.83l4,.8-.75.84-7.1,7.82Q53.8,38.64,51.68,41a.83.83,0,0,0-.23.73c.2,1.76.38,3.52.58,5.28s.38,3.41.56,5.12.37,3.41.55,5.12l.26,2.38-1.59-.69-8.21-3.62c-2.25-1-4.5-2-6.76-3a.75.75,0,0,0-.54,0q-5.11,2.24-10.21,4.5L20,59.47ZM30.9,41a3.27,3.27,0,0,0,.58,2.38c.12.18.25.36.36.54a4.42,4.42,0,0,0,3.82,2.23c2,.11,3.75-.37,4.78-2.33a5.06,5.06,0,0,0,.75-3A13.8,13.8,0,0,1,41,39.36,6.54,6.54,0,0,0,40.59,37a4.69,4.69,0,0,0-3.9-3.17,2.77,2.77,0,0,0-1.13,0,7.28,7.28,0,0,0-1.22.6l.25-3.63h5.65V27.93H31.86l-1,8.88c.76.21,1.5.4,2.23.62.34.1.63.18.78-.26,0,0,.08-.06.13-.09a2.37,2.37,0,0,1,1.33-.28,1.49,1.49,0,0,1,1.24.52c.15.18.34.34.49.52A1.68,1.68,0,0,1,37.55,39q0,1.21,0,2.41a2.29,2.29,0,0,1-.43,1.24,1.43,1.43,0,0,1-1.61.56.85.85,0,0,1-.73-.57c-.19-.52-.36-1.05-.56-1.61Z"/></svg>