<svg id="Camada_1" data-name="Camada 1" xmlns="http://www.w3.org/2000/svg" viewBox="0 0 72 84"><defs><style>.cls-1{fill:#ff8400;}</style></defs><title>BTC</title><path class="cls-1" d="M32.28,74.35H25.63V63.46H12.47l1.33-7.81h4.5c1.84,0,2.71-.88,2.71-2.73s0-3.74,0-5.61q0-11.36,0-22.71a3.12,3.12,0,0,0-2.78-3.32,21.38,21.38,0,0,0-2.83-.12c-1,0-1.92,0-2.89,0v-7H25.63V3.41h6.51c0,.27.06.55.06.82q0,4.43,0,8.86v.76h5.2V3.41h6.51c0,.28,0,.55,0,.83,0,3.09,0,6.19,0,9.28,0,.49.13.67.64.72a29.27,29.27,0,0,1,7.69,1.63,12,12,0,0,1,5.5,3.8A11.55,11.55,0,0,1,59.89,27a9.64,9.64,0,0,1-4,8.2c-.49.36-1,.67-1.55,1,1,.39,2.06.7,3,1.14A9.89,9.89,0,0,1,63,43a15.42,15.42,0,0,1,.58,7,14.51,14.51,0,0,1-2.74,7.29,13.69,13.69,0,0,1-6.9,4.5,34.11,34.11,0,0,1-9.25,1.52c-.56,0-.75.19-.74.77,0,1.55,0,3.09,0,4.64,0,1.85,0,3.69,0,5.54H37.41V63.67h-5.2v.67q0,4.67,0,9.33C32.22,73.9,32.26,74.13,32.28,74.35Zm.09-18.56c2.91-.11,5.75-.14,8.57-.36a16.53,16.53,0,0,0,6.38-1.68,5.84,5.84,0,0,0,2.31-8.62,7.31,7.31,0,0,0-4-2.77,27.38,27.38,0,0,0-8.88-1.15c-1.44,0-2.89,0-4.37,0Zm0-21.12a4.14,4.14,0,0,0,.45,0c2.07,0,4.16,0,6.22-.17a14.43,14.43,0,0,0,5.33-1.32A5.6,5.6,0,0,0,46,24.08,8.88,8.88,0,0,0,41.23,22a41,41,0,0,0-8.14-.4c-.6,0-.78.15-.78.77,0,3.87,0,7.75,0,11.62C32.33,34.2,32.35,34.42,32.36,34.67Z"/></svg>