<svg id="Camada_1" data-name="Camada 1" xmlns="http://www.w3.org/2000/svg" viewBox="0 0 84 94"><defs><style>.cls-1{fill:#ff8400;}</style></defs><title>CARTEIRA 2</title><path class="cls-1" d="M72.05,41.19c2.93.4,4.57,1.66,5.13,3.95a7.28,7.28,0,0,1,.15,1.7c0,4.33-.11,8.67,0,13,.13,3.74-1.88,5.94-5.32,6.34v1q0,4.88,0,9.75a9.09,9.09,0,0,1-9.21,9.22H14.62a9,9,0,0,1-9.17-9q-.05-24.43,0-48.86a9,9,0,0,1,9.11-9c2.47,0,4.94,0,7.41,0A.92.92,0,0,0,23,18.44C25.15,12,29.6,8.13,36.26,7a16.22,16.22,0,0,1,18.08,11.2,1.22,1.22,0,0,0,1.44,1c2.35-.06,4.7,0,7,0a9.09,9.09,0,0,1,9.23,9.29q0,5.83,0,11.65ZM9.67,81a6.42,6.42,0,0,0,5.17,2.34H62.52a6.37,6.37,0,0,0,6.71-6.68q0-4.74,0-9.48V66.1H68.07c-5.27,0-10.54,0-15.81,0a5.3,5.3,0,0,1-5.48-5.43,56.82,56.82,0,0,0,0-6.77,5.37,5.37,0,0,1,5.67-5.62c5.21.07,10.42,0,15.63,0h1.17V47.23c0-3.16-.09-6.33,0-9.48a6.63,6.63,0,0,0-6.92-7c-15.78.1-31.55,0-47.33,0A12.45,12.45,0,0,1,8.66,29.4a1.33,1.33,0,0,0-.38-.06c0,.78,0,1.51,0,2.22-.06.94,0,1.72,1.24,1.81.24,0,.6.65.59,1s-.52.54-.85.68a2.62,2.62,0,0,1-1,0v1q0,20.46,0,40.92c0,.27,0,.54,0,.81a.88.88,0,0,0,.75.95,1.81,1.81,0,0,1,1.15.79C10.31,79.85,9.91,80.37,9.67,81ZM74.36,51.2H52.63c-2,0-2.9.88-2.91,2.92s0,4.09,0,6.14.84,2.94,3,3H71.46c2,0,2.94-.89,2.94-2.91q0-4.11,0-8.22C74.4,51.76,74.37,51.44,74.36,51.2ZM42.74,24.14a3.33,3.33,0,0,1,2.47,3.31c0,.18.45.5.7.51,1.59,0,3.19,0,4.78,0s1.48,0,1.51-1.5c0-.21,0-.42,0-.63A13.47,13.47,0,0,0,35.38,13.49,13.29,13.29,0,0,0,25.29,27c0,.57.08,1,.83,1,2.59,0,5.18,0,7.76,0,.59,0,.81-.25.81-.81,0-1.87,0-3.73,0-5.6a1,1,0,0,0-1.18-1.14c-1.19,0-1.2.15-1.2-1.26,0-.18,0-.36,0-.54,0-.56.23-.74.75-.72.84,0,1.69,0,2.53,0,.62,0,1-.1.91-.83-.08-.55.12-.82.74-.82s.76.32.72.84,0,.8.65.81.91-.19.85-.83.24-.83.85-.82.74.39.69.88.2.87.8,1a3.14,3.14,0,0,1,2.64,3A2.92,2.92,0,0,1,42.74,24.14Zm12.49-2c0,1.66.08,3.22,0,4.76-.06.87.22,1,1,1,2.19,0,4.39,0,6.58,0a9.39,9.39,0,0,1,5.43,1.67l.86.57c0-.74,0-1.28,0-1.81a6,6,0,0,0-5.29-6.09,28.1,28.1,0,0,0-4-.11C58.31,22.1,56.81,22.11,55.24,22.11ZM17.31,28v-.11h4.06c.52,0,.87-.12.86-.75,0-1.44,0-2.88,0-4.32,0-.58-.27-.71-.77-.7-2.37,0-4.75-.06-7.12,0a6.08,6.08,0,0,0-5,2.9c-.39.58-.33,1,.24,1.34a8.83,8.83,0,0,0,2.58,1.2C13.82,27.86,15.57,27.87,17.31,28ZM49.87,15.14C44.07,7.72,32.64,8.48,27.76,15A16.09,16.09,0,0,1,49.87,15.14ZM39.29,25.43c-1.8.13-1.65-.35-1.66,1.85,0,.56.24.73.76.72.84,0,1.68,0,2.51,0,.62,0,1.08-.13,1.18-.81a1.16,1.16,0,0,0-.84-1.47A17.41,17.41,0,0,0,39.29,25.43Zm-.38-2.2a6.86,6.86,0,0,0,1.75-.34,1.37,1.37,0,0,0,.66-1c0-.39-.32-1.06-.61-1.13A15.9,15.9,0,0,0,38,20.48c-.09,0-.27.12-.27.18a9.45,9.45,0,0,0,0,2.22C37.78,23.08,38.54,23.13,38.91,23.24ZM72.17,48.17c1.88.1,2.49-.51,2.25-2.15a2,2,0,0,0-2.25-1.77Z"/><path class="cls-1" d="M64.72,43.26c0-.72,0-1.44,0-2.16a.89.89,0,0,1,.91-1,.86.86,0,0,1,.94,1q0,2.25,0,4.5a.86.86,0,0,1-.95,1,.89.89,0,0,1-.91-1Q64.72,44.38,64.72,43.26Z"/><path class="cls-1" d="M64.72,71.17c0-.69,0-1.38,0-2.07s.2-1.08.89-1.1,1,.41,1,1q0,2.16,0,4.32c0,.61-.24,1.08-.94,1.06s-.92-.46-.92-1.08S64.72,71.89,64.72,71.17Z"/><path class="cls-1" d="M61.86,33.44a4.61,4.61,0,0,1,4,2.2c.35.52.48,1.11-.14,1.5s-1.07.1-1.43-.47a2.94,2.94,0,0,0-2.55-1.44c-.67,0-1.35,0-1.34-.92S61.2,33.46,61.86,33.44Z"/><path class="cls-1" d="M61.75,81c-.21,0-.49.08-.62,0-.32-.24-.79-.58-.78-.87s.51-.84.79-.84a3.73,3.73,0,0,0,3.37-1.7,1.17,1.17,0,0,1,1.15-.13,1.34,1.34,0,0,1,.25,1.21A4.46,4.46,0,0,1,61.75,81Z"/><path class="cls-1" d="M16.35,33.45h2.34c.58,0,1,.34.91.85a1.31,1.31,0,0,1-.88.88c-1.58.09-3.18.05-4.77,0A.88.88,0,1,1,14,33.45Z"/><path class="cls-1" d="M54.11,81H51.77c-.57,0-.93-.26-.95-.84s.37-.93,1-.93h4.59a.89.89,0,0,1,1,.91c0,.61-.42.88-1,.87S54.86,81,54.11,81Z"/><path class="cls-1" d="M44.69,35.23H42.45c-.61,0-1-.3-1-.91s.42-.87,1-.87H47c.59,0,1,.21,1,.85s-.42.94-1.06.93Z"/><path class="cls-1" d="M35.19,81H32.85a.84.84,0,0,1-1-.83.87.87,0,0,1,1-.94c1.56,0,3.12,0,4.68,0a.83.83,0,0,1,.91.89.8.8,0,0,1-.91.87Z"/><path class="cls-1" d="M25.75,35.23c-.72,0-1.44,0-2.17,0s-1-.25-1-.87.36-.92,1-.91h4.6c.56,0,.93.24.93.85s-.37.91-1,.92Z"/><path class="cls-1" d="M35.21,35.23H33c-.59,0-1-.23-1-.87s.36-.91,1-.91h4.6a.82.82,0,0,1,.95.86.86.86,0,0,1-1,.92Z"/><path class="cls-1" d="M16.24,81c-.75,0-1.51,0-2.26,0s-1-.27-1-.89a.84.84,0,0,1,.93-.88c1.57,0,3.13,0,4.7,0a.82.82,0,0,1,.9.9c0,.59-.34.87-.92.87Z"/><path class="cls-1" d="M54.12,35.23H52c-.61,0-1-.25-1-.88s.37-.9,1-.9h4.51c.59,0,1,.2,1,.86s-.44.92-1.07.92Z"/><path class="cls-1" d="M25.63,81H23.37c-.58,0-.92-.26-.92-.86a.82.82,0,0,1,.9-.9c1.57,0,3.13,0,4.7,0a.84.84,0,0,1,.93.89.8.8,0,0,1-.91.88Z"/><path class="cls-1" d="M44.66,81H42.41c-.59,0-1-.17-1-.85s.35-.92,1-.93c1.53,0,3.06,0,4.59,0a.82.82,0,0,1,.93.87c0,.64-.35.91-1,.9Z"/><path class="cls-1" d="M52.9,57.2a3.89,3.89,0,0,1,4-3.92,3.93,3.93,0,1,1,0,7.85A3.88,3.88,0,0,1,52.9,57.2Zm3.93,1.73a1.73,1.73,0,1,0,.09-3.45,1.73,1.73,0,1,0-.09,3.45Z"/></svg>