<svg id="Camada_1" data-name="Camada 1" xmlns="http://www.w3.org/2000/svg" viewBox="0 0 93 73"><defs><style>.cls-1{fill:#ff8400;}</style></defs><title>CARTÃO</title><path class="cls-1" d="M10.87,61.16c3.66,0,6.87-.09,10.07,0a14.88,14.88,0,0,0,8-2,38.54,38.54,0,0,0,9.9-7.69A24.94,24.94,0,0,1,47,45.53c1.91-.87,3.84-1.7,5.68-2.7,2.84-1.54,3.72-4.19,3.57-7.2C56.13,33,54.59,31.89,52,32.24a17.23,17.23,0,0,0-5.11,1.59c-6.83,3.29-14.1,5.63-20.58,9.68-.86.54-1.7.6-2.25-.31A1.41,1.41,0,0,1,24.83,41c2.66-1.1,3-3,2.91-5.72-.22-6,0-12.1.07-18.15,0-1.47-.3-2-1.9-2a9.53,9.53,0,0,0-5.71,1.74A190.89,190.89,0,0,0,4.57,29.06c-.5.42-1,.8-1.79,1.39-.06-2.31.09-4,1.94-5.46,4.43-3.46,8.71-7.1,13.4-10.22,2.54-1.69,5.2-2.82,8.33-2.43a2.55,2.55,0,0,0,2.85-1.41C30.54,8.81,32.75,8.12,35,8.11q23.72-.08,47.44,0c4.54,0,7.13,2.65,7.37,7.35.2,3.82.1,7.66.11,11.49q0,8.62,0,17.23c0,6.27-2.52,8.79-8.73,8.82-4.2,0-8.4.06-12.6,0-1.31,0-1.85.37-2.09,1.66A19.22,19.22,0,0,1,64,61.36c-2.14,3.48-4.78,4.31-8.48,2.57a1.21,1.21,0,0,0-1.58.25c-4.18,3.59-7,3.6-11.25,0a1.56,1.56,0,0,0-2-.18,9.12,9.12,0,0,1-6.14.65,5,5,0,0,1-3.05-2.27c-.42-.67-.78-1-1.59-.53C24.87,64.86,19.21,64,13.7,64,12.12,64,11.93,62.43,10.87,61.16ZM45.32,49.77a3.34,3.34,0,0,0,2.21.38q17.15,0,34.29,0c3.66,0,5.1-1.34,5.13-5,.05-6.43,0-12.85,0-19.28,0-1.2-.34-1.58-1.56-1.58q-26.6.05-53.2,0c-1.35,0-1.65.48-1.63,1.72q.11,5,0,10c0,1.38.26,1.76,1.63,1.14,4.6-2.1,9.24-4.11,13.87-6.15a15.83,15.83,0,0,1,6.75-1.75,6.09,6.09,0,0,1,6.31,6.33c0,4.89-1.87,8.57-6.55,10.6A38.78,38.78,0,0,0,45.32,49.77ZM59,17.53c8.76,0,17.53,0,26.29,0,1.64,0,2-.53,1.77-2.05-.44-3-2-4.47-5.09-4.48q-23.23,0-46.47,0c-2.84,0-4.31,1.3-4.78,4.11-.35,2.11-.15,2.36,2,2.36ZM53.73,56c0-3,0-3-2.52-3-1.54,0-3.09,0-4.63,0-.9,0-1.34.22-1.38,1.22a19.87,19.87,0,0,1-1.13,6,1.06,1.06,0,0,0,.14,1.2c1.15,1.21,2.27,2.56,4.15,2.44A5,5,0,0,0,52.65,61,11.7,11.7,0,0,0,53.73,56Zm6.69-3a10.57,10.57,0,0,1-1.48,0c-1.69-.24-2.48.19-2.17,2.15a10.67,10.67,0,0,1-.36,3.66c-.23,1.15-.52,2.16.89,2.77A2.78,2.78,0,0,0,60.67,61,11.22,11.22,0,0,0,63.07,57C64.59,53.15,64.49,53,60.41,53ZM42.27,55c-.21-.71.52-1.55-.35-1.92-.68-.29-1.07.46-1.49.88a68.87,68.87,0,0,1-5.59,4.84c-.47.38-1.39.5-1.09,1.46a2.27,2.27,0,0,0,1.69,1.55,4.83,4.83,0,0,0,6.11-3.29C41.9,57.39,42,56.16,42.27,55Z"/></svg>