<svg id="Camada_1" data-name="Camada 1" xmlns="http://www.w3.org/2000/svg" viewBox="0 0 72 67"><defs><style>.cls-1{fill:#ff8400;}</style></defs><title>CHAT</title><path class="cls-1" d="M65.16,38.57a28.9,28.9,0,0,1-.77,3,16.22,16.22,0,0,1-6.89,8l-.88.53-.93.51L61,60.83,61,60.9l-.53-.34c-3.57-2.46-7.14-4.93-10.72-7.38a1.35,1.35,0,0,0-.92-.2,28.83,28.83,0,0,1-13.6-.49,23.35,23.35,0,0,1-7.6-3.62c-.61-.45-1.18-1-1.76-1.42,2-.17,3.95-.24,5.87-.52a30,30,0,0,0,15.75-6.86,17.65,17.65,0,0,0,6.27-10.68,15.16,15.16,0,0,0-.21-5.71c0-.15-.06-.3-.1-.53a21.4,21.4,0,0,1,6.94,4.22A13.89,13.89,0,0,1,65.06,36a1.39,1.39,0,0,0,.1.28Z"/><path class="cls-1" d="M7.51,51.45l5.62-10.68c-1.32-.89-2.64-1.67-3.83-2.62a15.2,15.2,0,0,1-5.92-9.21,12.65,12.65,0,0,1,1.79-9.22,20.35,20.35,0,0,1,10.47-8.22A30,30,0,0,1,29,9.63a26.89,26.89,0,0,1,13.93,4.85,16.29,16.29,0,0,1,6.31,8.27A12.5,12.5,0,0,1,48.68,32a17.42,17.42,0,0,1-7.59,8,29,29,0,0,1-20.53,3.11,1.32,1.32,0,0,0-1.12.24Q13.83,47.26,8.2,51.14l-.6.4ZM39.06,23.6H34.19v4.87h4.87ZM19.13,28.48V23.59H14.31v4.89Zm9.95,0V23.59H24.26v4.88Z"/></svg>