<svg id="Camada_1" data-name="Camada 1" xmlns="http://www.w3.org/2000/svg" viewBox="0 0 88 84"><defs><style>.cls-1{fill:#ff8400;}</style></defs><title>CODIGO 1</title><path class="cls-1" d="M38.38,67.7V61H41.7V57.66H38.38V54.32h6.71V51h3.34V54.3h3.35V47.62h10q0,1.66,0,3.33h3.32V47.63H61.79V44.27h-6.7V37.61h-10v3.34H38.39v6.69H41.7V51H38.38v3.34H35V51H25V47.64H35V20.87h3.35q0,4.83,0,9.66c0,.11,0,.22,0,.36h3.34V24.22h3.34v6.68h3.35v3.34H65.13v3.34h3.35v3.36H65.16v3.35h3.32V51h3.35v6.68H68.5v6.71h3.32v3.34H78.5V71h-10v6.69H65.15V74.39h-6.7V71.05H55.12V67.71h6.66V64.37H45.08V67.7h-6.7Zm20.06-10V54.34H55.12v3.32h3.33V61h6.66V57.67Zm-6.7,0H48.43V61h3.31Zm6.72-16.77h3.31V37.61H58.46Z"/><path class="cls-1" d="M8.28,30.88V7.5H31.66V30.88Zm3.35-20V27.53H28.32V10.84Z"/><path class="cls-1" d="M78.5,30.89H55.12V7.5H78.5Zm-3.34-20H58.47V27.54H75.16Z"/><path class="cls-1" d="M8.28,54.33H31.67V77.71H8.28Zm20,3.35H11.63V74.38H28.32Z"/><path class="cls-1" d="M38.38,20.87V14.18H35V7.5H51.74v6.66H48.43v3.35h3.31v6.67H48.41V20.87H45.07V17.53H41.73v3.33H38.38Zm3.36-6.72H45V10.84H41.73Z"/><path class="cls-1" d="M25,37.59v3.34h6.68v3.34h-10V51H8.29V44.3H11.6v3.3h6.71v-10H25Z"/><path class="cls-1" d="M38.37,67.7V71h3.34v3.34H45v3.34H35v-10h3.32Z"/><path class="cls-1" d="M18.31,37.59H11.62v3.33H8.29V34.27h10q0,1.66,0,3.33Z"/><path class="cls-1" d="M78.5,44.27H75.18V37.6H71.85V34.26H78.5Z"/><path class="cls-1" d="M25,37.6V34.27h6.67v3.32H25Z"/><path class="cls-1" d="M71.83,51V47.65h3.32V51H71.83Z"/><path class="cls-1" d="M75.19,54.33H78.5v3.32H75.19Z"/><path class="cls-1" d="M48.41,30.91V27.58h3.32V30.9H48.41Z"/><path class="cls-1" d="M38.38,61H35V57.67h3.32V61Z"/><path class="cls-1" d="M71.83,64.36V61h3.32v3.32H71.83Z"/><path class="cls-1" d="M68.48,40.94h3.33v3.34H68.49V40.93Z"/><path class="cls-1" d="M51.74,74.38H48.42V71.07h3.31Z"/><path class="cls-1" d="M58.44,74.39v3.33H55.12V74.39h3.32Z"/><path class="cls-1" d="M78.5,77.72H75.19V74.41H78.5Z"/><path class="cls-1" d="M51.76,47.62H48.43V44.3h3.32q0,1.67,0,3.33Z"/><path class="cls-1" d="M25,24.2H15v-10H25Z"/><path class="cls-1" d="M61.8,24.19v-10h10v10Z"/><path class="cls-1" d="M15,71V61H25V71Z"/></svg>