<svg id="Camada_1" data-name="Camada 1" xmlns="http://www.w3.org/2000/svg" viewBox="0 0 92 87"><defs><style>.cls-1{fill:#ff8400;}</style></defs><title>SEGURANÇA 2_1</title><path class="cls-1" d="M52.76,71.15c-1,5.87,1,9.83,6.72,11.76l-.45.55H31L30.4,83c5.49-2.15,7.92-5.94,6.79-11.8-.61,0-1.39-.1-2.17-.1-6.7,0-13.4,0-20.1,0-4.47,0-6-1.49-6-6q0-21.42,0-42.85c0-4,1.17-5.68,4.8-5.74,10.59-.18,21.18-.06,31.91-.06l.4,3.34c-.92,0-1.76.12-2.59.12h-28c-2.88,0-3.12.24-3.12,3.17q0,16.9,0,33.79c0,2.79.24,3,3,3l58.75,0c3,0,3.27-.28,3.28-3.31s.19-6.2-.08-9.27c-.24-2.73.9-4.43,3.22-5.92a16,16,0,0,1,.2,1.74c0,7.36,0,14.72,0,22.09,0,4.29-1.56,5.8-5.91,5.81-6.55,0-13.1,0-19.66,0Zm-4.63-5.28a3.22,3.22,0,0,0-3-3.59A3.37,3.37,0,1,0,44.66,69,3.15,3.15,0,0,0,48.13,65.87Z"/><path class="cls-1" d="M85,18c-.57,9.88-4.82,19.49-15,25.91a3.84,3.84,0,0,1-4.65,0c-8.87-5.64-13.56-13.82-14.8-24.12a44.92,44.92,0,0,1-.36-5.05A2.75,2.75,0,0,1,52.9,11.7,26.78,26.78,0,0,0,66.29,7.12c.77-.51,2.6-.06,3.58.53A25.18,25.18,0,0,0,81,11.54C84.64,11.85,85.17,12.53,85,18ZM55.05,25.39c.25,4.82,7.23,14.37,12.9,15.89,0-.78,0-1.5,0-2.22,0-3.68.07-7.36,0-11,0-1.66.53-2.19,2.16-2.13,2.86.11,5.74,0,8.6.06,1.43,0,2.23-.42,2.44-1.84.38-2.47.74-4.94,1.14-7.4.23-1.4-.36-1.82-1.73-2.1a73.49,73.49,0,0,1-8.45-2.32A34.11,34.11,0,0,1,67.57,10c-.06,1.1-.14,1.88-.14,2.66,0,3.46-.1,6.92,0,10.37.06,1.79-.46,2.48-2.34,2.41C61.82,25.3,58.51,25.39,55.05,25.39Z"/><path class="cls-1" d="M17.58,45.67h3.2l-.36.47c1.16.94,2.2,2.21,3.53,2.72a2.64,2.64,0,0,0,3.61-1.64,3.05,3.05,0,0,0-1.76-4c-1.31-.67-2.66-1.25-4-1.88-2.31-1.1-3.79-2.8-3.65-5.5s1.77-4.33,4.32-5.25c.66-.24,1-1.26,1.52-1.94.29-.41.55-.84.82-1.26.33.37,1,.78.93,1.11-.16,1.54.74,1.94,1.95,2.4a5.27,5.27,0,0,1,3.63,5.33c-1.72.15-3.44.9-4.23-1.7-.2-.67-1.93-1.24-2.92-1.19a2.77,2.77,0,0,0-2,1.78,4.24,4.24,0,0,0,1,3.23,20.75,20.75,0,0,0,4.45,2.37c2.92,1.45,4.09,3.17,3.84,5.78a5.3,5.3,0,0,1-4.47,5c-1.2.27-1.48.93-1.47,2,0,.34-.53.69-.82,1-.31-.33-.9-.69-.87-1,.2-1.64-.91-1.88-2.07-2.29C18.73,50.26,17.61,48.76,17.58,45.67Z"/><path class="cls-1" d="M49,50.57c-4.12,0-8.24.07-12.36-.06-.79,0-1.56-.85-2.34-1.31C35,48.78,35.77,48,36.53,48q12.36-.13,24.71,0c.78,0,1.54.86,2.32,1.32-.74.41-1.48,1.16-2.23,1.18C57.21,50.64,53.09,50.57,49,50.57Z"/><path class="cls-1" d="M44.11,38c2.57,0,5.14-.09,7.7.06.67,0,1.29.81,1.93,1.25-.65.45-1.28,1.28-1.94,1.3q-7.81.16-15.63,0c-.65,0-1.28-.85-1.92-1.3.64-.43,1.26-1.21,1.93-1.24C38.83,37.9,41.47,38,44.11,38Z"/></svg>