<svg id="Camada_1" data-name="Camada 1" xmlns="http://www.w3.org/2000/svg" viewBox="0 0 78 96"><defs><style>.cls-1{fill:#ff8400;}</style></defs><title>TAG 2</title><path class="cls-1" d="M43.33,88.52H41.57c-.11-.35-.43-.45-.7-.61L17.46,74.34c-3-1.71-5.91-3.42-8.86-5.15a1.9,1.9,0,0,1-.79-2.85c.14-.26.29-.51.43-.77L33.94,20.89c1.63-2.83,1.11-2.39,4.34-2.95a1.83,1.83,0,0,1,1.67.5A32.41,32.41,0,0,1,46,26a3.47,3.47,0,0,1,.49,2.78,6.36,6.36,0,0,0,2.78,6.82,6.56,6.56,0,0,0,7.58-.24,6.2,6.2,0,0,0,2.34-6.88,6.67,6.67,0,0,0-5.8-5c-1-.08-1.13.11-.7,1a40.45,40.45,0,0,1,1.81,4.27,1.9,1.9,0,0,1-1,2.59A1.92,1.92,0,0,1,51,29.95c-.53-1.37-1.09-2.72-1.74-4a29.37,29.37,0,0,0-12.4-13.3,36.29,36.29,0,0,0-5.68-2.37A1.87,1.87,0,0,1,30.32,7c.14-.16.34-.27.36-.51H32.6c.2.43.65.43,1,.56a31.27,31.27,0,0,1,13.19,8.61,2,2,0,0,0,2,.7c3.69-.58,7.38-1.12,11.08-1.66a2.06,2.06,0,0,1,2.67,1.55c2.86,7.25,5.69,14.5,8.58,21.73a2.93,2.93,0,0,1-.22,2.79c-4.22,7.3-8.38,14.63-12.62,21.91C53.32,71.33,48.6,80.08,43.33,88.52Zm-4.5-17.86a7.06,7.06,0,0,0,6.53-3.8,7,7,0,0,0,.07-7.72,21,21,0,0,0-4.06-4.6,28.24,28.24,0,0,1-3.72-3.62,2,2,0,0,1-.15-2.59,2,2,0,0,1,2.38-.85,11,11,0,0,1,3.9,2A2.81,2.81,0,0,1,45,52.64a1.3,1.3,0,0,0,.79,1.63c1,.5,1.93,1,2.9,1.54,1.33.71,1.92.44,2.31-1,.85-3.19-.37-6.31-3.32-8.53-1-.75-1-.85-.71-2a1.08,1.08,0,0,0-.55-1.42c-.8-.36-1.49-1.29-2.54-.61a1,1,0,0,0-.17.17c-1,1.06-1,1-2.31.56a10.23,10.23,0,0,0-1.61-.47,8,8,0,0,0-7,1.52,7,7,0,0,0-1.4,9.43,23.53,23.53,0,0,0,4.63,4.84,16.53,16.53,0,0,1,3,3.08,2.41,2.41,0,0,1,.1,2.91,2.24,2.24,0,0,1-2.65.78,10.69,10.69,0,0,1-3.28-1.45c-2-1.32-2.33-2.07-1.76-4.39A1.15,1.15,0,0,0,31,57.76c-1.29-.71-2.57-1.42-3.88-2.07a1.11,1.11,0,0,0-1.68.67,7.62,7.62,0,0,0-.59,3.76,9.05,9.05,0,0,0,3.82,6.4c1.29,1,1.3,1.06.63,2.5a1.23,1.23,0,0,0,.6,1.86l.63.34c1,.54,1.52.41,2.09-.61s1-1.22,2.14-.78A12.27,12.27,0,0,0,38.83,70.66Z"/></svg>