<svg id="Camada_1" data-name="Camada 1" xmlns="http://www.w3.org/2000/svg" viewBox="0 0 96 87"><defs><style>.cls-1{fill:#ff8400;}</style></defs><title>TAG - TEMPO</title><path class="cls-1" d="M69.65,5.19c-.12.27.14.26.26.32a3.34,3.34,0,0,1,1.82,3.22q0,9.77,0,19.54a8.66,8.66,0,0,0,0,1.21,5.18,5.18,0,0,1-2.19,5c-.34.27-.5.27-.78,0Q66.89,32.52,65,30.65c-.26-.25-.37-.47,0-.72a1,1,0,0,0,.33-.87q0-8.37,0-16.74c0-.53-.16-.68-.68-.68q-8.37,0-16.74,0a1.44,1.44,0,0,0-1.1.53L26.92,32,15.83,43.09c-.72.72-.72.72,0,1.46q8.32,8.32,16.65,16.63a1.82,1.82,0,0,1,.61,1.44c0,2.06,0,4.12,0,6.18,0,.72-.26.81-.85.64a3.52,3.52,0,0,1-1.53-.92Q19.54,57.34,8.32,46.15c-.36-.36-.43-1-1-1.13V42.6c.15.18.22,0,.26-.08A5.54,5.54,0,0,1,8.92,40.9L42.62,7.2a7.76,7.76,0,0,1,2.11-1.8c.09,0,.14-.13,0-.22Z"/><path class="cls-1" d="M58.78,82.43c0-.43-.38-.27-.59-.32C50.2,80.49,44.44,76,41.25,68.5A22.52,22.52,0,1,1,84.27,56c0,.21-.11.57.32.59v6.49c-.38,0-.26.29-.29.46A22.56,22.56,0,0,1,65.73,82.14c-.17,0-.49-.09-.46.29ZM62.09,76A16.08,16.08,0,1,0,46,60,16.05,16.05,0,0,0,62.09,76Z"/><path class="cls-1" d="M55.6,27.7a6.43,6.43,0,1,1,6.46-6.39A6.43,6.43,0,0,1,55.6,27.7Z"/><path class="cls-1" d="M58.82,55.09c0-2.44,0-4.88,0-7.31,0-.59.17-.79.77-.78q2.45.05,4.9,0c.61,0,.82.15.81.79,0,2.69,0,5.38,0,8.07,0,.69.21.84.85.83,1.63,0,3.27,0,4.9,0,.56,0,.74.17.73.73,0,1.68,0,3.37,0,5.05,0,.52-.14.69-.68.69q-5.8,0-11.61,0c-.51,0-.64-.18-.63-.65C58.83,60,58.82,57.55,58.82,55.09Z"/></svg>